<mxfile host="app.diagrams.net" agent="Mozilla/5.0 (Windows NT 10.0; Win64; x64) AppleWebKit/537.36 (KHTML, like Gecko) Chrome/130.0.0.0 Safari/537.36 Edg/130.0.0.0" version="24.7.16">
  <diagram name="第 1 页" id="fheAZRG5M01xd1Gn8jw-">
    <mxGraphModel dx="2736" dy="1125" grid="1" gridSize="10" guides="1" tooltips="1" connect="1" arrows="1" fold="1" page="1" pageScale="1" pageWidth="827" pageHeight="1169" math="0" shadow="0">
      <root>
        <mxCell id="0" />
        <mxCell id="1" parent="0" />
        <mxCell id="ldGgA2pG-wS7AxusLCZh-14" value="" style="rounded=1;whiteSpace=wrap;html=1;fillColor=none;dashed=1;" vertex="1" parent="1">
          <mxGeometry x="30" y="426.5" width="640" height="190" as="geometry" />
        </mxCell>
        <mxCell id="ldGgA2pG-wS7AxusLCZh-39" value="" style="rounded=1;whiteSpace=wrap;html=1;fillColor=#f5f5f5;fontColor=#333333;strokeColor=#666666;fontSize=14;" vertex="1" parent="1">
          <mxGeometry x="148" y="456.5" width="280" height="140" as="geometry" />
        </mxCell>
        <mxCell id="ldGgA2pG-wS7AxusLCZh-38" value="" style="rounded=1;whiteSpace=wrap;html=1;fillColor=#f5f5f5;fontColor=#333333;strokeColor=#666666;" vertex="1" parent="1">
          <mxGeometry x="150" y="190" width="280" height="140" as="geometry" />
        </mxCell>
        <mxCell id="ldGgA2pG-wS7AxusLCZh-13" value="" style="rounded=1;whiteSpace=wrap;html=1;fillColor=none;dashed=1;" vertex="1" parent="1">
          <mxGeometry x="30" y="163.5" width="640" height="190" as="geometry" />
        </mxCell>
        <mxCell id="ldGgA2pG-wS7AxusLCZh-2" value="The man is wearing a black coat, blue trousers and grey shoes. He is wearing glasses. He walked and looked around." style="text;html=1;align=center;verticalAlign=middle;whiteSpace=wrap;rounded=0;strokeColor=default;fontSize=21;direction=south;" vertex="1" parent="1">
          <mxGeometry x="1280" y="220" width="140" height="340" as="geometry" />
        </mxCell>
        <mxCell id="ldGgA2pG-wS7AxusLCZh-3" value="" style="shape=image;verticalLabelPosition=bottom;labelBackgroundColor=default;verticalAlign=top;aspect=fixed;imageAspect=0;image=data:image/jpeg,/9j/4AAQSkZJRgABAQAAAQABAAD/2wBDAAIBAQEBAQIBAQECAgICAgQDAgICAgUEBAMEBgUGBgYFBgYGBwkIBgcJBwYGCAsICQoKCgoKBggLDAsKDAkKCgr/2wBDAQICAgICAgUDAwUKBwYHCgoKCgoKCgoKCgoKCgoKCgoKCgoKCgoKCgoKCgoKCgoKCgoKCgoKCgoKCgoKCgoKCgr/wAARCAG+ALEDAREAAhEBAxEB/8QAHwAAAQUBAQEBAQEAAAAAAAAAAAECAwQFBgcICQoL/8QAtRAAAgEDAwIEAwUFBAQAAAF9AQIDAAQRBRIhMUEGE1FhByJxFDKBkaEII0KxwRVS0fAkM2JyggkKFhcYGRolJicoKSo0NTY3ODk6Q0RFRkdISUpTVFVWV1hZWmNkZWZnaGlqc3R1dnd4eXqDhIWGh4iJipKTlJWWl5iZmqKjpKWmp6ipqrKztLW2t7i5usLDxMXGx8jJytLT1NXW19jZ2uHi4+Tl5ufo6erx8vP09fb3+Pn6/8QAHwEAAwEBAQEBAQEBAQAAAAAAAAECAwQFBgcICQoL/8QAtREAAgECBAQDBAcFBAQAAQJ3AAECAxEEBSExBhJBUQdhcRMiMoEIFEKRobHBCSMzUvAVYnLRChYkNOEl8RcYGRomJygpKjU2Nzg5OkNERUZHSElKU1RVVldYWVpjZGVmZ2hpanN0dXZ3eHl6goOEhYaHiImKkpOUlZaXmJmaoqOkpaanqKmqsrO0tba3uLm6wsPExcbHyMnK0tPU1dbX2Nna4uPk5ebn6Onq8vP09fb3+Pn6/9oADAMBAAIRAxEAPwD8kVYAYJr+tD90F3r60AG9fWoe5alZBvX1pD5w3r61a2Ibuw3r60xCgg8igpS6ChS3QUFpN7EsNtI5GEpxp1JvTYuFKpKWhpWHh7UdQby7e3d/QIhP8qpwUN2evhssrVtka9t8NdfkAYaRc5/64n/CvNr5phcPNxlI9ujw1VnBNokl+GHiCNPOfSLgD18o1is9wM3ZSNf9V6hQvfBuo2gMktnKMdQUIropY2lVleLOLEZFWotqxkXljNEThK7JRlUWjPDr4WpSdrFYI6jDjmqpxcYWZw8jT1FVipqyk1YCcnNQ9yr3EpAFQ9wFEjKMA0gHqzEZzVrYd2gplXQUBdFOg4AoAYxO7rUPczle4lIB6fdFUmrFrYWndDJEjfYGxwelN6K4nCa97oT20YY7ccjrUznGEeaWx24aPtZWieh/Cf4PeJPiFexW+laW8iMwEkisvGfqa4q2c4bC0uZy0Pt8qySpVim4n1r8F/2IrDR/Lv8AV0ZpcZbeeOpr8v4l8QMNhIPlqH6ZlfD8YR96J6FrXwX0PR2+zx6VGduOQa/n7PPFOi8TK1U+qo5PT5UooyNb+EelXNnti01AcdBXiYTxOU6mlU6P7D0vynB6z8DNF1SKS0kg2s/GRiv07h/xIpVIxi6hxYrh1Tg2onknxd/ZR1Lw3p7aho0Esw69v8a/aMm4ww+Lio8+p+d5zw5NN+4eBarpVxaXMkEsW0ocMDwc191hcfRxHu394/Ncxy2vhqrutDOddh9vrXbOcYbngSd5WQhBHWl8WqNIpxVmKFJ5ApXsMQ8dazbQACDyKAHp90Va2AXpTCwm9fWldAVKZxhQAx/vGoe5D3EpCHp90UFrYUAscAUDLEauYsY4XrzWjfuI05m48qOk+GngnVvGvia30XS7QzSSyKCnYDPvXl5vi6eFwzbZ9FkeBc6t2frR+yT+yBoPgzwTaare6bGJZYlbAjHXvX8w+IHHv9nU5qM9Efp2ElHDJHp3ivwSmjWDyxWyqoBKhVr+OOKPFTEYmUoRmfVYLNIS0PL3trfUL8xTSAEt8qkGvzDEcRY+vebe59DhcxjLZi6r4Zjht2ZioG3jilhs+xlN7ntQxnMjz298H3Z1MXa52h84FfW5VxljcNWT5jRV4yjZnY6P4X0jxjpTaNe28bMAQwKdK/Z+FvEvEQrxTkePmGFpVFdnxP8Atvfsx3Pww1KXxfaRhbeWUEoAMYIABr+r+CeN6eNUJSlqfl/EeUxlzOKPmKdS0rRxgZB6Cv3nB4ujjrNM/G8bh5UKzZGwZfvV6lSCpuyOVTbWowyMDgHiuaQ+cXJZcnqahbFrVAoIGDQtgWxIn3RWi2GKeQabKtdDNjelRZisyIxAnK9Ks47MayMDjFAWYm1P4utQ9yXF3DbF/kUhcsgCE/cHFBooSsOjRg3IpqLYcjLK7RHg9zzSrTVKndnZQhF6dT7M/wCCUvwfXxb8S21PV9P3w7VMLMoI55FfkXiHn1LCYCVpH3eU0XSgnY/XLS/D9pYaXHp9rGqiNAoULjFf5t+LvHDaqU6c7s7quIm5toj8Y+Aft+iSSMP+WZJ/Kv5Nwec4nE4tub0Iw2ZyVTlTPlPx9Znw34kKxt0bI+lfpuXT+sYZM+zy7GPRN6jU1JtYhRXOAP1rqlGcVsfZUK0nAdPZWrIIl2g/Ss1WlTTfU19vJam74E8MxWN39tbnf96tcFndbC4pST0OPFYuUotXOX/bU+ENl8SvhlLYNbghYwwIAyCDX9J+HfGdq0Lz0Pn8RetRcXufkb4u0l9A8TXumMhXyLuSPB9mIr+7+Cs+hiKUJc25+VZ9gHSk20ZVzv3EgcV+wKtGulKJ8RVi1K62IlyeD1qJQkjJNsep2jBrNJ2N4ySVmKCGOBTsyueJKgUKNx5qlsaRs0BxnimUFAEZAU4FN7nI1ZjH+8aQhjKScgVD3ATY3pSAkhBAwaS3NofCSIm81vEEkSQxb7gIehJ/lXj51WdGg2d+XUPa4lI/T/8A4JlaXb+FPB9lrMa4Zok6Yr+OPGLiWVDCzVz9QwuDcaN7H3l4Y8RNrtzEkGSGYZ/Ov80uPc4njcRN33PKxlN0m7HqWteGhJ4SmkR+fIPHvivzrK4tPmZ8fSxjWNsfDvxm09o/FEiT9t3P41+s5JUvg1Y/TcplztMwtEMcUbCVgCF4r32nKJ+h0P4YlrO8mqhd2fmHFcdeHLBmdSbSsehaJBOIfNSPAxmvmq05RloeRXqSuQfE7XdPHgi7hkZXfy8bSOlfqHAWMqQq079zKlFz1Px7/aK09bb4rau8MW1JLtnjx3Bwa/0T8NMfz4eFz4/iXCuUThJVBXNf01lsuahFn5ZiYezvEgZVHQ816dTY86PxCVzLY1e46MENk9KYiYEHkUHTT+EKCwoAY4IJJFN7nPOL5iNgScgUiLMTpUtO4gpWYDo+uKXK7msGrWJoFIJyK3imXGLsaGiWnn38asvVj/Kvn+JV/sbPocipXxSufpZ+xXr1pp/geysY8YWCPn8Oa/gLxpjUdGZ+w08OnhlZH1/8MvG1vYXkIjkBVmHr61/n5n+EnUqSPnczoJUpdz6h0+Z9R8CyTeXkGLIP4V87h6XJFxjufk0v3eZq/c+DPj3dRL43nhDYO9uMe9fovD1Of1JXR+s5LJSUbHJWKxkFnPJUd6+njKMVyvc/SsPCTp6DoLmCwv0mZhgEFs+lYVqUql1EVSKjH3j1G11FZPDBurdQSYztNeJPCx9pyvc8asoObPA/iZ8RZv8AS9OklONxB6+lfo/CeFVKcGdGGw85K6R8AftJWscni43UKf6wtk1/cvhrOSpRSPn+IsNJU3zI8uuAEJTOcV/WuRS5sHBdT8VzOKjWkiqxy1e3VkloeImlIApPIFYWa0ZvZy1Q5eBg0CsxwYgYpO5tG6Qbz6Cj3irsN59BR7wXY6UjOPemOe4ygysxjdTQZvcTrQIdGCrZIoLgtSzDyeO5raO51Q2Nzw7asZkk28hif0r57iPXCtH2XDWHVSqmz7X/AGV9curXRbW3E2D5KjaDX8MeMWFdShM/c8LgE8Mj7F+D1wLi9tpLl+rrwT71/AnENGVOpOKR8dnmElCU0j7f8JX1p/wgDRBhxD0/CvgaUZKqz8QxtGazRPzPz5/amv0tPiDK1u4BLtwDX6twzRc8In3P1PIIT5InnaeIbuFUeQkKe9e/Uwqcz9WwlOSpol1bUpLiNZkmwAByD1pxouNRqwsTRbR7B4C1uyu/BkcFwwZvLIP614NWjL6yeS8JLnVj5n+NmoWlr4ivFXgM5xz7V+n8LYaUpQPo8BgrUlc+QPj0kc2rJIOxNf2p4dYf2dKLPl+KsPGNNnkt0h81sCv6n4fd6CP59zeH7+RUb7xr3Kv8Y+ecdRyjAwaJ/EdMPhFqAe4UDTVgoKCgBWO45pX7he+olF0Ax/vGi6MZfEIODRdEkgIPIplxdkS2+egrVbnRTd9jpvDKOwHHJHA/GvFz2Ep4d8p97wu+WrFM+kv2YfEl1HrQtZJDtVVCj8K/jzxXy6tPDTfKf0Nl8HLDKx9h+B/GlzaXVosEhDM4wB9a/gniTLuWvU5lY+ez3DwjGTkfavw+8az/APCtHlvOH8gnk/Wvy1YW9Z2R+G43A8+YcyXU/PT9qHx1d3fxOIjf5RK2Bn3r9h4VwKjlt5H6Rw/h/cjoZV34sS80WOJI1DhePWvZq4WTqXS0P1rBYJukrIy5/EGow2LttYhiNvFWqEG7sxxODqczVjvvg74tvLi2NnNOQACcH8a8mtgYvE3WxyRwclq0eU/tAaNeHVpr5mYK7kg59q/ROFaKVaHY9OnFUoXex8r/ABat3F0scxztzg+tf2hwLTXsI2PhuLFUnRbieW3MJ8xjjua/pDIKcoYeLZ/PuaRbryuVHgAbkda9mqn7Tm6HgOD5hjqVbBFQ2pO6LtbQaWA4pGbauAOeQKBXQFgOCaClJJBvX1oHzxBc45qHuEPhFpFDG+8aDGW4BSeQKCRyggYNWtivsk1t94fStlub4fc6/wAJxZKPj6/nXnZlFukz9E4Zp3rxZ7t+z6yW2umQn7oBNfzV4mYeM8JK5/ROWrlwqPsf4KeH5te1W2ubhSERgQfUZr+AeNMNTjWqHj57BTos+nfGXja18J/D6WNJAh8nAHPPFfkOEwntcU0j8sjgPa4q5+cXxh+JFtdeNpbq5kHEzAH3zX7ZkmWThgFFdj77I8A4qJfsvGWkNYxzROpfYM816dTL5uOx+nYanyU0XLTxfpd/psnmsCwzj5sfzrx6mFqqry2Iqw5pNln4bfEa3ttfNtGeOhGaqWBlFXZyTpO5t/FyS11nStyxfMVJ6V9Tw640qsbmdWLVOx8jfGfTJIb7c0WF6Zr+w/D6vCdKKPkuIaHNhWeSX8AjlbI71/TOUzX1WKP56zahy4iRnXKEPkDivYmuaJ8zJWkRugY5PpXNa2gNX1IJk+fK9KDmnB8wIjbRxQJR0GujbjxQDgxNjelAuSQ7etS07lRkkg3rSsyueI0gkkgUWZm9XoOT7oosydgZlXljTUlsV9i5PYDzZwo7da6IRcnob4VqUrI73wpprbA+MZxjNY5nh5/VuZrQ/VOFqT5oto9y+AOii419sschVGB3r+WfFCq1hZpH71hJRhhkfe3wAs7M2sShAGRADxX+fHG1arHE1Lnzee1nyNRNP9rLVxovgLzkm2Eodoz14r4zhmjLEY21j5LAQlOqfmL4j8eWev8Aii4gnYlvtLDOD64r+mMpyiSw8YpdD9OyejFU43Os0qyltNPF15zbNucFq9upw/X5L8p9e3CMLI3/AAhYHXLRnjmUAZBBPua8OeRT9u7xOdzhFamZb+Ibfwx48i0+SYLvkXHPXgZrzsxyqrThpEw5qc3ofQlzp1trHhxJkAbMPr6ivncK6uFxPvGVelKx80ftC6PFYJl4gDuPNf1D4a5pB8queBnVBvCs+etcKrcPnjPSv66yLERrYeKT1P524gh7PEybMeeRJMBGzX1yslZnwlSrTqTaiIY8cNwcVz1IOMjaMbR1GPGCSKxujOURm3nC0XTIURRGp5I5pj5A8pPSgOQqtgHinJpu6OKLdtQBB5FIYo3FcAcUDvoNd2Tj+tBnKREZWeXYPrXPPSdyY1HN8qOh8PaFeXu2WKJm6cKM1tHF04Lc+lyrK6lVpo7fS75dPtvIuBtZeORzXJm2bUpYXkufquSwWDSUkdv8LvivB4O1Y3TsfmI78V/NXiBhK2Mw0nFXP03CZth3R5WfSPwp/bZ0vw1eoZbpcEjIaTFfxHxdwrjMRiZ+6zzMxnCu3bY3v2lv2nbD4peD/I0u4TKr/wAs3z/D7V5nCXBuKpYrmlE4cBhVCeh8MwwONWnvGclzcMc9O9f1lw1wrKphITktT6yhiFh9LnYSeONQ/skWEXJC4zmvq8XwzKFLRHrQzFSjozp/hZ40Fta/Zbhv3hYkjPbNfG1uHqnt3odPtozgcj8UtUZvG8GqRyFQhDZB968DNOH6qjsYqtGlI+iPhN8Xre58LrBNIsgEYGSefSvznHZBWhXbsdirwnBM8z+PN/Hq6FeBliRzX6hwFQq4aqkzlzSnGeDZ8+63oryTMUGQT1zX9h8KTboQZ/PfEuXOrXlZHN6hoV9ZS+c0TKue9fczr8sj8vxGW1aFVuxA9wd20nn0qZ4hTq2ORzqKdmSwxSON23rV+zbVzqpwchsi+WxBFQ/dJmuVjMv6UveI94Mv6Cn7w/eIpYSpIxyDWWGn7WkpIwr0ZU6rREVKjJFdDi0c70Alwu4dO1JK6uS7tX6EEshLY71Dko7nNORZ0nTJ7+UbUyegrOslOldHoZXg6uJrKyPs/wDYs8H+ALuxa28RWkTuIxnzEBxx71+eZ5m31Fvmdj9x4dyd8qTjqTfHT9n3w/quu/a/DJjg3yfJtX7w/Cvi1xPRxNS3Poff1MipwoKTVmeSePPglqvg9N/n/aMDczIhwBXuSpYHM8La92eP9SqQlaJxN54VvblMq75AycNjAr86zfgnD1ZtqOp2Qw9Vx5T6L/ZR+Da+KPBUpuLgySMxVfMbODk+tfP4fhfB5fU5pxsevhsPKnrJHA/tAfC9/hZ4rWyWQOs6luBgZzX6XkNLDOnFU9jkzBzpyclsclZvFLGMHkjkH1r7mplCrUNInLhMcnKzZd0a8Om6osg6dCK+aq8PNVm3E9unjo83Lcb8ShBchL1VI/d8/WvBzTh9TjZRMcfi+SN2R/CzxfPpeqxWkkzGKQ7XG7pXwmN4Z9rJxUNQwGZwqU0r6no/j/QBrmiNc2JLFFyoB9q68gyOeErpSjY+gxFb2uF5VueTCzFrdj7RFnB5DCv3rIKlLDQUWz8zzHCTVduaG+M1sbvTgkFuobHUCvpq9dOV1sfK5jltKcG0jz240bbdGXacE1jQc54jn6HwWJy1RqN2LsSQQw4xzj0r6qM6fszH2agtDOvIiXJC96452ctDz68Jc7diAjBxULU57oXY3pTsyrFjVrCS1u3Rhzmvn8qxf+zxTZ7OdYCdHGTVjNmABKGvoVJTjofMVEr2ZDJJsTaO1ZOTjoZSfLEjgt2upVXH3jWFSavYmhRdeaSPXfhz8JbpvDr63LAchSVzjtV1q9Klhdz9ByDLJUpKTRd8KfEbxN4d1ExaPqbQZOPlHavxPiucsVKSifr+RVIQrJM2db+Mnjw3Mdw2tySeWQSem6vyaWHxlDEuy0PvMZXpKmek+AvibpXxI0Y6LqkP74ptct1A9c19hlmY4ihFXPJowp1J3Rz8vw+tbLxEbCzcyxOCoO3PWvYxWf0adC83qezRwUG7nYaP4v1n4DW8HnRyR2rncSqnPXPavz/MOJKFabSO2eGhGJzvxt8Z6X8XLAeIYJvmijO3d97NfS8LY6dWUbbHzeaxgouJ5bpMbK4jbNf0VlFD22HVz4pSdGoasdmBIZTXRi8sgk2e3hJ87UhuuwNfWO1lJCjg18risvhNnVjl7WkcksUthd+bCxBVu3avGlkcZzckfIrFVMLiLLoeofCTx/8Aah/YmqOrfKQC/fk18njcNPC4nRH3OVZgsRBJlL4o2Fiuq+dZIqgrghfXFe9lmIm5I3zfCQlS5jkbywZ7QswzgdK/QcPSlUpK58LjqHLRZzv2Nru4Fsq8k4AFejh6ahoz4apQ9rUaE8R+F7/Qrb7RdW5VTwDkHJx7V2VK0KcTysbgalGN0jl55mdz6+lckcSqk7I+drXs7kWSetdsY2VzhXxDvM9qOY1sjuPiV4KuNG1WS2aI5ySDxyK/K+G81pYyhC0tT9g4rySoqs5KJ53qEUsEjLtPWv07CyXKrn4dmNKvSqtWKkjOVw/WumcY/M85ynazN/4f6DLreuWllCMvLNtUep6189j8RHDu8mfT5BhZVqiuj7I0b4eahofwomkubU8QORwP7tfFZnnsFdKWh+zYDL3DDJ2PlaG+MevFAcEPytePgY08yrW3OaGLnhcXZnTmyN5HjGTivqv9TqVaF1HU+meaTrxsmJpT6t4cuxe2kjR+uDXzOZcLV8Jd8uh14TE1acryPTfgX4xj1vxdHBrEuW8wY3Gvx7iehWo1JRPrcHj4TgrM9j/a6Hg2DwJEY2Te0Q2lWGc4r4HA4GpiMRZnVXr1FA+TNFnvUZreOV/LYnqa/oTgvIpxw9N8p8fjsTKdWSZpwwyRt5jjn1r+gMvpPD0EmeNKm3K5oxb2hBA5NaY2rzUrI9bBw9xIdAtwx+ylflfjpXxtaq4VPePU9hOUbWKXiHwJf20f2yOMsrc5xV4eSnJtbHh5hlFSS54ow7OGewufNjdkdTwQa8jMsqnXqc0UedgKlXCVfe0NuS/l1CFVuJCxA6mqy/K505pyR9PXx6xGHUURXKoLRlbgkdK+7w1KKp2R8/jP4TTMPQ7cQ6+s0q/IsgzXJiKioTdz5PCUG8a7noHxI0/Tdb8JpHbRKZRgkDrjFfP43NqWykfQ47KVVoaI8I1/Tn0y5OQQdx4NVl2MjJptn5HnWBq4XESTWhSWVZD7ntX2UJKpT90+ZU4uVh2xvSo9nUOi6Ppj40+F7bWBNfw2+CinaQOtfyV4dcSQq0afM9T+sM7yz6zRkz5/8T6MkDn5MGv6ayvHwrKOp/O3EuTSoVW7HNyWn7wZ55719JLkaufnzot1uU9P/Zt0ZJPiBpk00G5EusuSOBxivy7jDMfq0Gz9U4RytyabR91fFLxH4Y0b4Q3NnHGBIbRgMDvsx/Ov57zPiebxLimfrKw/sabifnDFfs2vSsDjExzn61+hcCY6WJrJn55mdTkxbO40nWF+VS4xX9F4SSjTTZ24PGR5kd54W0LRvFVibVGBnCnPB65ryM6nRnA+3wThXiYWp6VrXw718XNuNrAgo57/AJV+L59k9HF1ZNHpwi8PLQseKviD4n8d2cdlq0y7Ihx6mvKyjg5e1ukaYjHvksZWmWio+7FfuOQ5RHCYWMbbHzlWbqVWzUitRICT29a+xvTjCzNoUZS1Hw5Q7G6CvDx+IjBOx6WEpTUjoPCVvatctPcKCF5BavznNcwlCTsfU0KVPk1I/GnxB06GNtMtVDnpx0FcGX5vUc1E87M69KEXBHCyuLiYygdeea/TMtpfWoJs+DxM0ql0WYCqkDNex/ZyjqFLFNMuRQpcrsNaRhGkejGCxKsyxovgptR1IFE+XOWOQK+fzqpGMHI68Fk0fa89ix4o26URbpNk9DzX5NjMfas9T6KtgYRpWZxHjzw0l5ZnUwnLDPA9sV9BlFaU6cWflnFOTqUpzsecsnkT+W3rxX6LgarcEfiGMpOhWdiTzB/eNel7WRj7WZ9o+PNIWDSucEsDwa/zU4Gzh4fExhzaI/uedNVKdj58+I+gkXUkyQ/KT1A9q/sLhXN411G0j8o4uynmi2kcENHLXgUqc7ulfq9OtOcLn4p/Zb+utWPVPg/dw+D1/tOdV3JICoYdq/IOP3UlSfKfrvDOAlSgtD0jxr8Sn8ceD544JjsMbDCk9ea/mqtgsVXxjsj7TEUpKL0PlYqbHVpY5eCJGxn61+3eHmFq0KsYzVj8Xz+fs8W7mzHqLxhSkp+lf0XJVPYpRPFp4/knudr8KPHk3h3xBFdTPlSwDKfQ1+d5/isZQvzbH6Zw1mNOpZNn0l43+Flh45+H41jT1Vrh4hIm0civhaOZOpiLSZ+junGtTvE+eZ7WTT757G4QrJGxDKR6V+n8P1MNZNs+axkZxqcp0mmeBdSudMXVBHiMrkcjn9a+xr4vD0Y6PQ2w+X1ZJSsUwxWb7PIOc4P1r56tndPn5VI9elhOV2kjQk0uGytftlxKu3GcZrgxGOjOLdzvUcNQp80mcvrnj17QNb2UoVAMbR2r5HGweJk+XU+ex+e4elpGRyJ1ae6uzLJKcMeMmtcsymtzqTR8Xic7dWu7yNrT5zOAR6V+t5Ph6kIJJGf1lVepqQxllyBzX0covlt1OmnZQuyzp6y3F7HaRDLO2ABXzeYznSep7OAmpSSR30mgX3hfw6+p3EZG1MkHHSvz3Ps2oqm4c2p9zhNKS7nA6rLLq9w92h+U87c9OK/NaSnjMR7uo8TKfKUdSnkl002rngA8EdK/SclwlSNKKkj47O5U6mHa6nnGvacsN6WwPY1+hYSEIxVz8DzjDWxDdih5Seld16Z4vson354w0vTriZrWVPu8Div8j+FsyUK6bZ/cdNe9Y8p8e/DdZ7KaRItvBIHFf1XwTn8FUirni55l8a1N3PGJdEjtdWZSASrV/R2XZnGtTVnufkuIyanDGt2N8ac91ZhAuFHYV5fEeVxxtFux9jlWG9lBWOk0DQvs/hOWWPdg5whr8klw7Glim7Hr143jJHgfjTNv4hkbbgljx+NfU8P0vq2MSR+EcXfu8Wxsd0GRSG7V+8YNKrhkz4idf3jR0y/kjlDxnntzXwXFmDnOL5UfacOY/wBnNWZ9d/shfE678UWcnh7VSCE2xjdz2r8Ox0qmCxDbP3XJsXGvSRT/AGsPgynga6i8WwQELdSfvCo4H5V7GUcVOlLlua4jCxnWuZfwg8T2Ws250W6VcIBgEdq+gxfFkqkdGe/g8PS9kkzB+KkWhaFdPNbFQ5fK4rzKOcVK07mWOlRw6uzzPxD44urlDbRzEIOwr6nCOriKaPznOM7jCcoxZy9xciZy0jEk9RX1OAyXn1kj86xuZ883qJE+ZBt4FfVYfKoUopHlRxcpVTo9FlAAzXt4ZexR9NgaikkbMc2yMuT24ronXVmz2OdfCanw5mjPjK0a5AKb8tmvg+IMfKN7HuZXD37nqPxs8YaQvg+XT7eSMSPHtVQOtfiWcYurVxUkfZU6/s4Hi+i3bS5VjkEV6HDuEqTqJtHNVxilGxJdwqEYOcZHFfr2AwrhFI+YzSSlFnBeLVVLkuvQdK+ijDlifjmexcKjZgecPag+Y54n6I+JdDl1S/WeKTaC/IFf4x5TinRqo/t3CTi5anO/GaSy8J+FWmuSoZoiCT9K/e+CMyqVMTFJmebTXsz5ZS6N9qzzjo0nX8a/rzhmvOdKHMfmmIfPi2zs7KGJdOwigkDmvvsZUhHD+8fR5fDmWx03hK7t20VrGZRyTX53jK9FYiWp11oOMpXPBfj1oY07xK0ttDhWGePpRliviVJH4XxxQqe1c0jjLa4KxKrnFfsWV1/3UUfldSTUdTS024XevzUZthY16ex6+TYpwqK7Paf2a/H0fhLxXbCRwqS3ClyfSvwXjHKp05TlGJ+48MY9Wirn2n8TZfCnxL+HTLfTwOEgLoCeRxX4xRlXp4ppn6PCnKdpLY+GJfFU/grXrmLTZcBZnUY9MnFfYYejXrxXL1OTEZlHCVGpOyOa8X+Or3XbgyXExb15r7XJ8lxd05R0PhM/4kp1E4wkYP2wOm4tznvX69k+UcmHjJo/NcVmXtG+Z6kLSsW4NfVU4wpRsjxJ1HKRYtckKWqlWdzooOHU2LG7EQGGreE3I+hw1dQSL9tqLzSrCHJBPSuWvVcJM9bC4hVaqSPQfCHhyGLTzrckmyRFJXJ+tfHZ17OqnY/QMBScIXOX8WeIpNUuXhnlDhW4yDX55PLVXxTSR04rGUoK1ylpUqJJgHA9q+6yTKHh0nKNjxo46Ep2TL104kOc5GK+3o0op6GGKqKdzifGkQUEgc5rqqciifmHEUGrnJ4l9DXNzQ7nwtpH6h2ej+Uz3MyZCJxn1Ar/ABVyqXtsQon9pUa6i7nyz+1b8T/7e1hPDMUxDQORKi56dq/pjw6ymVTERdjhzbMV7Pc820PT2mdSqYLYI5r+y8myv6vhIyaPkaX76tc7Wyt2sbbyWGd445qM6zKFGny3PtcBQcYpl8vFpGktORjC/er88nio4is2mepXw8ZUudnnPi3S28V3ZlmICqhAJNfYZJQbaZ+U8SZbHFNpHC6r4IurV2aOJmAOMge1fpmBSpQR+NZrw/VpVmkjNWOSzfay4wcHivSrVoThY8OnRqYWeps6XqtzaOs9vKUZDlWBr4TiPK3jKUmj7nIs2lR5dTtIfjv49SyFjH4hnEezbsB4xX4nX4YqRxLaifqOH4oSopXOZ1TWXvZPtM0pd3yXY9c19lknD0lGLaPns1zz2rbuZE8wdic9a/WcryaEKauj86x2YOc2yIyEcZ/WvoI01QgoI8iVXnd2IJCWBqJCUi3bzhUG5qi2p30ZxjBMsx3gyEU81oqljspYm7sjo/B1mLm7jmlXjPNZ15w9m2z67I8NKpNTZ3HiHVTaactrZzbQBhgtfFY+SnJ2P0pS9lQOJvRJLMZcZyfWscvy7nqqfc+ZzHEu7HWsgjxzzX31DCKFI8OjiXzmjExkh3DmtYKzsexGfPTOX8ZQEqSRSrbHxPEFO8WcpsX1FcNz4X2SP1e+INkvhjQJnZcMUbLV/irwxeWNVz+rXWtTufnV8Tzc33xR1FzIZAZRjnp8or+6vCzLXOUJNaHzWY1alR2Rp6PbPBCjBeg6mv6qxUYYbLU/I0ymjV51dHd+CNDbxHiSYYSM4znvX4DxRm1qrSZ+k4ejaktCL4w2kemWkVvBIF/vAV5OSYh4hruc+YVvZYdo8+tndyOCc9cDNft2SUeSmm0fn1Wq6tVna+C/D+kaxpcltdqm8nI3DmverY+lRla5NfKaWIp3tqeY/FL4fTaFqhNuoaKRiVxUUswjWlaLPzjPOH6sJXjE4yNpLeQxzKVGelepT5a9PlZ8TaphajUtC1CwPIPFZSyOnN8ziehQzSL0TJZSGTaOorooZdCjsjSviXOO5SkVgTkV6sZSgrI8SpGTkRSH17Vande9uYS0YxpUXndWUpInnjEWO6ZvuHOKXNFoPbStZGlokE9/dLEiE5cAYrirVYx3PdyihUrz2PdNM8AQeGfC41edQcxZIPUV89mOZqEnFM/YclwM4UY3Rx2p3j3DHaDtzwM14+GnPE1ND2MdPkp2M+Zcg46V9vl2EnCCdj5HFTjOLIY+GBNe+7unZHk0uVTL1vKqLhjxXOlJTsz2adSMYamZ4ptDcwF4lzjvSrRbieBnFF1ablFaHJ/YZPQVxezZ8b9Wl2P1U+PlxJfeEZWtUyTG4IHHrX+K3CLU8VF+Z/REZqpQR+d9/avqPxKuraVDlrkLz9AK/wBAPDGrGjRhc4/Ye0qWPUrj4e2droguFT+EZNft+dZzThgOW/Q97L8G4yRvfD3Qo7LS2ZTg5JP61/PWbYiGKxLsfYRjyUzyT4s+ILy68SSWDyZWJ/Wva4eoRpyi2fG51iaiquK2Ok+EfwP8Y/Ee0e50XTfkVciRj96v3HAYzC0cOuZnlYPDKdS8ip4r8MeJ/hlrv2PVLdoGV8cNwa+azTOcP9blCL0PcjhlF2Wxk+OtWh8SxRiSMBlwCcV1ZdjYSldM8HOMvU4s5zV/hDe3Onf2lpsTS5GSBjivvcFOLpKZ+Z5pw/zpySOCvoZ9KuWtp1KlTggivWji4NWPz3E4WWDq2sEdyGXdkc1qmpK4oVrxuxkjbgcHmmYzqIgcMeO9Q3qYOaIpIWc8U1T5jGUG9h1tDJHlSp9qVSnyRuTRpVHUsenfAXw9HNrQv7613KgyA3Svjc2x0qVz9V4XyyTs2j0H4leJ2Nv/AGLbMNh6qO1fC1cbUr4hn6zh8O6NJHCuoycnPvivtcgwkptNnj5lNWaKl1hAVr9GpUvZ00j5DESSbRT83D4Bpt8p50Za6Fu2LO4yOKUEpO50885Wii1qtg66eXeMgEenWoryikejiMJJ4S7Ry/2NP7p/KvP9pDufK/VD9avGfgSO8triCdR5fOASOmK/w+4MxcfrcY36n6xha0PYJM+Afi/4M0vwh8XzeWsoHm3O5k9AMCv714CxXs8LFntYKnGpK56zH4WutY8H+bbQ7lKAgrjvzX0/E2dqlRacj6nCUYw3OB1/xXL4Ct5LHyWZ3bB+U8cV+WYHNqeKxdlK56Ne3JocHpngHWvHeovqgiCo0ufm7jNfpGDxcKFNXex8xjMIqsnJn3P+y1pPhnwr4eWzkkj8wxKGXZjtzXzmf+IFLAJxVTU8StRqw0ich+058KdK8bXsktugw8mQyr04FfHYDjyjisTedTVnoYSpN6S3Plj4peAG8G36LjAc4KEjjAAr924YzbD4qCakaY2HNG4nhfxtb6Do7wX5yOcA81+uYbGQjhY2Z8xjKdJUHzHj3xAnh1vXJru0QfO5OB6dK1oYirUnofkueUKdWo+Qw10u+jhL+Q20fxYr6zCc3sUpbnx9TB4iH2dCtMZYn2kdelbyko7nn1eeL1GLMzDIrNe87rYxUncs2qNJ1XmuynOnFanZSpynsdL4U8JSavMolUqM8HbWeJacW+h9Xk+T1K7TcT0/S1i8M2YtYAMhcEqK/Oc8UZXP2vJMteHpptFK9P22f7S+SPQ187gcE51r2PpcQo+y0M66jKksVx6V+rZLhVSgro+HzJyuzPuoy4OK+n91x0Pla6c5NIzpl8uUK3HpXDXTiedaUalja0S2LMrbMknpXE6/s1dn0+W4P2yWmp0HiPTpm0F7lsLGqfdPavJxuY07aM+mzHCxo4KzR5z5g/vGvI+urufBezR9ieJP+Cgmi3unFotZTzHBzhzn06V/lVw/wBjMLmKaifZ+0pU4WPlHxz8UtW8Y+OLjxFc3RdHk/dDPQf5Ff1fw9luLwWGimuhdHN1RmrM+uv2YviNoHi3wxHoTXCGdI1WRWcAg/jXBxZiJRoyjJan2eXZrCrSTuXfjB8DdOXfrtxcqULblViPSvyvKMw9jjL2PdWIhUieOXHxN8M+HLo6bYDlG2tsBxkfhX6RDH1q6bic01Gbsel/A/wCLEmuakFtixQsFfDdK/E+N/rvt20jlrYVLU9h8d+J9C8N+GpL7UZV3hdwBkHpXwOT18cswUWmcSpxpzufEfxg+KEfjfxK8Vs/7qKU4YV/Y/h59YqUo8yOTG4uCjY4nVb/9yYw3X3r+lMtwcquFjofCZtmKinFM5m4OLgMRn0r26WEeGd2fn1etz1T3r4bfCnR/HfgxIook8xouwGc5NdlTMaeHp3bPVw+WfWaKdtzhfFHwHh0rXJbI3GAh7/QZryJcQUKkrXIrcKOetjlvEXwnvdHYNCrMrcjaM/yrop5xTtZM8upwrNSskdR8F/gRc+O9TaKcsiIe61pPPMPS1bPRwXDc4vY9l134SaN8LNAM8qK52YBI5rza/E9CpJxTPvspyR0optHmkrpeTO6jAJ4FeTWrxxbuj7uhRUI2IblRFkL07VthKHs5mOKainEo3KB1IHWvvsvn7qR8bmEeaRnToVJOOK9ZyaZ8zKnaq2Zl0pa5XHrXl43EOKOCNPnxVj0L4e+EvtFiNXncBcE4PbBP+FfI4/NJU7o/QsroQoU1NmH8W/GlvbWo0mxnB6h8A18vPMZ1ZnHxDmUVR5Uzy7+2H/vfzqvb1T85+vDYbDbJuBXj/Z5r5Thrw7jUUZ+zVzrxWbtSauWHh8uMnqx6cV+h1+EYYajy8up5sczk3udT8KPirqfw31xL6CZ2j3Auq9T+dfkvFnCMqzmuU+uyfOoxgouR7V41/bSk8XeGE0WG0uI5AMAtgivx+nwPiKWKb5D9Awub0XDWR5PpEU2rXj3lxlmmlJ/Wv0jJeFakKSc46HrYXGKrPmT0PbPhxd6B8MtNOsC4XzGw8gY57V4HE/BVLEO6gejiMTTVPc4T44ftD678Qf8AiWaVcS28KMQ20feH418NgPD2SxvOqeh85i8bCMG7nlMM5ikLux5PJPU1/SXBvC88NTiuQ+GzHOKcZP3iC/vjI5AbjtX7VgMH9WilNaHweY5lGrVdmVn2Tru3Y2jrjvXZmMKXsLxPNw8vaSuz6D/Y41Vo7qW2muN428RnsMV+LcUZrUw3Mk9j9S4fpc2Hi2VvjtqWo6X43a7jtz9mc4OPXAr8uw3EdSeJtzH3scHSdPY5+fxZFeW0cAsyGJABr7Shm8/ZJtmLy2lPRLU9Z+EV7p3h60N1CuXdclhxk18nn3E86MXaR10Mm5deUyP2hfGNxr2lpBBIRgjIrwMr4mniJq8tT0vqEqcNEeZaPl8GQ9R1r9myDEyrwTZi1KLsW9UgVYQ4r7iny6LqebjFK7bMkuGLYNfTZbdNXPlMXKLZTnjJB4r6RRUoXR4VWHvOxQaxLXCyMOQea8PMaTlHQ5MNQnHEc0tjqbr4o23hrw02l20YMjxlTweK/Pc2ozc5WWp7+LzXD0VaMjx/WdWn1S4aeSQncxPJ968nL8ur1Kt2j8/zXM1Xe5SwfQ19N/Zk+x899Zfc0IZiHIJ6E19JwrTSoRZWPquNaSJTJ5ny5r6PHUVUnY4Kdd8wsVsXkHGK+ezDh6nirtnr4XFSpyRqWdoqkfODXy8uC6fPex9dg8zdlqdNoeprZRbAPoa9KGS0MLR5LbH1eX5u4pIu6nq89/GY2unK4+7ur5/H5PRrtpI96pmSnDc5/Uzb2sJY4BPrWOD4Wp6SSPls1zSFNNXOdmvfMckGvusty2OGifnGMzCNaoypdXLBuD16V7FXRJHiVp3lcktSzREDqajFU3LCs6sHN3PSv2fvGi+FfEq73x5xC1+A8YYac600j9Y4brRVCKPa/j1pWjaj4NTVoAplIDHAr8qwOXyjirtH6nhoqdNHjWn2m6QDHQjFfoVLCJ4VGtOmvanpvhWAQ2AmdyCU+6DX5lxThpJOx7kKceU53x/fhEIA3ZPKntXzuQ4aftIuwqyiqdjmNOc534wK/oXhvmhSR4U3HmLF/cho9gbPFfoeGvNpnj46a1Mxepx36V9dgIaI+RxCvK5HJCTz717EZtS5TzqkFzCJbeZG529uDTq0faRM1Gxx3jBJIrj72Qa+Xx2WxnUPj86xMqVZxOWlk2uRnvV4PLI03ex8PicW3IPO9/1r1/qkTl+tSLyjbKQw5zXj8PzdKhG57+PSdZ3JY2AfGa+ilVbqKT2OKnBORY8wI2VNXKs3P3djsski3p96pfazHij2sbandg66T1ZtWWyZQySfpSnhaeIhzLc+mwlZXumSahdizh3M+OOtedLLaVN3kduKzH2VPc5XXtbEgYJKTWfJCDtDY+HzTNVVTSkY9peO8hUt1rrhJHy9GtOVS7LEh3OADk0pqTR2SmpPQuWRATaetdNRxlh+Xqd+Eunqaej3D2d5HOmQyPnOa/N8/wArjUjJtan3GSYv2dRK57Fb+I7/AMUeHY7SW8PlCPoc9q/Kp5bKlXbSP2fK8Tz0lqc4Q9ncGPOcNwRXoRjKNPlPQjUarHXaPrU/2PbG2QFr4/PsDKunZHswrPlOb8V6rJdyfZ36g85rzMmyqcWvdOLF4iyZSsiyJgHPHWv2bJsDONNaHgTxD5h8jFhk9K+ywtCSsefiavMmRqijkCvrcDB8qPEqbjpY1x9a9SMEndnHVhZ3GqhSN8+lOpVglZCVGTjzdDg/HEo+1Yznk4rwa1b97Y/OOIWvrUrHJy/fzWsZytofB1tWNp+1qGFkbF2giumJ6ZrwsrqpUoo+0zOly4iQiEGTINfSRfNE8qDtIdO+wAZ69KOfl0NJ1FYn0xZHfKiqimzpwicmbVpffYV+YjIrWNV09GfQ0a0aMNTJ8T+IxOpCvz6VlWre0VkeFmuZrlaTORu9TkkcqzVwpW0Ph8TjZSmwsbpmkGK6IkYeu5M2LYtIQ3etj3qHvpMv2qEdR9aV9T2KEdC7E21xtPOa8zMcJ7em2j1sHVdKsjs/CHiGexj8ofMGXGD2r4HFZSlUd0frOS5heCRruFuG858BjXi4jAuE2faYeaqe8aGj3cVnuM8uARwMV4+Jy2VZbHqqrGMDI1yWO6v2liOQSMfkK7sryNpLQ8LHYpKbSHWiL5YB61+l5flvJBXPG9tzSFmTGVr040OSVjOq1qR4IOMV7WFXKjzau4Sfwg+tdU6nKYVFzQQ+aFzZPIo6LzzXn1auptV/d4W55j4uuhLfsobp1ryKj5q7Z+Q57V5sTIwZFJavRj8J8hUV5ajdjelST7M2tXXbcMT0zxXy2VOfsY3Pus5io4iVyOCNzyF4A5r7Ggm4nzns5yd0iC8dmm2joKiopKoYzb5rG14e2JEzygcDgmuyk0lqezgFbco+ItW2OYo2xg8muHFVVzWRzZjjHCo4pnOXV68jHc2Qe9c9JyvqfLYrE871ZRlBaQso4NbtXldHjVI88rosacg3jdWidjswkVzanQaeqkAZrRNWPpsNblSRowxg8joauzZ7dGKS1J02ebtzzWVV2VmdlJxdRWOr8L6ZLKhnkGFBAJz3rwMXSg22fomR056Nm4GRG8oPkivmsRCDqOPU+6oznHRBIrjJJx6UqWC195GtWrUUSnNu34717mDwaVrI8HFVm5tE1u5QDd2r6elScIHLCpZ6kjyI53A/pT9k3K5tKrBobgltwHFdVOMonLPV6DZAWlAArKu+WTCEed2Q7VpJYdKfYOSMda8urVReZrkwljybxAWa9fPXNcsLzndH4nm7f1iVyhsYtyK9aKdjwHqx3lf7P61nyzL5DW19v9NZMYIbGK+Ryaqp04o+z4hXLiJIfbRFYCxHavvqFP3EzxaP8Ix72YrcnB7151ecvankVZ8tS6Jv7ZNvDtjkzxzxVxqMpY+VNaGVqF9NcSFyawnFud2eXicVKrNyZSldm6VpCB41eUpCLnYM9a1tYI35ET2bEP0+lB1Yd2kbuluMAE81a2Po8Hua1v8A6ta6YHvw2HqVFxk+oqMRGPs7s0oStWO78OXqpoTx7ed45x7V8rjqnK3Y/Uckl7qJ4JC0m49zXhQTq1mz66nUSLM0h24AFe7Tw75Qr1vdKM75l6816uEpcqSPn8RO9Vjlc4GDXtqPuGHPcen3RSUDRO6JFBAwa6YRGIvM/wBK87F6SZrh1+8uJ4gmhj0dsvzuzjFeLW2M86qctA8m1pw147Z71OHPxPNpKWJkyov3hXsrY8Nbj6g3L/iCQHVWJPJevzfhzERly6n2vE8bYySLUALWx2+lfr1Hllh1Y8CkrUWYGoRyLcsSvf1rzKtNOo7nz+IU/aMiZA3BPNCjFGFlIhmtjngcVEoXlcwqUWQm2HUirikjmlRENt6Lx2punJ6oylSlfQdDbyCQELxUOLRtRpTT2NfTThgDVXSPfwjUdzXgY7QPTrW0JWZ7tOSktCKW42XIBPeuTF1JbIUZqFbU9B8LQNNoDOFz84zXz2KpubP1TIlKdNSWxaiG2Qr6H+tcNClatY+n5uWWpYkyVr63DYe8NjKtUvsVXiG4sR3rqhRlGpseRU5nK4BTjgV6KjeJn7xJEVHB60uRo2g0lYkraFktTRa7CxpmT5etebi1eo7HThovnMnxvcGCxKA44rw8TFw3PJ4iqclFnmeotvmbFRhk3Y/GswlzVWyFTg5NexstTyU1cdvX1rPmib3Rc1z59SL/AO3X5dw3TtCMj7XieV8XJmnpdpJcQ7VQnI4wK/YMJNOkkeVg6LrUylqujSqxPlkc9azqxfNc4sXl8027FAWLj5SnP0rPlPJWEmpajZLFjxtJp8jHLDyIWsiD8wo5Dmlh5IHtQqDcD+VTKbhoZvDSSuVmHly4zx9KwlUZjKLplm0kZG4NEW2dmHm2jWtZSy9a6InuUJ6Fe8kIuh2+auPEu0rEVJNVkem+CZmfw84U5wQT9K8avLU/YeG5/wCyonhYeYSe5rkoO9Y+ibuWiQ3ANfZYX4DnkRuq7Mmur7RxSGgYXI6VvDYzsIpAk5q7gnqSgg8ig6IbElmAZvm6d68+t/FZ2Yb4jF+JHlfZiIjnj+leJjtj5/ib+EzzG6yJWJ9aywV7H47jfjZFuUd69aWx5S+IN6+tcpsWdSuUlm3K+Tu5r4Hh2lL6rCR9Vn+JhUxErM6LwLrVraXCidiy9MV+jYSvCCtI1yStR+GTN7U7ey1Bi0IGDXV7ajUdkz6ipg6VanoUW8JK8YeMA59wK2VNNHj1Mps9EVZ/C00THdFx7EUey8jlnlM76IrS+GnLZEdJ00c8soqX2JY/Bsk0JkICjHFTKiS8ply2tqYGuaI1lkFcle9YTpxR8/j8BUoq7Rn2ytu6VlyvoeZSUjUtCEBDcVvGMj16T5VqVL6QteBV7nivNxqlzsxlVjPE8q3PTvAUiroEiyHDMvANeJXTufsfDbaw6TLcSNv6Vhh3atqfU2ajqWQ6q3Jr7TCO8DmnJIbIQVwDXXZ8xyS1egkcbsAMVpGajuEYTY9rYqu7HNV7SI3RqLWwiggYNPniVBpEtvlSWrz684+0djsoStI5vx/cL5BDHt/SvFxt7HzXEtWPs9Tzu7YM7Mp4JqcGnyXPyHGyTm7Fc8nNeo9VoeUmuYXY3pWPs5m3MgYMTkjrXgZLg4wwUEdGMxEqtVyZZspntmDgc17FWm4xLweJdKVzXs/EUsYGX/Cs6DlGV2fS0s6lHS5q2niORwDv4r1PrDUT06OZOpqzZ0++iuoVLuCTRHFpn0WElSq0k2W5bRdgKKOnSreKR2LCxlsTWelz3CFUbt0FV9ai0aQyvnV7GF4m8Py7WjI+Y+1ZyqwkfNZ1k03F2Rx1/pF7ZHCxkYPpXPOpyy0PgcRltai3ZECtdrnzEOfpWsajOPlrJ2JdN0q8v75cKTzwMVx4h8zbOzA4GpVxHO0eg6NBdaZZLBKhBNeNX3P13JqcqVNXNSHdwzDtWeGp3q3PqL3hclKknIFfYYZWgcNXcaQQcHvWtSpymcFdlq2RcCuKeJ5T06NFyQ6Zc5C1EcWmzSrRaiQbSG2niuqnXTR56p2kT28YzluhrKr8TZ2Qgox5mch8RZrcs6RuDwP5V5GKlzaHw3EtSDg0cDN0NbYVctJI/KsV8TIK74nmr4iSqKHeWWIBFeTl9OrGlFWO+rGDk7A/y8A/rXtOC5dTml7r0HROw5JrnVKHPcunLqy3DeRxqAf505wTWh6FLFRgty/Ya8tsRiXCg+lebVcqT1PbwebOFlc7Pwa1/wCJpVs7GB5mI4CisHiEo3b0P0HJ8THFJWOmvdA8QeDmSXWNMkgWT7hkHB/KvOqZlTjLR6H2lHDSpQUmtCAy6frNx5lwAoPU7eK3o5jGpsya9DDYmNrFa88HaLdRnLEntt6V7VCtSnBXep4WN4fpzpXSOd1DwWkVy0ccZ2jGM/Su+Ps7bnyE+HZ8/wAIWOkrpcglCDOehFefinGLbOrC5XChOzRsJN9uwZFwe2BXiVZKbsj6zCUqShYnWIou0duldmCg9DpnUhD3SQHJwK+no0p8mxw1JqWw10YsMDpXPiIzjcuimyzb4QfOO1fO4qvybn0GEiuolwzBt69DXHTxcebc1xFJ79BIFMkmSK9rDV4tHnxouUrIbqs5s4id2MCu6pOLpXRzY6ToQdzzXxffzTTtnOM14zU5VD8l4gxcpzaRz8rqVxnmvQpQlGB8POfMtdyKupOxyqLuP3r607ovlZMn3hXPl/8ABidtRWlYZJ2r0amxyvcFYAYJrmWwRa5RGIJyKYPcSWUxQjHc1y4+l/s/MXTqOEkfQv7AA0nV/iC1lqhBOV2humK/Ms/zl4HDvU/SOGsU00foH8Yf2RfCHxE8DQyR6dH5qR7opMHk49q/IsTxs6cm3I/RcPm96vspbI+HPiT+zF8QvhtfXN1cadG9rHK2xo92cfQ8V72Q8YUsVUs5n0lKOGnHmi9Tgnv7qKUwAMmDjDIRX6lgM1hVatI5cRVXM4oet00iDzSpJ74r7GjiYumm2eb7G7uytcLbNNhyPqKp1aVXRs5506anqTxQW8eCB+lbU8DSm7m0K1KGhL+5ZuBXZSwkYT0CdehLUMRA9APxr1o8tNHLKVNvQcJrbb8rKT3rysZiYXaOqhUgktCNr+JTgke3NfIY6rFtnrUcTTihsswdhk8H0Nc+H9la7JrV5VJtLYsR3EcAJ/XFe/hqtBdTJN0dWY/iXV4GiZRIM967XWpy0R8xnOYRfMjgdelinZnB5J6VVOhFu5+S5rWU6jMKVcudvIrSUeV2Pm5asbsb0pCDY3pQBYOFO7tWWBaVKJ24hpTZG5B6V6FRqxwucWxK51sC2CmMmEEc0HJ5xRjJReDsdFGlznVfAjxzf/D/AOIun31q5CveRxyAHGQTX8++IEakMNNo+zyKcKdTlZ+1X7M3jG1+KPge2ueqpGoIzkYr+HeM+JsTltapFOyR9TmFWNH34vU6/wAefBbwt4n06SzuNOim8zPyugr4fh7xWnQxfLKocuA4gr06lpvQ8L8df8E+fC2sRSNZaWkBbP8Aq4VOK/prhbxRpVKUJSqn0lHiDB1Kl5M8A+J//BNzxHpDNceHtVkRQTlGgBAr9rwfiPh6tFctQ+ho5ngKsPdkeVal+xP8VLMu1raS3GOgWHGf1r6PKuL6NeSvPU7lQwdWiqjlucT4x+EXjzwBCZ/Eui3Fsi9TInGK/SsvzyjWSSndnn18Jh0nJS0MLRdN1LxLeCw0m3kmc5xHChY/pX0tLGwUbydjz6OFWIn7j0O6039m74pXlmLqLwndlSM/NFg/rWGMzOjSp8zme9QyuhCN5yD/AIZn+KTMSfCdzx6qP8a+KxPEODlUdqh208uwbV1IZD+zJ8SLhisugTp9V/8Ar14GKzzBreZvHLcP3Nnwx+yJ491e48mWKSMDsY+lePLibCRqOKmOOEoUqmr0MT48fA7V/hDoK397cFi3ByMc114fiejUlyQnqefnNJKhzU9j5+v9WkuJWDsc555r7TKcXWxVrbn41m2LbnJNmTdys7lV6V9tSjUhFJo+CxVTmmVGUr94U5JqWpwXQ0MCcA1IxaAJ5EOzgVjg/gR3YmN2yAgg4Nd1TY81Q94UJkZzWMPhN+Ri+X71QcjJrVT93PHrUVIOcbHXhfdkSRBbK+hvlPMc6OAPUE1+ecZ5EsTg27HsZdW5cUj9bP8Agkb46h8UfDeOGWXc5Gwqx6MpIPX6V/nP4vZDLD4mtZH1GYVXOLPta48POZRNHNhTzt9K/hzHY/EZdmMkj5d13CdyW4tYbW2/fygDHpX0eV+IGYYdqMZOyBV6kp3Ri3sHh+7UrNsY981+mZd4s5hRpq8j1sPia6+F2ItD8D+F9Uuzs01Dxy1fpnCHjRWeLUKkysTm+Y0UlzaHyn/wVv8ABui+EfgBqGpW8SxuNpjfA7HJ96/qLIfE+NdRcJH0+SZ5Krhn7Znxz/wSo0u0+Ifx3R7tEkgig3FGz3bAr9UfG9b+y1Wctz0auPdHCurSeh+stz8INDtdO2xaWhYjtX5NxX4wVcJh5R5z5KHE2KniLOTOY1j4XafHxHpOc8ZFfja8aak5W5/xPdo8QVor4inF8HLaZC39lAe5qK3i9OpH4zq/1lqp6yG2vwr02ykctYpgD1rxKPi5N4xx5hzz/EVWlzHxF/wVhksdB8FwWtjEqsJ8Nz6iv1zg3jSeZYqOp61fG16mB1Z+eVtcvLIWY5z3r+wuDarrU4y7n5TmVRupK4r53HNfqT3R8xUjzSIZweRis63xnPKHUgrIzckhd7etAudF6VGCkEVOGhKMFc9StOEtiIRqeorqnqtDiUdR6RqFGKyimlY6VFNC7B6mmPkQsahXz2raDhomKPuyH3e1bff75rzeI6SngHY6MNKUK/M9j7T/AOCSnxtk0TxZa+C47tcvcM3l7sfKSefzNfwh4vZLUq+2quOjPtacoYmipR1P1wW8vLrS4ri1BP7tcgfSv82eMsrjTx8pWPmsXCMJOJmaqPEN5bmMQfjiviaX1eEtzgVWpSfKUdE8C6tq14DcrtweTtrvniIqFoHTHHTjueleCfAVnZv++kGQOmKwy7G4ijj7wZwZjmlSUEoo+Mf+C8Oh29p+zLfTREqEjzkelf1n4VZjisXi6aqPqicvzSSp8rdj4b/4IL21xq/xtneWEmHykRG9TuzX9GcTZvVwmXujT6H1MM0n/Z0YdD9vLnRLWKMGRBjGcGv4t8ROJ8bByimz4/65NSutyL/hG9CnRWnXk9MCv5/fEuaxqXvoX/aOJgx03hjRVsGKIeAfSvQp8W46StcFmOJ57s4DxDZWlpJcOq/IIz8xGecV9JkeZ1sTXUpPVn0GBzKdVRXU/JL/AIK3+NX1G8g0aIlj9swQOPYfyNf2Z4Q0qtbEwufZyxtZ4PlR8W6VC4iDODz61/o1wXhp0sNB20PiMW5tvmLLqQ5c9K/Tqie55D+IhnYZPNc82pSujKo4pWKcu/PyDvUnn1E29Bm6X/JoMeWZrsGaPdiqw8uekme1UptTZFsb0rYjkY5QQMGoe5pFWVhwUnkCkMQgg4NPazIe4XWWgwPSss1j7TBtG8D2L/gn5qY0H4/aVOpCmQ4JJ9DX8p+KOWOrgalkfa5OovCJH70fB26ttV8K291MAymFecHFf5keIuWPD15to+VzqbpYjQ6W7uNJhXYI89uBX4BKSVZnkKs3q2Vo7oxvm0hcZPat5V+WI3VTOg8KPcy3J81Tj3NRl9Xmxtzhxc04nxf/AMF8IFH7K2pEdfsxNf1t4RS/2+n6oxwS5mfIX/BvP4chk8UR6myjc7sckejsP6V+98YSftJpdl+R7tSq4YRR8j9e/inrcOhEIBgmPqBX8b8f4dVK0jw8MpVEjn9B8Xw3rR7yMYHU1+H18DJSaR3OhNs0/Evi/S7PTisU67iOgNRRy+opbC+rzPOdf8RpNpdzKG42Ng49q++4YwTli1E9jK6EudM/Gb/gpT4gbVvie1n5mQl0rEeg5/xr+/PBrKpKrB2PsqspQonz5a2xS0UsOQuD9a/0N4dwvssBT0PmMU+ZNkbsp+XPOa+sk/cPIfxlafg4965LWOep8TK9ByvcZsb0oMjXH+qC96wy6op4WJ9DWh+8ZGQR1Fd703MbIACegrO6eordh6jAwaA5WNYfNVtNwViHF3HIA67Se1LEJVKDitzWCdzqvgR4oTwV8WtH1zfsEExznoeK/C/EHL5Twc421sfRZXiVT91n71fsVfEO08c/CqxnWQHdbrnH41/mT4vZfKlOaSPOzyjKUufoeqatpclufNVCRkmv4+r3p4qVN7ny0k90QaP4o02K8+xylMnjnilWw9dwukZ8x1mhXFkJTJBMp3dMVGX81HErn6mNZNo+Jv8Agu85n/Zb1RH7WLEfnX9eeEilTx9Lm6tHVl8W5Hyh/wAG+9/DY3VuZGAxI4z7+Y1f0LxYqcOZy7HsVaTlSsux+pHxg1m3vrxYWnX/AFfOTX8icd05TqylFaEZdg7RV0efeJddt/DGli6tbgFmXqGr8rwmGVaWu57/ANWgzgF+IepaxqQjSd3Qt617by2nTp3a1NVl7lsje8Uawtn4Plm37SYW6j2Ne1wphrZim+562BwPJJXR+MP7aWpXGq/HjUPtEhKKwwM/Sv8ARXwdwK9yVux25jCEKWp578htzsPGT/M1/deV0ksBBo+LxEou6RRZGEhYjjNdMk0eW0+a5FKqkEk1jK19DnqJ8xWdfmO0cUjmkmJsb0oMuVmkoOwEjtXBlP8AusT6Sr8TEcE9BXr1PhOR7CqCBg1jD4QWwtUaLYYxIbIqlO2hm/iJLdQTzVKN2aQ3Fkt2WVZEcq45Ug9D/kV8Nxhl8a2Fm32PWy9RdVH7N/8ABLrxRqT/AAc0uZSSDZREKW9BX+Y3jfljpVp2R6uaYeMqJ9gaX8R9FnuvsWrHAYbcV/DGbYKUcTKpHc/P8TTcG0iS/wDBOlX5OraUQE+8AeTXj0sVXcuRo8+KlzGJpGrarZeI1sItxXeAAOlepSw8JVIN73NakHynhv8AwWn8NjWv2VL0TR/M9sU/Gv6h8P6zwuNoPzRrgJe8fnp/wQ08Qz6T8R7jwy5OLe8xnPbJP9a/oXi9+1w/P3R9bSpRnQTP1a+JejX2qXSXcEgC7fxr+U+NHyxkVh4xRzeseAbvxDp4jkkUbU6V+UYPEqnU5kejFx5jmIvh1NoUwkA6Htivani/aQPVw7jYpfEv7TF4RuAxIxGev0r6Lhd3xkX5nfRtzn43ftYXbS/G7U167XVSffAP9RX+jvg87UYfI5c2dqZxqOrQHHGSSB+Nf29lP/IvgfD1N2Vpf61rUOR7FeQEDB9a5TnnuVyQOpoOaQb19aDE0ukYrhypWwsT6OsmmxK9WfwnG3fQKxi1yglZCFgDgmqui01YaxBORUJSctDNyXMS25ArtpabmkGri3rvExkPQKCPoM5r5bimfLhpX2PQwcnTq8z2P1l/4JGeN7K5+H2maJPMpZbGMYJ9q/zm8bcHKvKcoo+gxs3Vw94n1/490C3886lZ3ccTZ3Bc+1fwZmFJwzCcJbHyNXDupG9jkH+Pmo+GrxNGjvTIuQp2tUf2BGdPngcTwvK9Ueo/Dfxzol8iXd3CrTsRgsOetfPzw1ajjoK2lzHEU/dsjyH/AIK9XovP2bZkjj+RoyT+Vf0hwhpiaPyOLCxdOWp+an/BE/Rpb/4/6q8Stg6htGPUV/SHEUXPLopfyo+wo1OTAqb2P2E8WW/9mKPMTIZQefSv5K45vFSj1OalXc9Uc5c6q9tHtjcAEcDFfjdPmijeNaVyCyjj1OYrMoJrtp1rbnpUcVyrVnEftEaeNN8FXMsSY+Q/yr7zhOpCWKg0+p7mAxEZ7s/EX9pG5a6+OGtBjki4X/0Wtf6Q+Dnv0qdgzaSdPQ5uJWEALDqK/t/Kk1l8Ez4iq0myGbg5NbVIs5JNJFeYjrXK00znnJXKznnFI5ZNXG0Gd0aYceSMnmuLK/8Ad4n0eIluR+Yc8GvVqbHnKXvCea/rXMti3PUaZTnlqYuYeh3LnNNSsyG7slgYBsE10RkbwJb4K8PPcEZ+orxeIKEa+CZ6FF7I+2v+CTPjHVP+Ew/sxLh9kUcaBQenYfqDX8Q+LmR89Cbsfa0MNGpg9T9MvEth4i1/RNunLltvAzzX8AcS5RDD4yc2eRKGHpe6zl/CnwC1W81I6jr6BRnIBHNfKYjHuFHljocNV4Y7LTPD0Gk67FZ20rACRcLntxXz3POrODfVng46EbuUdjF/4KoaXC37LVxO0XypAcn/AIDX71wpzRxNE8LDv2lSS8z87v8AghHpr3Px71Z1j+T+1W2nH+zX9I53UtgYr+6j6StPky2K9T9YfjAi2jbXIB8rj8q/k7jvWrI5Mtlz0zzu8uBPGnlNnAFfkGz1PSjAk0meWO6AUdetDOmMTnP2mvn+HtwV+95TZ/Kvs+FJtYqC8z2cvTTPwy/aEf8A4vhrRJ/5br/6Atf6UeC1RqlS9P1Z15l/DMVDm2U+1f3VlbvgIHxNf42V5+hrqmcc9yrKw24zXFU+I5p7ldiCcioOeQlBiXy6+XjPNceVK+Gie9XqKWxGSB1NerUTscCbUrjWY54NcyTsNyTY0sM8mnZk80RyyMBgHispX5rFqcSeCRSRk1tGR0QnEs3IJgBHrXDmcm8O0ehRaklY+yv+CP8ADDJ8Ub1ZnHyiAgH/AHmr+W/FSlD6nJs+7w/tFgj9TNU8c2vg/TEuLiP5AByBX+cnHnM8VUUDwK1D2knJmTqX7SujGzeKyibcy4Bwc9PpX5SsvxU9JI854LmfunO+B/iNqviDxzCzxPtdwACK6o5aqfIlq0zlxeGqRpWsdF/wVO1i2P7Jd4BIoJg5zxyF5r9r4Ww3tMTS5eh85gMPU+sS06nwl/wQIsYp/idfagYwfM1GVgfUZIz+lfuefxnGhfpZfketmbccJyn6cftEIIpxJv2gIA3twK/lXjZ81eSOfJbuhc86tZrEQRqbgZKjtX5ROlO97H0NODkrouW01vaSLLIQBnqaj2cjpjSkcp+0vrOn2/w1uZ5cY8o8/hX3vCWFqSrwdup6eBpTU7n4YfHy4juvjXrVzGBtNyuP++Fr/SXwYouNKlfoa5o7UzIQhbYA+lf3DlsorAxR8XW1k2QTEHIBronOJyTTZVmjc84/WuSbvI55wkQGNx1FQc8oyE2N6UGXs5FsAsMgVy5UrYaJ6lRWkI6nOMV61TY5pDCCDg1zLYErjSmTnNMlwdxyoccVlKN5DUSaFDuFbRibxiXJyFgAPrXBmUP3LPTwqUbH1r/wSfa7PxcuIrVj8624bH++1fyz4sS5cFI++pVFHAn6/wBn8Grfxr4fgt9QJKtGO/Nf5x8c1IxrzkfE47OY4ecoMv6R+xB4deVbhtxUjhSRX5THMZzurnzlTieNORv6d+zv4G8DXH25XjWSPn5yOKeCr1J4y7Zn/bdbFvRaM+X/APgsFf6k37M1/p+hAS4gcqE75Wv6E4ClCWJhzHvZRS5nzSWrPlL/AIICyjR9ZAvPllEzh8jnd5jcV+38RyjUoScdjXOMLJwdj7//AGtviCbPUY7KKUDfGSa/ljivCupiZGGT4OUcOjyzwtr91qVxFIbng44J6V+e4nCKCdke/RoTUTrNX8SW9pGsBkBYY5z7VwUcPzSsdkKM7Hk/7YXjmC2+FM+JsExnIz7V+tcF5XKdWDse1haDjRUmfjl8QZjqfxB1K7kHLzg/htFf6LeEuXOjRg2jy80d42K3Pk8+lf1zgVbCRR8fVVmyu/3jWk9zlewyX7lYvcykRAIR8xpHPINsX+RQSWBGyrwvFY5ZFrCxfQ9CtTkptDGUk5Ar0KkotHI6c2AQY5rBOxpGm7aiiLPIzRdFeyY5YlxgjmmrDVOVyaGHkGt4WN402WbqH91nHBIrjzNL6uztoxeiPsX/AII8W0LfGK7acDKrAQD/AL7V/Jni9pg5H2KhP6jofsZYeO4fD2jQkbeEAFf5meIVSp9YqJH55jsv9tVk2WtT/aWvdF0pmtrQOwTivybBOq5PmPFeRUXK8jwLxr8YPjD8SvFaW1lFJFbeYNwVgOOPevsMDSwlFKUpe8z08Ll9OFlHYzP24p9IH7P7W+vSgyJblXDHr8vPFfq3CWK5MTHkZ9HhaNSC91Hxr/wSM1eLw78T9Rt1GIxqLtGxPVSxP9a/e8ZXVTL1fe36Ht1ML9YwaTXvH1f+1v4uS412G5STcPKIIB9+K/C+IcO54h3R3ZVl3LQUWjhfB/jVVaCFmKnaM818LjcDOUXyo9VZZNdDs9a1VZ7UXCuTgZzmvBwtFxrcsi1g1HdHg/7XHiQ3Xw8uIWkOPKbvX9AeH+CU5U0kegsP/syUUfmb4gjB8TXUrDgyDB/AV/oN4cUadGjBPc+NzSnOEnzEUpUKVBr+i8MrYdHyFeScnYrOQG5pz3OOTSQyQgrx3rJp3M27ld9wODxSszlm2mNyfU0WZPMzVmRUGFPHatcLT9nhlE9mu1KbZEVHcUSVmZJaDG+9WT3E9GKrADBNIaasPj5IIq1sXHcsRKRjIrogtjeCJ7ojyFH41wZpK1Bo6KXxo+y/+CP9jv8AijdXinqkQP4MxP6EV/KPi4ubBzPtqf8AuXyP1I1q8tbfTc3H8CjJLe1f5r8eYfmxFRnzf1b2s2zm774g+FbVVhvFRieCD3r8zweBcr6HdSyeNToUdR+M3gvw1pzXNqkSMAcbVPH6V7eDy33rpanTDI+WXkeC/tOeLtY+LHhae2R/3BjJA9eK+54dqPD4tI9ahlUIo+YP2P8AxBL4M+KtxptjKEkjuvmC/nX73CrOthI+aO+GXO2iPb/jv8XXk1gJfMWBXGSDXxmbZc6juezgsud9jA0zxRNNHBd20xVVAJxXxtbBayjY9uWWvl2PRtA8em/0ny5JwWCHrXzf9lNYvRHBVy59j59/bH8WXkXhW5RJSF8k9K/fPDzBuFeCM6mHdGgfCskzz3DSyklmOTX93cC0XGMT85zua5mOl71+/wBBWoo+Iq6SK03X8ame5yVBp+6KghfCiGUEtwKDnmncbsb0oIszRmcngV11bR0R6TqKQzcB1rllJDU42GsQTkVDVyXON9xpYA4JpWYc8O4+KQDGaaaLhJXLMUmenbrXTC7tY6ITQ66lPlAZ/h/rXkZu+Wk7nVSfvJn21/wRyL3HxCuo0XIGOa/lnxWqweCkfawklgfkfpt4z8Ealrum7LZmXOMbT1r/ADu43hD202eFSxlGLs2crd/sx6rq0Avrp512Lk4Ir4HL6tFpps7KeeYGnLl5tTzL4gfCW9tNUTw9FI7K/wB5m6ivSp4mjRq3TPqMLiKeIoqcXoW/iR4I0zwj8MpZDCpJtioJHfFe5lCUsSp3NaOLjUquC6HwP8E7W98OfGvWNbusrGbwFM9ANor+g8slSr4KlFbqP6s+rwOG5qK5lqd78ZfFum3+q+Y86HIG3nqcCufNsDV9neKPo8Hg+XdFbQ/FE6aVm2QsNoGM9K+H+oVHWbaPaWGUo6I6PwZ4kuroFHcjAP8AF1rgeCSxOxx1sC1rY8u/a08VR3HhufT1xny8DPc4zX7FwNh/Z4mN0fPZtQcKLsfIgUrKciv7c4IotwjJI/E86b9q7kkpByRX7ZT/AISPkqvxFeUEnis57nJUGlTtHFQSk+UicENyKDGSYlBNmTGZmOQa6avxF0neFxrtJjcP51ySNBvmv601sQ9xCzE5zTJdxyM+P/r1m9zaDsi1bPg4biuyib05WJNSKral0PQAD868rOoXoNm0arjOx9+/8EW9Ksm8bz3G8FnjXj3xX8leK75cLI+vdd/Ufkfqpq0g06yEqICFxxX+cvH2M5K1RHydJ883cxvEvxrsfD2jvb7fnZMBcH/Cvy/LsXVlJ8qM6eEpTxS5jyR9R1fxjrp1oWpKbT/D0NepLEOMtdz9BwOJpUaXsih8RdB1DxVoL6TeQsqqPzGK+oyXHLmR6OBqUfrOh8V/Fvwba+AvELC2TaJJDubHNfvvCeNjVpQifpuXxjO1jxr4rJNezJc21w2Q4wobtX63LKfreH0R9bToxhC53Pws1rRxopt7lgzGPHzA9a+Ox2Q1KFSVkXCavY6HSiltcs8DbVIJxXwVXDThjLGlZcyPIv2mfs1xpkku/Jxk/lX7NwXgZSlCVj5HPHy0Wj5t2IJDjpX9o8F0PZ4aJ+CZzJe2Yku3naeK/Vqf8M+VqtORA4IJJ6VnPc5Z7iAg8ioBbEU33qDKfxDKCSZ4nQ/drqrRakXGDgrCMQU2jrXJJMG0kR7G9KFsS3dhsb0piHJ/d71FncFe5Pbq+eR9K7KdkdEUyW/INuVz25475rz83lF4Zo6acU2rn2x/wRn8SXNp8T7qzdyFQJj6HgfqDX8h+LcJvCzaPsYUnPA6H6yeIfE1suixq4BLAc+tf5q+INOft6jPmfYSpTbZhf8ACC2Xje6iknRQgwSD3r8owVadKTjc891JRr8x3mneDPCvhvRBGLSIMRjgV6U5NK43i8VXxL5NjnfFfhawvbKSWxiUhkI4FeplWLUJ6s9zL8dWpV1zs+Cf22vBx0u6e6WPDBjg8dcV+48F49+1gr6H7hkGLVWEXc+O7zXvtyusjblSVkBx3HUV/YPDUY4rCx6n6E6jdFWF8N63dmfy7ecqM8AHtXZnOVQhSk2jChN31PSNM8V/Z7RVkl+bYc1+IYzLJLHOSjoek5R5TxX49+KLy/1E2SNlDH8wr9k4LwMvZ02kfFcRzSpyseSlTvbA7V/WfC2HcMPG6P5/zifNWdiNsgHI71+gQVoHzk/iI3BZcCsp7mUoyb0GBGUcioFytIilBLcCgxn8Q3Y3pQSXpkLZYdK769uZnY431KzRkHArjnuYSiJsb0qCeRhsb0oDkY6NBn5qC4xLEQG/jpXRA6IR1HXKBrcn3rys1/hM6YQ1R9d/8EkJmtvivdOvAKRfozE/zFfyl4s/7nM+4wsf9jP1oe3sb/SY2vpQoVFIJPtX+bHiEr1JnzuJjuafh/UbOFVis5VO0cFa/CnKrSm2eDUh7xZ1ae7vQYTeEZ5C+1N4uo4q+xFOo4VGkbGhaEZNIPmyFh6k11ZfjWqmpmsVJVz43/4KI+FBBo7XNvBltzEkY9K/bOCcwvWgrn69wxmL5II/MfT9WIvrmzkOB9vk/Dt/Ov7t4DcqmHiftOErRqUFctWd7/Y0wKSZBwCfSv0nMsNCph7SWp1U5U0zrtDFze4uhKShXn2r8wxWTwdZuxdWoktDzv4yrEuqDDZIj5r9G4Sy3kpQsj4PiSuvZSR5uWCswY1/SeQ0HCgj8FzKfNXZHJ3r6m1onjz+IjrCe41sNfp+NQRMif7xoOae4lBBeYjaVruqu7PQTSjZld0Oa5J7mTVxNjelQCQbG9KBNCqh3dKCoxZYjQ54FbU9zojF30Fvh5dsp9eSa83Nov2DZ0JqLR9mf8Ek9Bkk8eTXzpje6gHI6Yr+UfFn/c5n3OEcZYPQ/TnXFvpdMFrbMBjjJNf5t8eRksTUueHiKcpJtFfSZb/wyhurubgLlRuzX5HUpwxGyPClhqnNoimPijeah4jjtgwCEAHFaSyuKwt3uc8sPOE22j3fRJIY/DEcu8ZZAf0r55U/Z1bI8qUH9ZPjP/goFrv2nRbi2jmGF3AfXFfr/ANGrUxUI2P0vhyXw2Pyagkuf+EhvNx/5fZD/wCPGv8ARvw3wU50Iadj9mwtWcKCNWeG4ljyc53Z61+8VeHZ1aHM4k/Wqyqvsb3h3xXqen2/2GIbhjGTXzVbhiDm9D1aeKjKOrOQ+Jk1xc3nmzHJKcmvdybKnhpKKWiPg+KK8bySZwcwIck1+xZZCMKKufimNbdZjHO/O0V6bnHY4pRbd0N2N6VjJpsai7DZBgYPrUXRE0yF/vUXRzTTuJRdEWZeZSTkCu6Z6Djdkbo248Vyz3FyDSCDg1BLi7hQSSRiMgAnmg0gSxjHSuiB0QQ28TfCTnoMAfjXn5q/9naLteSPsD/gmF41TRPFTo7hdhUt9K/lLxWhzYWZ+g5bQ5sIfovrXxFWDRzexyA5AIwD07V/nfxxgpVa8wnl/NHRHKTfF19X3W0r+x61+bU8ldPVHJDKpTlsVtN8VWFnrKXM0oB46nvWk8DVnT5UjLE5NKzdj3PR/jHpd34cjt4bxSQgUjnrivjsRldaOK2PFeSy9pzWPjP9vbx19n0e8bzMt5bMoz1OK/Z/DjAS+uwuup9Pk+Clh7H5vaNq7XepSXMiY3SsT37mv9KPDHCQVOFz7n63UhSsdQ+owvGI1644OK/p6GEp1MMkcizGalZjrSVYsndhgORXlVcljfY9Gjj0c94zuDcMxZs46flXFHL/AGVY+W4gxCnKTOOnBYkD1r6fCaRsflmKfNUZGQQcGupqzOcKQEUxGcVD3Mp9iF/vGkc0hKCTRKEHgV3XUlc9NJx0Y1kGeawnuOyI5UIOQOKgxluMoM2ncdGMHcaC4pkySIM5NbRlFHRB2Qs3zxYXuRivPzOSdBs3px5pKx7z+w3r0ej+Omjd9odOea/mHxNpyqYSVj9MydweGUep94az8Sorfw2sKtuJQDrX8I8V5fUdWUmtD6ClhHKmlY4s+Nbu2ke5tySBg4J6cV8ZRwKlFq2p10svcXeSOU8V/GK/+2AwzkNkdGr1cJk8HG8kXWwCmrpHd/Bz4k61q4Cy3Tkbxkbq8PMcnorEKyPMeVT5vhOZ/am8Nz+OJF0+d22uuAueufevteDMD9WxsZNWR1UMCou1jyTVf2a/hz4X8DteNbqtxsJdyQecmv7t8PsXCEIWZ66wMXHVHk8HwqudYM82kSq8UR+U5OTX9J4DGwlQi29DwcXlzdZ8iOY1my1DQLk2d3EVYd8cGvSljsO1ZM82tTxGH3Rz/iCVZ4i6tnNDpKtT54nzOaVnKL1ObkUhjkVVGEoS1Ph6t5VGRSFVcjNdMmm9DKVlIbvX1qSboilILkioe5lL4hhjdjkCkZSjJvQTypP7v60E+zkarx4Py13tKKsew0myNkOeTXPPcXKRyKSNtQYTj7w0RLjkUEcgvlrQWlZCFDngUDAllAFY4ynz4cdOq6dQ6j4W+NLrwZ4gTUbbPzYViD05r8K48yiVbDSsj9B4exMZysz7c8AeIpPG/hy3Bu84iU5z3PNfw7x1ldXDzmkj9OwlOM0rGh4g1G30PS5IJly7qQpznP5V+Z5dh5VKjuj3o4ROJ4f4u1DUra5N9EWIL5256V95l+Ag6VmhrBpI9R/Zl8eCRZfty42tkEmvCzTLYQr7GM8IjO/aq+Oknhsx3Wjy7pScAYJAr1Mly2pPEJx0RyPDONQ8IHxV+NnxHs30+KzmeFuQsUJ6V/RXCuMr4KmtbG8oSUR/hDxJ4u+HWuQDxTZXNvaSNiQzRELyfpX6vheNnQpKm5HCqDlUueh+P9C8I/ELwq+vabFHujTKSIR8xxX1uU8TRxbWpw5jgnKLdj5m8QTNa3b2mcBXIAr9Ky/MoyoqNz8iz1ToYiUOxkvKjjIP6V70HzRufHqd6mpBMcvkUCqfGNoIGP8AeNQ9yHuOT7opFLYWgZohMjOa7r3iemo6jXj+Y81hPcHHUikGGxUGUtxtBIUEPcKBD/LVkDEVpJc1OxU4LkuETGCTch7Zr4fivC054R3PayPESp1dD6U/ZU+I2pXcRsZ1LCMqAc+1fxp4jZZh3SnKx+1ZRVlKjFs9X8XXMl9D9oZiAc/LX894OhCFZpH2dCV4njPjvxudJu105rPflsE/Xmv1jh7K6OIw6mzdvQ6r4b639nsjLaxFDIpzg+5rnzrJMMqpzzdhb/w1Z+NdZW31QlsOD83Nebg4xwtbkitiIxTlc9u+C3w08OeHMNFZI7Ffwr66OZ1aNLQxxK5YaGN+2R8N9J1vwCz20EdvKh3CVRk8e1JZhXqLmbMcIlPc+avAOo6imgXOhSXZZIn25xjNfo/CWNrSmrs6MZRj7PU8s+IWlJY61KVfOWJr95ybE1HKOp+M8VYWmsVKRzjjDEV+rYN3opn5hiI8lV2I3+9Vvczu3qJSAY/3jUPch7jk+6KRS2FoGf/Z;direction=east;" vertex="1" parent="1">
          <mxGeometry x="-90" y="430" width="75.4" height="190" as="geometry" />
        </mxCell>
        <mxCell id="ldGgA2pG-wS7AxusLCZh-4" value="" style="shape=image;verticalLabelPosition=bottom;labelBackgroundColor=default;verticalAlign=top;aspect=fixed;imageAspect=0;image=data:image/jpeg,/9j/4AAQSkZJRgABAQAAAQABAAD/2wBDAAIBAQEBAQIBAQECAgICAgQDAgICAgUEBAMEBgUGBgYFBgYGBwkIBgcJBwYGCAsICQoKCgoKBggLDAsKDAkKCgr/2wBDAQICAgICAgUDAwUKBwYHCgoKCgoKCgoKCgoKCgoKCgoKCgoKCgoKCgoKCgoKCgoKCgoKCgoKCgoKCgoKCgoKCgr/wAARCAG+ALEDAREAAhEBAxEB/8QAHwAAAQUBAQEBAQEAAAAAAAAAAAECAwQFBgcICQoL/8QAtRAAAgEDAwIEAwUFBAQAAAF9AQIDAAQRBRIhMUEGE1FhByJxFDKBkaEII0KxwRVS0fAkM2JyggkKFhcYGRolJicoKSo0NTY3ODk6Q0RFRkdISUpTVFVWV1hZWmNkZWZnaGlqc3R1dnd4eXqDhIWGh4iJipKTlJWWl5iZmqKjpKWmp6ipqrKztLW2t7i5usLDxMXGx8jJytLT1NXW19jZ2uHi4+Tl5ufo6erx8vP09fb3+Pn6/8QAHwEAAwEBAQEBAQEBAQAAAAAAAAECAwQFBgcICQoL/8QAtREAAgECBAQDBAcFBAQAAQJ3AAECAxEEBSExBhJBUQdhcRMiMoEIFEKRobHBCSMzUvAVYnLRChYkNOEl8RcYGRomJygpKjU2Nzg5OkNERUZHSElKU1RVVldYWVpjZGVmZ2hpanN0dXZ3eHl6goOEhYaHiImKkpOUlZaXmJmaoqOkpaanqKmqsrO0tba3uLm6wsPExcbHyMnK0tPU1dbX2Nna4uPk5ebn6Onq8vP09fb3+Pn6/9oADAMBAAIRAxEAPwAD5kLPKF57tivOTuj5pPQgnJnuNsdyCPYZFM0VNyFXT99yGWXdnlxjpXPObUrEyo2Y66gljYTOvXtmo9ozNqweUZkLKvPcVSd9TaPwoiMK3CGJF+YUzKRmzWFzHcASzFc9FxWM3JSHTpKSuSXELRqG6+9TzSOmFBGdeySqjLkA5HfrVKLauEvddiKS8eNN6nOAMgcgU+Rk8xEsgvgx2bHH3XDDBqJVHDQl6lW8nWxnS3Lq28ZbmueddgV0v/NlcR4z3UnGPzrop1OancCS3kvoZQ1u5w7YO7kUmuYC1Nb3MalWmRY3P8AwV9aIU7SJauVZFiG9zNKA+ByemBj+ldc5WiHKQ3NrFbRfa7K480n1PT864JVm52NY6IcLSBrb7Q5JyQCfetoUVUGUltUkZikgx7irVCMJkyA2mIVMbBmD5A9q6VGM1Y55Gbe3V9JMIhEf3jHaB35xXHUi4TsiY8rVggkNpOltPKyFjwtZOrKJoqSkaX2Zv+e5/wC+hU/WGV9Xiel39m8kYUMhGORnmvWVraExpzbKn9gsqmeJgE/66Gk2kd1PljuWLC1uoWPlzg47Z/xqWothUnS2uWVeSFjLeHO/oOtHs0ziqRctgGEi82Nsls5FQ4tMuEJKCTI0mEEgkC/Mx5XFKzM5QkP1GWGYRkoobHNC9m3ZvUUJOOhTnuIIVMEkQJ7sTTkqUd2dMJuxxPxL+J3gn4d6bLe69rKwrFEW2nnPf6ms/aUnsZzvKZ8v65/wUx8A2+p3Gm2dtNcLkgSxoygEdM5HP4VrGPNsNUKktkcDq3/BS7xjLdM9n4etIlLYWRWbdgcAkYx0rOeHnJ6I2WFrW2L3h3/gp1qp1ezsPE+iQTWSZ+0SbCrtkk9fbOPwrCWDqPoP6rW7H0F8Gv2rfh18X4WstMvoLW4+0YjgeRdxXGTyan2FWmtUZSpyjKzPW7C6hm+ZiCCpZDjr6fpWsLMThJDrqSS6crAucAZ7Y4rVOKlYaasRy/ubXzQVJXqrDIFFVSmvdFzwXUro080e4QREs2AFGBXNGg0/eF7SA3V5ZobciGEbmXOxemRxXVB8oe0iZwZnEZk+SSQcp6Gs6zk3dEucS2jR2kLiaIkr0IGc5+lZUqkoy94xbuVb1YAEkjVgyjKjIHWutzoyVzlaq8+mxnXJWS5jmeLOT97cDXDVUG9DqpylHcseSf7x/MVhyo39sj1JRe7eY1IA6mvQ52pWGnYegklgIBxnoOldlOKluPmFiDB8ZwExz61NSKjIyk7sszlLiIM3GBWLqWNYlVp1Vdu7pU89zsilykM8U8irJFL+FHOZSjEjlaXexlQtjGGB68Vi/juZ8kbGB408WaV4P0C98T67cLHb2tuzsJDgDH8/wrRx9oiJRfQ/Mn9rz46aj8WPH8tzZ6jLFZBQIII5vkI2gdj36/jXRRwfuo78PheempM8IvSlu/mI2Wz8xBr0adBRR6VPDxihsuoyOoWIkgU5QsxyhZlW4uHuDiWfgfwEGp5SeUueGPFes+ENXg1zw/dNDPCxGInIyCPvUToKcDGVBSbZ+kX7D/7Wlj8Z/BD+E9eCLrOmxxq0zN80yAdcdsdPwrx6tKVKR5+LhKK0PoeC9tLi3RoG5cfwjNcspScrnDC7ghIxHFM8EnzDHOBmqjVkjORBtmMYkWIr+8zj2HFKVVtnRRo81NMWItJbyNIw3bvkUj3pe0ka+wRn6sypdLIbYkgDkCt4u8Uw9gijdG/klTy3eIP/AKwZz9KykHsEV7tnuHFuiuyqPxreKj7MylSsygkTKoRcqq5IBPI5rhrNrYXsmTfbV/57/rXLeYeyPbJPNhiDxMCD2BzX0CpXVzKo1B6jbeNb5XaVvLWP+LpQ58hFOpGo7RGtNFBbMgIbnggdamdeFrs3dOaK8t+rQ7UY7iOmDXn1K8G9GWospJ9onQmQEAHBNbUqc5wujRxqvbYl8uaziJyWB7+lVKnKO5zzVZdCrM95EhjVuD93IrNyXKRGU+azPi3/AIKgfHa60fT7P4W6VfOs1x++uwjEfJ0x/wDWrrwlpPU9WhCMtz4aubhHbzHYkrnaM17OkdD1YcsIpIoXTGRsgEDPrUuT6A5yIgvJK9COKtaq7GmmtSMxDPzDmnZDvHuN27JM9u1ReXN5GTb5zrfg78TNQ+FHjuz8YWM8oW2Ia5it32+dFuwUb1qK1KM1oZ1qSqKx+tHws8X6d4z8J6d4g0uJEgvbNJUCuDjKhivsR0/CvNnQUFqeLWh7OfKdGZLYEC3jcORk4Nccqab0OdwkxzXtrbR77iXlv7wqlSSWptTk4QsyASLMXkXAyPkxT9nEv2hXhWGSItOzb8nKg9OabSSsL2qKskLCYMsvyDoW61zyYe2QWdqPtXmJIrD+KovUvpsbwalG5HqOm6e90S5G6RDgDvW8aXNuV7pQ/saz/wCeUn/fo/4Vf1eIe6eyzyxCMNCqlccADArr5rOx5taDnEpqpuZydpVT98Fhj8q2jTjLcwoQ9nK5J5cTDYQox2UcVz4ihHod8p3ZBcra27BhKFI6nGa86NBXJ5imlyxl/wCPgMh6ttNaxm6c+Ur2zSsDalNbhiYi4c/LxXZJqcdTNzlIj1bVlt9Pe8kjVfs6l/mIHGP8a4pR96yHCLcj8f8A9q/4oXnxW+OGveI7uTPk3JtoFEgIAQhDj/vmvRw1PlR61CGh5zKZGJKnPPBrvep22sRPnZtbr6UAMBCjBNWtgEcjOfWmBHIjEjAoAVhlPKK7tzgsAccelAH6F/8ABMP4iL4r+EVx4PnmJuPD+ps5md8s0bfOFx1wN4X8K4cSeXiKd6rZ9TS20a3iwzTFGYkfKehzyM9OtebH4jlacWV5UVQ1nI25Yz8ryDJOee1avcyluMt0uIZkXaTjqAOKQh1zFKshMcBVm6HsaTjfUh7lFBcGd0Zt7H7wU5x+VYyiIksofs0jEqWJ6ZOKlKyN4VLRsRy3KXM4aSAAxn92R1rpgX7Uk+1XH/Py9aB7Q9JZBM2EusA9sUp7mcZRUbMabUQPtJLHuwNZSqVVsRKN9hk8xV2ijGFXHP4U3Vk4We5PLJblaZon+SRWJ7kg1zJzuFmULozK/lxPtVOgq7JvmZpGK6j1mFxEDI75Hp0qK2IUVodEVTW55d+198Ro/hl+z/4m8TQ30qXQsTDbKAOXkGwAH260YVupK7LjDmn7p+SM32qeRricq7scySOPnZv4ifxzX0MIpR0PTpR5FqNDKowT060LY2bT1RDJIjOSrcUxDGIJyKtbAI3OMdqYAaAEQEy8UAfU3/BKrxUulfHLV/CTphtU0HzEOeN0Mm/9Q2PwrixK0MKySV2foRfRLNB5cLHOc7/6/j1/GvMTtI8uo03ZD5rd4rc5iJIAyce1W5Js52mhfPcoFGAcdxVKLexlKrCO4yOVy3mLPuzkHd91a1UdLAmpq6Me/shb3ZvLeICZz+9kDHDenH0rnqOMFqOzHTud0bq+Nw7Zrm9rBvRmclK4RusQ8oWxdhnnPWuqDTJtMb9t/wCnMf8AfQ/xrazHaZ6c628c7m4BU9h+Fc9R2mavcrXEszfu0lIHbFRzGsSu5ugrRs+/n5cdql6hLcey3e1GmmB3j5QB6cUElLUYJIG+0BflJ5Gayk5XsWthxA+6AA5XOM1PsubcZ8Xf8FW/irNB4O0v4Z6dNKq3Ooia9dF42qoKjJ68114aKjOx2YY+FLmaSZjKxJLHJzjr3r3ofAj0pbFYNuLKetSKn8JAIzHIWY856UFjmbc27GKtbAJTAKAE+ZX3LQB7D+wh4ik0L9p/w+/neW16k9ohz94sgbHt071yYhe4zDEfAfqbp1wbmMnzAM/dGO3avIfxnkP4x+pXM0Km4Mx2oQuAepI9KopqLWpnGS8SbLZK+pNaKpyo46lGMgimHlmJo8hm+dd33qqNTmkOEVCNixfNuX92wIUDt7VliI8yLK5tY5As8z4A68Vx06XUh7jokigLeZ0xycdM1201yiKn2O0/5+B+Rre7A9ImmkuohIyYz3JrhrSXtGaOnJ6jrciK2kYBWOeMkVC1KWm4jtAI8xlWIHOCM1Sdger0Ksd3vDvtPH3cqRj86d0KzIGvrNpltTiTePWtoqm43LSdilqrhIGuIGOQjZHpispqXQD85/8AgpdqzXXjrT7R7suPs5kng2njnAOenpW+Fp1HK9jqw8kj5jYERAE9q9yMWo6np351oMRY8E55xzxU2Y4xcVZlaT75osyhKpbAGR60wCgAoA6/4Cawvh/40eF9ZP3YtXRSo6szkJ/UVyYh+60c9d3jY/W3RblWtEng+55W4fSvIfxnkSkoy1Jn1i2aHbLCceYGaQ1rZ8pyznJyvHYhkuzcuZx9xjwenHSuWbkgUpjFurZiyMOR0PrRSmk7srmSWpBNdI1sVbzBt5yG6iuidWnJbidWCHf2sxMVvbwn5x8zMw4ohOnyhdS1RYlmdI2iJDljywrS19i4U5z2E/stf+e360+SRr9Vrdjt7acTSJZhguR8o3f41xVI3qFw1pli4s1FqYkJYk/eFaRiZz3ITElogjEJ6cyY5NTKOoLYTYqRFoy7DuW5FLlGVHt1FyHiijEmPlIFF7aC57OxR8SStZaf5skoTJxK+3hQfajmKUbn5c/tyeJLnU/jZqWnyXSzQ2kIiimA4JOGx+teng9YnbRpXimeMPuEBdznHUivWex6FNcqHQWztF5u3gjqazWxbd2U5wBKwFMQ1tuwY60AReW7cscH60AG2VeF5H1oAcrYGH60AaXhK6+w+K9H1ASbfI1SF8/SRD/IGuevH3WzCrG5+s/w28RS6n4V03UCN32iFQdvIxXiSdpHkV4nSyRLfLJCybMH5feq57o5lHQqm1YKQ8pCQn5lweKza5h8o64jidA6qUwOB1rGSs7G8aSlC5D9rCxuJLXIEfX8aRlKii5DplpexJdbdpCDIB6cV20oJ07nPNOGiIVhls0b5SVLcE1Mm47GuHquLLOD/fH51HtpHofWJHfW8NvbbXWY7kGB8g/rWig5+8tjGkn7OxIbm3G5ZJmz2xW0YMJUpyeiEhaKaErJcjjOEbrUSS5iXFx0ZVkleGExIV5bCjIrNyiuoiG4uyrKjhNyjBKn5s1zzTlK6MXGXPoc14+1BdP8P3d5ekiCG2Mkpc84yfz/AAqeWXY7KWm5+SHxq1//AITL4k6zrMDFbd76ZYk+8eGK9uucZ/GvZwUJKmmz16PKqSZydnbuJlEisEbg7hjB989K9NyVi003oOu7oTM1vECqx9GA61Ca2B6OzKDnc5INNtIV0JQmmhhTAKAGEFnwBQBJH5iJtU7WDq6H1IPT2qKzj7OwSheNz9JP2PviKviv4aabvk2rEoiUeYOGXO4V83XvzHjYhqL1PbYdUEcKzq2UbJ3GsFUUXZnNFxaJW1GK6iKQgEMfmNdEa9LuaKN9i3a2oS3MsqjGOMms5yjKV0XaUdCkL2NZAn2cne2G+XoPWlZmEudkbai9ssjW0eTu6j07VvTlJKxapxdPXcfHqNzeOsM0XsWx37VvGKktTOFKzJ/Km/un86v2cDflidql5ZRN9nZmLDrnJ/WtVDkVjjhXdgkuUEuxYM5HFM6Y12Mg1NWkaP7MoUdyKwnHUcpczuJLLaMC0q7Crgqw78elc8okmO1/qk+pmNraLy2b5HyNxFSlZFKNzB+M2geL/EngzUPDPhWWOO51C0aCOa4TcFDjacY6Y60zohA+d/hP/wAEUr3xhrgPijxbcSrGoPlRsAsh7nIORk5PPrXfSq2hY0lUcI2OJ/be/wCCbcH7LOiSavptin2Q2m5ne53PuJwDya19sVQrvmPNLf8A4J9/FXXPhInxQ8OYuY2RHjthEWbbt5zt46g0vrUY7ndrLU8C8TeGtY8Ka5caDrdoYrm3b94mwgDIBHX2Irpo1Y1dA5TPByM10yXK7FLQCCBuPSkAAg8igBFBD7j0oAk3oiliu8k/d9Kt0oyp3He6se4fsg/FbUND8Rt4SgupEWYrLbxs+RnOGwO3FfNZhTlSjzIxlhY1HqfeHhHxbeahpcUF1ZHyJVYmbbjADEZwee1fJVMXJVmiJYCK2Ojsb/T7YCEkHP3D616FCqpGEsPKOx0GlaXea8xayZiu35UUfn+tdHt1GVkYTpyMbV9M1Oz1wQSRzRMfvBvunj0rpp1FJHHNyiySawulhVrf5CuQBjrW6lZmLqSI7PTrmGJobmdy7yBmkHAArojIPaSLXH/Py3/fdac6D2sjqdLneeECWEqwXqR1rpd76iiop2LNtDfCRnlwBn5PmHNQ2kdUIxsXVsoUjMrEc9TRo0DVmUtUtlit2nkcKqjI561hNWER+FbUaldLqMkaeWcjkehx/SsJaam1Oz0O3sfDgv0WQRLheU496z9pFs7YwaOj8Fazf+FtdEm4xA4BO3g0OsohKlzrQ8N/4KX2kfxq0uH4f+f8t9pdwCUUkqUXeOR71lLG0o7sqlhpxd7Fz/gnpfadq37PNt4Q1SKKOSzs1txv4bK5HzA+vX8a8rFY68rxeh6MabUT43/4K7/s5aL4fFr8YfC9rDA8cjW+pwQAYk5AD/livTybG+0na4NWPhCVTG5U/wAJ2n8OK+vb5tTJ7jSQ0eAaQhFBAwaAFoAAQTtHWiMpp+QGh4S8Q3vhPxLa+IrF8S2cyyKq8Fv9nNcWNoqtFxXUlymtj9Dv2af2kdK+IvhSBGt3N2wxJAFBCDcQa/Psdga9Ku5NaHXSk3HU950zw/BrtpFfxRAfMNoaPB4OOn4Vx060k7I3UaT3PX/Afh/TPD2nrfTWULu0XID4NdMZzctTGtRpJXPO/itqVjqN+JrKNo3SToG/rXtYbmaPFr04N2RirfzWsIcnMZA5btXeqNV620OCVOKlZlTUNZuod0Hlh4W7Kfv8VoozW5PJAofbLn/nxb/v4P8AGq94OSBa+GnxFtPiX4FtPEuj3hxcxDMIlG5FJOSfxz716UyJ07SO6TU444I4kQsFUAEsMnHeueZSdi7BfPPaShoyqpjtmkpWjYq9yC7vo0hjEsp8sIWYsoAxk+tYykBj/Df4qaB4o8fp4G0jEkpR5JSsZACqeTnGPyrCrNcpvQjeR7ra6XOtr9lHybzjOOmK4Iy949dQ90vy+H0SMNcuflTjI4oqyLhHQ8k+J/hxtV1YXu2NFhGFlxyAOSPxHFeRiJnRGBw/7IvhbUtKg1nU/PZmOsTmONgRlTK5UfgMCvNqzbVjZ6I80/4KqaabX4Aa3PdQAtIu2JT0BYryP1r28kTjVVznnuflbMkjk/LySfxr7+k3KmmYvcjClPlYc1oIQsAcE0AKCDyKABFJkyBTewEjKzqY1X5s1hID2T9kL4lT/D/4kWVtJPiC+mSCdWyQAxxu9q+ZzilJwckb03ofqxoGkXdvoEd+swkJRSmwZDjHH6V+f+0lCsdlOndGR4r/AGj9N8N2VlazwSxC/lkgt5lXKxuhwy/Xv+NdcMRJ1RYily0zM1MpqgNzNdfvCNzKSM/XAr6/LrTSufPVJJSK8tvss41cl1YEsO45r0atTklZHDUd53M+WcQxbYIWZVPzZH3a5J12QN+0H+8PzqfrAHwz+w5+09qngDxXF4Z1ucvps6hGR2OR2FfQ1KckrnZWoT5j9CPBN++tk3sV5E9s4DQhvvYIzjNcrTk7I8+rGUToE1K6sDI4T5VOAjdTWU4yi7MUJpR1PNf2nfiePB/glbgXixC6mEKsTghj2x1/GuaakaxfPscj+wRq2lap+1Va6HP9qa4fQrlyQ2UboT/Oueo3y2O7DwcXqfobHo6K++RerEqSOSM157lyy1PXik46FLW9LXUbmK2SPno2HP8ASlKopuyHFxjozg/jb4NkttANtZWrgtCXZ42wU59+a4K9Cq9bHTCUTkvhHpmm+CfCzXV7cSYkkMkkjnk8k9OtcMVFTtLcJtHwH/wU/wD2j9R+IXiH/hWOi6vH/Zli3mXKhuZWzuC/ka+qyynDRo5ptXPiicnz3Yrt3OSB6AnIr62krQSM2rkEqNvLY4q3JIVmNEasMkUJp7EtpOxL5SCAMKppoa12GxRSbh8vXOPw5o3Wg7MsWsJlcMozkZHNZSi0S2kbngjULXT/ABJHcXEhWJY33AKc7gMqRj3rgzClCWFt1NKc1c/Zn9lXXIfF37N/h7xBLMjyzaYqs5bOCq4OfwxX5Zi4KNZntYflaPDPj38IPFWo/D7xRoNnqVw9zo2rR63pUigBdr/u5I1I5PK5x71dGEb8xWKhzRfKZ/wE+KmqeKtIGh6vYrFq+nIsFxbzSqNxCglsk5IxznpzX0ODxEYaI+RxlGpCTbR6Rb391cWZjuXhSTn5Is/hyfbFe2pKpDmZ59mzN0y9luxcxpcnCPhwynP51lOMQsy3ssP7jfrWfLELM/I+xu57O4jubORo3iIZZFPUg19XUd1Y9upG6P0E/Yb/AGmbb4n+FG8A6vqSrf6eq+REwwzDrnPfrXHy8rueTXhqfSumm7kuY/td0nkuMALknOO5P9aicot6nBNWZ8+ftBeHz8aviEdBmM39i6ChkJRSPPlwD1PXBJH4VyycTfDbnqP7F/wVh8MfFnRPHdnZSW80iSWxaV8kq4AUHHTofyrlqKJ60D73igRv3kibQCQOvrXn1YxuelTKVlaRvqhefIUHgr1rgcuSZo6d3cXxN4Rj16AiPLoVKkSEZxTlW5lYtKx80ft5yXPwj+COpeJdGBR7W1O3acA54zXBCk6mJFI/GTx1qt9qusPrF9eefPey75XcklQe1fdZdQjCCuc09zBngmlbe8eCTgBe4HFexzwTsC2I5oMNsxye1WlGQxptTGBvXGfcUXjGRk43kdL8M/hh4i+KOvQeG/DtnI7yTKrsEyFBNc+JxcILc2jE9j/bA/Y2v/2dfAPh7xFcT7zczBbllXABcHAx17Y/CvPoY9VKvKinHQ+eIG8uRUclAnAxzXrOScLmMom54Dsmu/FVrIUUBJkd1k+66ltpH5CvLx1SPsLFUoWP16/4J+6VqFt8HrvwndQqIre4lNuMcKkmGXH1zX55iqanVZ61GVjv/GngdLy0vLDZH5t3p88cZGflY5CscccHtXK7wlynQ5OR8XPrNl8MfF1rrfijR57W+t5Wsr2QLtE8eNu/nrnrntmvdwFNSZ4eYU+ZHuGkzwNpkd7bXRkRlR0ZymdhUYGc84HH4V9HGmox0PmanNGVgfULWyuJFjgGx8M7YxWU4kc0h/8Aath/fWs+QOaR+QweNRtz+lfStNzv0PpXZxsdn8DfjN4q+DHju38XeF1SVohtaG4n2IRnk9KmtByWhwVaEpbI+5/Ff7RfxA0f4bW/jy6XRHh1K0G1oLh2IJGeOM8dOleHXdWNRo8yrhqvNaxhfDbW9U+OVloX/CP6fJayyXpj1Hy3k2MpkODkjByMH8a5JOsaUKNSD1R96+C/COmfD2y0RseXFBfQK5TJDctk569TXLUruOjPTpwk9j3uMLJbjDlzt64rgq4h3PSpxkVlVYQ4ZBvz8nvXNOTktDuioqFmasMHnQKG+UMOTmsoRq31M5xvsfPn/BSb4VTeOv2Y/E2gWJkZjZCaNo1yd687fy59Oa9DDSpxramLTsfjr8C/2X/F3xi8WtZW1rI8UU/lMxUYVhwR+le7Ux0KVPRmEoSbO0+Lv7GHi7wF8R9H8H2+mtL9rgdzOEGEwec8+prClm1N7y1KjSnY8Z8TfCfW9F13UreeymX7LdNEMRkgsvBxjrzmvWo5lRa3H7KfY7P4YfsdfFX4ta1Y2Fv4eureylKu8z2xQlT7tjNZYjNaEJP3gVOVz9Jf2Yf2J/CvwO8OCZfD1q93LGN88q/vQf8AP6V8zjs1hP4GbxpSOH/4K0fC3WvFX7NC3uh2jyTafqEEpCDcfLUncfwzWeVYpwxClU2KlTlY/Mi8+Ffjiw0yPxFdeHrxLSUZWd4CFOOvNfbwxuHnSspGUqMnsfTv/BOP9kq9+K+r33jDxf4XluNKt4UWBGUDzZN2RjJr5zMsWuZwTNIUpKOx+oHwD+G48MaTcQfZBE/mgeWAANoGAPwAA/CvnFCtKd7GnwljU9GSPVplaRyEc4Geueaqapxd5bm1OSsfNX7dvwdtPiD8MtbvLfy4NZs7TdZXKjG0DnPHWu3BYmlGS1MMTT5loed/s63/AIz8S/BnTp4ZLa7mth5DSfanAJj+ViQBgdK+qozjOkmfOV6K9o7nc3Y8bxu9xqdtYkxpt2pfMM+nG3PSonKJyyVKO7KP2nxJ/wA+Fn/4MT/hWd4Ee0w/c/J/5v4utfRnuiSFGURlMnDE56YxQB7j8NvEHin4p+FNK+HkVzKEGLSGONMjc3cfn1rzsTSXM5HPNXkfpt8Iv2evB3wo+H/hHRjPMLuExG4liAG9urZ9cE4/CvNcot2J5T3L4lSQ2nhWOMFQBeROu0Yxhs/y5rkrYdN3OikrHrnhu7juLKB44gRPEpUZ9q8utSjFnoUxmpQLFJ50WSQ3I9KxUI8tzYsafOl/GoMu0p2rkqVHHYBPEulW/iTRJ9KvwhjYE4K5DDGNrDvVUJ3lzEON2eFfCz9lPwZ8OvE+q32j6fBbfb7kzKkUYCqx5OB25yfxrsrVOeFhchZ+KnwX0Ca+t/EU6QvNbRsiIyAtyRnn865qcHa5aVkeS237Hfwz1rxHqWu6hocUlvc3ckoil6Bj0IHbJrqhV5Bnrfg/4OeH9C022ighI+zwqsarwFAHSscRPn1J+0b1/YutmpC5yccH0OK8r2blI3hsZvibwHo/jvSl8PanDvikYCaN1yGFaqjVjrEHuV7n9kP4Z3fhFvCk/h61ktCG/cXEIIGf7uOlaxrYmnsxHQ/Dz4K+FfhX4VTRvDWlxWsUaD5IYwMn8Kr2s5u8ty1sa+iXKCRrCGHDeZkkjBOea2jIwmc74ws20zX1mCErPExPs2cCuLFXcmVTPL/j/wCH7y78B309usO97VlAZMnaRzn8c1vl0E56l1tj48/YE1C9u/AXiPQpro28th4mu4ZoQfuZbcAPXI549a+2pQiqasfLYyco1me+3EQuSJYJlGc7Qyg+YOx9vxqZROKNqrsVP7EH/PNf++V/xrLkNfqqPx6Y7mzivpbM9e6J9L06TVbs2Ma8MmXweozRZhdH1x+wJ4Ou9b+LuiaHp2htFBHC1wJ3T5Rsbkn8a8nH14K8E9SG1c/SjxBG914i0zS4lytmRO5A7rwR+dfNc9VVLsV0dr4rsLbxP4MkmabBWRWAA713Kop07dSozimdZ8P9bvLfR7OKb70YAUk9q8zE0a71SO+nOJt3OvQSu6+avD4OT3ry5SqxfKzoTuFtqawL5iyqBnnmocHLcC7HrtlDbFnlG9hwcE5rRR5Y2RSascb4k8VS6VriyjkSL1Cn04oXN1HdHJXuqaxfymbUI32M5Kg+ma6Y1qUYWb1IbVy/pnnvCrR26rCeWdkPHNYTVSfwjSbOnQrbW6KQCSo5A4qfejHlluLlfMRiFHbzduQOi4p0qbuax0WpoaRBbTSi5MIB9MU6tWdOdktAe5uSXcYXBA49aUKk59BFKe6leTZGcqe2KmVKq57DUkijf2ZtL1L2JMbvvEVoqVWO6MpamR47tfPsob1H5SUdv4e9VUdFUrN6lU9NzgPiOiT+Cb/zjhVi+dyM4BJxxXJQrxpz0ZVT3lofn9+z7Z6x4B+OPjjwKLlVGpanHqdgHUjcu1Vb+Rr7TB4yhLDRuzwsbR0b6n0pLZRNdLDAQhwTuzxzzXR7SnLY+fg506mon2E/9BZPzoOz6yu5+N6qWZUUcuSF+oGfwr35OyPWe56l+zT8BPGvxm8Z2GleFbN08+5EVzetjy4o88nk81yVK6iI/TP9nL4IWfwx+K39j28sb/2Vo5im8mPHmswXBH1INeNiV7Wo5EPc9v8ABk8WseKb7Xo4S8cGY1UnkZFcM6TEa+k6jLd6Xfabn5hJuRDxxmoj7rsT9o9B8DWUM2gJayx/vG5DA9Kzr10onoUznfFl/eaQdn2cBjcc5POOlee4Kouc7IfCTWF/PfIY3Uru5GK4qqcXoUb+k6MJyGkuGxjgGuuhT56SbMJyakP1/wAFWWpIlzLI4MHPy9xW3sYk87E8Q+H9NTSRdLCFVFHzsMZ4zXHWpJSNYO55Z4n+J1rbyt4c0vcWb5TIhyoOenFcM8ROnsdMNjvPBsl5qWgwT6gv7wLtb8Dx+mK6KLdWHMyZSSZaCyG8FqZdoJrpT5SedG4wg062jggwW7yevOac4xlC5Sd0PfyXXM7kuRyQDXHGbhLQZNpoijBZU3A+o6V20m5O7Ie46/sllTG3jtXTU2EY+vWXn6JJBJGQVUlfpXFUpKULlrY8j8ercx+H7m33ko6gdPugHNefyRjIZ8KnxXBD+0bqdlrti0eoaZhbGXyyPPgfEhYccgbsZ7YxXuYSS9mkefjI3TPcZL9riAXbhlTG5ODkg8/1r14e6rny9aPvFX7TB/zzf9a09t5mXIz8ivuRs6HG1Szflj+Qr6Wo3sfRPc/Wn9iD4Q+Ffhh8OPDlzp+m7LnULeJroPjO9hnj868TE1GmQ5JHsfhiA6R8YvEOqLdBn+zwCNdhwgA+YdPf9azjUgqd2yHJNnoHgizh0rQL/VVtgplIZlA5HHWsvaUpOyY7XMvwtfRSzTtIrhpZsLu64rz601Gq0Kz5j1P4c6rbsGtDtQo/yFmHIrzcVzzXunbTkkVfi54YN7aPNaTfMcuZF9qwp1XTpqMjrjOKR5z8OfiJBeSra6hMxMUjI8jAqDhiO/0pe0oz6mikmeu6ddwT2sdxYuWQnBNdEKsEuVCcL6kHjzxPqHhvw+2rWCeZsba6D0rSVZQWpLUUef3PjPxJ4z8OyWlvbHMisMuxGGycD8sVn/GXMhKUUzG+Efweu7TW3vPEKhiGJxnIBzmuaeClPodEJxsewva29vYm3sUxhxxjHFbQpqjDlZlU5nLQzFVzegbThT96sJysRaZcj3yMElcjae9R7VuNkdEE+U0IHA+UjIHetaNJyd2VZl2CJiCyL8pPFdapuEzOWjJ32sNrelaT1WhDlFGdr6SQ6bO8RyHiIAx0Nc1RSVOxpGSaPCviSkn9hXlu9y8bNCzK+eMjrXh1faxnsWk2fN/7SX7NUvxQ+GGmfFLwlfywa7oE4ngubUYaeIHLQt6oeT+NepluIUXZnLiYNxsXfBl6+q+F7a/CyBpYF3xSj5kYcEfTIOPbFfR1KkVT3Pmq9OSlqaH2SWvP9ujCyPyBmTZFI8n/ADwbaPTqK+/nHqe09z9c/wBnbxrH4jt/C1/YXCXFnHpds3mxnCk+UvY8+34V4OKhqYSPXfCNy0njfXpZYwyyOgi75BRSf1zXA9rGcTt7vUoE8LT2kCyRNtGcdDURjyu50RM3TZIrTRFuJJAJUfdubuK6JSwyp80tzWNPm1PHfjz+1nf/AAu+KGg6fpOoOYX+a5jiHG0nr715FXGYa9kdEKR9CeG/jJaeJ9AhurgsxePc6k84IyOPpWFSrQlC5ooNHns9jp83iG5t4JCsdxLujVTyh/8A18/jXnLEYeMjohE7rwJ401PwpcJo2ruvks4KF3B+X1rqhUpSfMjbl909RhttK8R6e0UZWWGTkgVvL2dRWMZRJbTwpo2nwNHb2agbcgbe9RrT0RztWkWEsLCCMPDAq4GScd+9S8Q4msCle30DSGODBPcYrN1ubVmhQnR0lLghQe1ZSjcCVUlNv57tuXuBWajZm0PhJ9NlV8ADA9K64VOUo1Y5CqAIeK25+bUwqD1y/PejmOaYzULOWbTZgjAnbwv4VlUkyoSsj50+NN/HcafLpBG13aRHccY4xXl1oykzpjI5f4aTahpvwyFhdwRnyvOiJd8kqS3XHFXg4uNRXMqzucDoGmwaFFLDbnbGztsRjnBLEn9c19jRpwqQ1PAxW5f4/vrV/UqZwH47tpmpfKJ9PmChmDjyj84I4A9a+rc4ONj1pTimfcn/AATr1Hx/4T+G8s2tF1tIblRpyXHXyySWHthiw59K8jFRMXJH2l8O/ES3V9c3kSIwuQDIyEELhQPx6V4zX7xvoZKcU7HRal4gWS2Mc7MIypUYbAJzSr1aUFqzspxctjjPEHjky366TpwlwI/nQ5wMCvExdWM4aM9KjSkoanzt8a408SfG/S9CuYYW36ZK+4cMuBlf1BrxqcYc/vs6YxR9L/B+zlk+GEF5JIRcJp0ZVs8r8oz9a9pYSnUw94smTjzFS01qGwuIdUFyxDzGNd2SS/UivErYWMJas2gkzc0fWNR8Ua8Jr60Y2gTaFZSpLfjXDVrVKStHY20tY7rwL4/1Xw9PLDJdgxIwXbnp7Y60YbMWpWkyHTlLY9W0Txe2pWizLAJcjllNfVUJ06tBSvucdSlOM72Jb7Up5F8tYtmeoyOKwqwvsTFq9jOeRYZthj3N6561yX5ZWNR0xZ9qlMMf4a6Kc4gXIYitkYJBhj2pyi5O6NIySQlpH5MxXHHGKxlzRK5omlH8qAGtqcm4mU9dh8bNnIHHY1olJ9DCUZMlJkaPhflLYY/hXTTppx1MmnFny98fLWe28fzrE3+j+WWBB/iwO1KeHilqbRlYxtAuIoPhrdTzR72Mh2AHpya5PZr2nuiqTilY4KCdmDAtkKxII+pNevQdaCPDxLTegz+0m/vN/wB811+2qHCeCXH7N/wnu2ivLu0ka4Xa1u/RTwOwr3KlRxkznjipSVz0Hwxp+i6PpwsdGsFiWNh8ivwQOpwfeuWtVlURX1hna+FPEt74e1FZPMLW7jkKnT8BXI4NRNacud3J/FPxP1fVJzoeg2gWQSKSZOcqQOVr5vM5zitD3cLsW9I03yLY39y0xnkB+ZznjvXzssXKMbM9umrwPL/iK+maXe3fi3yvtV9DbmG3zFyM7u457iijVU5al8p618BdX1nT/gvpV5rC7JUhzOmSemfl9TxivYWOjSpciZjKleVznJdIv/E/hqSbUpbiKSDWnnto0lABjY5ByD79OteXiMSpsuKsey+B4Ley8NQ7pmSRUHG8tzj1PWvKrVtLG0VzFH4Z+MIb/wAd6p4Yu5WZ4IRIshUELuYhfrkg/SqwVKFSep0Rie5/DS5S1Elg4JAHG4d+p/Wvc9rKjLkWyObEQN/U4AMzB8CuylUc1qeco+8U3CCVd7c5rpVGE1dmz0NKazCBXZecc1Lo22ESo0L9D068UlGS0AgnikMu6KXAz0reNDm3At2d2ECxSnJHU4odOMJWA0FEZQMeM1tCMQKOsX9taWzDe24txtPtWqST0OeoveufLfxt1zd4lvSsLs2ON3XoK48VKaWhi6nKcPpWtXaaPNZ2schRmBYN0HHpUYSMpK7OWrWTlYxl1KC0DPcTxhskuOgAzx1r1m+WJw1HcP7a0/8A56Rf99CsvaI5+U5HT9Re80sTzRCPy0GEVQcD+dfUVVFnmuMaeho6X4ft2WTUXcl2jBKnj6cfTFc0HTi/eJU4PZmjcmG0REVGSXYCykjkYqaqjKTcdjtoSjexQ8L31rffEVY2t3jIsGaOUuMZHbrXh46jTktT6PCwlY1L/wAVTjUZLS3jmBMW0ZPy7q+Ix1JRqtRPeoL92i9Y/DW21ayh1C4bEmd0sjIduO4968r2k6bN1Bs1oNfTVXTw/p+IltpdnkIPvAqOfx/rUuvUnPQHFLRnR+IPDNvpOiwQRhd7KplAPQ4rW9S2pzzi3sbmlRzQpGzbTCsHyptPJxXPWjOSujWnZRSZzdlbyeFviCmrWcagXhjSUlDwAS38zWmClVhM648p754du5Xs7XUA43NGvmooIwcYNfTUvZzjeT1MK6udY90L6yeVYyMAfL6cVvpBaHm2UZalG3lNxIPqNuaUa1W+mwS1d0dIG32ygoC2K9KhUi17wrMgjCLKVk4J7YrrvQte4hsy7JCtS6kFsAkQPm5xXDU9rKo2tgLzkMm5X4px9qgMLxbciCx83cu1TksOtb06yi/eMaiPlT4vTWkvii5uLm1lk38LIJD1wPSu1PD1lozyq9RROXNvd2WnC7t7wDzDhkdsEfn1rSGCqJ3itDz51NbmXfaYuqPJKnkursBKCfvYAHX8Kuphq1tETGrCT3Iv+Eak/wCfe3/77H+Ncv1TE9jUz9BhAsUvdUs1IMWP3EZO459BX0FSUvaNHlV4mzpqWM06xQOVyMSeb1VcdRVwpqW5zU4+8eeak2u+HNbl0q41u6nXUL3Nq7LuMMfQ9PfP4VlipxoQPWwtFudzvtQ+HdxDp9jq9lK/2hFKq2QDICSa+Ix+YLmaR9VQp8sTovD+k2V0VkurcBoxySOpFeDVqOq7no0pWVjR8SXk76PJYWEQDEYRVYg/4Vw1KfMdUZFv4OeBrayP269tiLkybg7Nnbz+tOlSikRN3kb/AIxsTqGtpb2zY+TLZbH86yxEnGOhJainm0vELSb8oAuR7CvKl7eb0AydasrvWBIqF1ZF3Iy46+lXSpYqLOiB638INWTUdAisZ3LSRx4JYHJIJzX1OXybprm3IqdTvtKlSO1lt5ByRwD3r2nCMonm1dzJVkGoDa+AW4FEIRSsKHwnV2ykQKCe3rXTFRKIL1mD7VH41T3Ie4xX3DlsmkIehCtkmrWwExnXyiqmmBy3jW8SG1KshIdCGPoahwTdyZxvA+WfiDfwv4hubaV2/dy9M9OAa7sJTjc8PFQ1MHUVjvokMRL7FJiLnhD6e9e7GahGx50ldWEtrmAW32e4tkR8fKVU4Y96xnVRnGm4u4vmt/zwj/MVn7Q25jkvg3rn9ueAdKu2iJubnS4JjKGJXDID24717DhHms9zkxEoxlys6J7RbUkxKqykjajfxcZ61lVvRV2Y0YOT0OTttPu/EXxJLSApDbKNxUgjOBnH418lm2NvdJn0mCpWirnrt3JHpunWupOd8EDKAh9PWvh5yqVaup9BCHu6GV4t8QwpMsWgRZZiCyKOmef60pVYwqcjGk0zb8A6Re6ugvL1cJ23EdjitoQ9psaxnY7a00x7EqVUKOxB61z1IVYVWraGl76jJoXbxALu5t1ZfKwuexxUVIc61Ara9cyNOsuwcDB2jiuRc1KW2hapykroi025UfM8igt1U1c8dRSsjeMZI6vwDf3GnaorRzKEc8AGtsLiXKWhnUT1PV4pS5WQdWXmvo6dSXIebVTuZGpq9jeLM3BJzjPaolXtKwoJ8p1OmzPdWMc7EgsvSuiFZsqzGXcU5ZmWXArphWi1ruQ07kVncorhJELc/eA610RTnsKzLcoDSEomB2FaqnPYRE+9Q3HFOVOcdwOU8dSTmyfa2AuTyO2K55c7loVKUVA+XvE7QS61dX0yo+6Y5Y98cV2YX2sXqeLirNmZcFZgAsYjj/hI716LrrZnlKSU9So0N2LkuZt0KjiMDkVm3KWxtNwkvdIvt0P/AD4SfkaXLU7HPyyPNv2RfEkV58A/DN2mV3aQsBw2cOuVI4+lfXSglNyZz4qnzVmdH478SXWi6adRjlMxjiJiTofxzXm4+rFwsb4Sldmv+z54Y1LUdPuPFWp+Zm5YFUZDwK+FzNx1PpsLSaSOx8d38Gm6DPZQDfLMnlLGDyP9qvkXNqpoeulyxKfgzwpfam9rfyEoAgD7ud2OP6V0fXsHD3J/EZHqWh29pY2v2Y2xYfwRqMY9al4hT/hgXZEvpZQEtmCjHHpUOVRr3jaHwkWpzvHNGETLAfPWEpSKKUsq3W7cFwPVgKmdnS1OmnK0TKnmIvFRdoUnrjNef7FSkXznU+GLJRqUUkEvzZGSOlerhKKjZmc3c9cs5Jjaoc7mC8mvpcPFTjY86sUdQYzXPmyngJjn1rocKUHZoUPhOl8Nzi5tAQflVcCtFUoRKJb22aaLBbaRQ4wn7yIe5mi9ktbgRswAzxUut7PYRpfaHkO4sCT6GuqhX5tSHuDtmI5PJrtm+ZCOK+KAnGjTtFKyssZIBHBFca+Iip8J8y61F/pklxJFudWO5QMA5rupnj4jcyNRe4IWOCL5Qcthhx3rX2d9TyanxCSXlvDCAnmbiOWxj9KuKsawIPtB/wCez/lV3ZofPn/BOSa88TfA+C0R2CadqMiKh7Lkk8/jX0GKq8kbhVoTc2elfEO0uNU8T/2LHIphjQCSJerHjv0r4/GY5c1rnThqTg9T1jRL6Dw94UtFA2ny1Cx78EgDHavjswxnPVcUz6LDzpRirsgsPDUmva5HesrmNm3MC2QOa4qFKUpXZ0zqQktGekaN4btLGJZS7AgcBelFfK8LUquo3qZLY0Y2aOULEmBnhzzmiNKFH4RmrGkuP3tyzZHRRWylTa97c1i1ylHVLBzJuSM8DnLDNRKNNmlrmBKzJnESkknOa8nGSlTk10NEpJFNCz3vl/Z8IpGGHSuKjXUpD947LweYftsQZuc9xXsU6tkl1E3ZanqFtewW0HDZO3pg17uAlVvqcVVN7GTfySX1zu3bcHoK976vTnDmkTHSJ0/hFyLFgvaud4WnN6Mo0Jk8xS2/BI6Vm1Km/ZkPcxdQRbabe8e4nqfSolTk9WIlspBJIAshx2q6EZqRlKSTNFiqp5e7Jr2IqXKLmicH8aL8W+gzxqsjsYivy8bTUKhUlK6RnUnFRPmy+N5BbEXR372+XLDJ5rrjSnBanjV6sHIoXSXEsewosaKOMHLfpXbTSdNHnyjKUrozriGZJSokbO3coYckVE6cnsaRTRS/tW59f0rP2U+xZ5v/AMEuPBQ0D4BRalcS+bLqeozXEURIICn5UHtkLnn1rpzL2spNI7ZfEzb8XafqelfELUNTe9BY6h8ybSAinHHNfE4nC4iczWJ6ppOlvrltbTLMknyg7TXnVKMKUrT3O2nsjv8Aw7AmlQBZIkX5cHjpWbxVKmdUNjatJVnh3xvuXP3se9axlGsuY2WxbtrUyMDt4HStFh1IZe2sm3cpH4VEsLFFrYi1mOYwedAmQF+btUOlFG8TiZ5G81mdmALehrwcwjeo0jYbFPLHcI0Mm9GPC7cV5lGk4zuB1mmM0dzbsR5ZdgMZr38PCDSbMp7npdgEhs97NuyvJ9K9vDzUNjmkUbgiJiVbPPFdzxL5eUhbHQeC7hjbOjnGelTGvKLuM2vlX95uzntRGftKrkQ9zL8RHzEEige/NdUvhEVNJmxIAWGfrUUZWmYyjeRsFw3O4fnXrKa5SeQ4j4yTRjw5c73UAYAPviohiHGdjnrq0T5m1iGWSXEsuPnwK6Z1XKJ4FT4yEwpCrbrjDk9xmrpVHyFLYh1K3N0FkjkDMseNw4zWntJDM3+zpP8An3H6Ue1kB49/wS78XX3/AApaO0uFyq6k0cEjHgKrsPw4Fb5nKtTquy0OxyTkz2T4h+HJtc168SKWMfaGEyAIc7QACf0rwI15ylsbwTZtfDW/jSIQSRfPAnzt7djj6Vw4vASq1HUkdcJKO51lxqz3LRiNuvoDzXmywFBvc6ITjY39Fv3EBi2/SsHQnSnyQ2N1KNjXstSKziMjA4xXZHmpr3i1rsast2UC7iB+GaHUU1dGiTsGtQzf2eJTJtJGcY6159ecom8UziNXM6zSHaAPLOOP4q8OrP2lVmvWxWs5VYxM45UZJ96iUOVXHys2bTU1uNUtrcoT+9BBHpWEMTNVeVGVSLR6xaWrmxyoIRh8tfTYNVZR1OVu70Kl1AY5dynI969SFCfNdkfDozd8INvyMYPpV1YxtYLo3SjNHgDpTw1Kb2Je5j68w8sgJn8a7ZwlGOojLsvKSQBuGPbdXNBS57js2rmzHcR/ZQjJ0OM5r0FUVhXseS/tHazPZWYs7WbhpFMgDdOBWMJw9rqcWJi3Fs8YlDPGGlH/AC03An0r2IKDifO1XaepmazI8amR2wu77wOf5V1U6cXEFKNiqks6RqYG3+vOP51cqcY7j5okv22b+4PzrO9IOaJ5Z+yT4Dj+F/wut/DiKT9nneS5d/k3sxZsjOP72PwrvzGDnJolV1zHqOmeI7O+1+OWOYyRGLyzOjZUdiPwOR+FfOqhyTudtLEIq6bKmk+LrlY9QdlkXkA8dBisMTN8zib+1u7nW6R4ns5JxEhJYJ95lNeXKlO9zeFXQ6Dw1qrTuIhPuOSc9O/vUuDTudVOeh01qGkcBjg9qzqLnOqMjSJvEKRF+M8ZrGNOSRoqlmaXiW6uF0dTGm4KvJFcOLhKxvCqcPNLdXbGJxt+tefCjFLmZop3ZWkt/JYxNPkr/Dj8etZVVzKyN4yLfha3vJ9ctbi0UtGtyA2OcDv+uanDYLmnzGVeeh7bbTTeV5RkA444r6WlTlThoeepe8Ry25Zg0nT1q/bTTsVJ3kafhkxRXhQNwelbRTluSbVwzxqoUj5/eu6kuSIGRrOJQVjIJ9qKlVSAxirR3qF4jj1zWCUh81kW5ZZJIxHEcDcSTnpT5ZmMpnz78bdWudQ18Wpvl8sTbWx1BrSjSbqXZ5+JrNRscVqr/ZlEbXe9AOOcmvaguWJ85WlKUyuBbSxLGV++uST2rroS90qF+Up2MJgnmaaXKNwp/CrrT0KGfZo/+ev6Vw8wHE6VqskE8mnLK4LcxyBMjnkcH2r3sVODqs8z2j5zagn060t1tLWSSLPMspTaMnk9OK82rydDupSk0JI8Ntq6ajHcfu1AyzNnPFeVKMXXdztUmlqXm8QzvqUcthHuUoQ+zoK6Hh4TjoaQrxvueq/DXw9D4uszJaXeydcDA9a462BrOPuo9GlVjyo7ib4e+ItHMayyuW2bhkdRXnfU8RGXvI7IVETNZ65aBEayeRmON3GDXbDC2hdoJVPeLu28uLP7HPbNkKdy45rgxdCDNYzOE1/UZLSQwXFpLCFYhXaFhu/SvkcXSxMarUFodUJXRVdotSsWVYJvNz1Py5H44pYfD4i/vI6I1Ejvvg34UuRE0qS7YopAzB+frXtYfD1FLRaHPXrw2uejFI2nIjXA9K96lh+aJwqa5h0ls5IG3g9DkUSw9OG50KSaJ7C2EF/vL7QB61jyxv7o7otazfx2GnmRzlznbzWk3anbqF0Y9jcSXQDclT6muNN82onOKG6m6rOI+mB8pxXrUIwlTTM3NSehyviPxPPpOk3MKycySfK2enFaONMwndbngetXN5qHiWe4nkWSMzAgEZxgAH9aqEYKV0cNdxkjOv4oSzztESgBACjPf0rttzLQ8xwgpajnmaOKFo7aPbt6k1dOM4rUym4qWhVvFadgoUKeoC9DRWba0JuiPbJ/c/WuLkmF0cPAkk7g2tuyquRkjmvppwVT3jyrWkXIo53sTBmdmXJKhBjGT61zSoI6oT5S1a2Uk9pJbz242YGNwweRXLLCKU7nU6ydMu6Tok2iwPBHhGPKgnOQea6qeHUTOnV9419A8Taj4S1AajpGqOp8vY8Snoc5ziueveM2kdsa6TPdfh/+174MksrPSPiDcJBd5EReVlG4diM+2K4KkZSZ3Uq6PV7+Pw74qtbKfw1dhhI4ZVXGcEZGfw5qLWhY6VUvqMsrHR7S+ktNUgPmq+IzjBJrzq9PmN4yHeJvh9o+tJslClgASsig447YrlWCjN3Z0RqaGEvwf0K0Y3EccjAEEeYRzXRHAQH7Q2rWystKtCtvbrEpHO1etaqhGnoYTd5XH2f74iQjmjncSB93OsLFS2P7tZ1ZOSuzpp/CULa/a7vHjkm2iPHOevFc9P4iyj4jvJtRuI7S3n3KjDJB610uCkyZSsa1hCI4lVMZ28ZprDqRzTkZ/iLVBZhFwM4IcntWitT90IS1PLPHerMJmsXGV35DA9QRn+tWo3FXloecywtCZ1lnRY5WJB/iWtIqzPPk7o5nVGuprq1j0bU9qrNiYtz5i555/T8K7aZw1Cy8DKXhmuMKpOEzz616UYRdO5zPchFxJBMq+U3l9ia8+vFp6CJ/Nf8AuD/voVy2mBz76YlrIZbefKt0CkV9BFyUTgauXdNiuVjKDGWbADYzt71nNyJakbFlpA1CLEgUbTywI5x0ojOyszojTqyp6IfMHWQKtsrBRjcRT5pPYzjTqQephatrNtpCSzSaaGaWYAunXbgCp9nzu7NuWputjyj9obR73WfDthqel4EyanmTc2HCbeGzVOhGK1OqlNof8Cv24Piv8JNVhsfEOrjWNMspQv2a4fBRc9VZck4968TFVKca7ij0adRctmffvwq/aJ+E/wAdLCG80bXYvtRiDypKSrqx7HcB06fSub3ZbHdB32PRbVWIAguAxI+VlOc/lWcoVU7paFtyQ+4nuNPUC8XPfcehpe1lDcnnZmapqJuYn8uL5cjBFZOVScrrY0i+ZDLFjECxOAoGSTW0eT7RXKyDU7+1mXbg/wB0NgjJrKqk/hOiGisZuhxXZEr+UGTcQBtyetcsfcepTajuWbPQZJb0yzx+WVOduaUq16mhzzlzPQ0rhVVgVbDAfdHavQotsydOb2OJ8Yw3d7M1vLOQFbCgd+PUVlVbVZiUKkXqjjfEWn21pAJ72UKQCMMc13UIuSM60tDyL4t6R461vR5f+EF8Vpp0yqfLEsCssh9B/wDXoqLknqcjdo2MPwVoviLTbeG88X6zFe3UUeHWKPYpb27VrSr077nFUaNS7uLT7Ul0JVV1zwW4aup4mMOuhjySeqLGnXUV7Hv3rLliMDsfrW9KpQq9SWmiX7Kn/Pqf++xXT7GkTdHJyLeQqikq+4nJj7c1svgOS1jQtFELoTMxAHJbrWM9wNPSrmKO4BEudx5FJRbVztpStTSNLUhDJJttbtdoHzR9xxUt8omuY5bWIUhu+H3I/wDCR0qYVVzg3ywscZ4709dWdY7mVUjXlQGAywHAIrqm+ZGVOWp8++MkFprF15C228Er5cXTNcMqFGUry3OxN3uVNJ8S+MvDESahouv3NjdKwIa1lIJ9M1ahhonZTrOJ7n8Mv+Cgn7Rvw8s4ILuSHVoiMPvYhyM981w4hRc3y7HVGrzHvfgf/gq74WmtIl+JHgy5sZmuFRmRt4HHXAz9a86pRcjVRud9P/wUj/ZwlzNN4ikRY+rNCwJ/AL26fhW9PD2pmi92J2/g39ob4c+P9E/t3wzqqXltK2EckqSfTkConQZLrJGN8Rv2rfhV8OdHfUfFrTRQqAYljG4A9OwPetIYRuBksUvaWOGn/wCCpf7OPhaNJYL2Z2Iw0QByM9eMUnlzfQ6J1rxJrL/gqj+zjfRh7TU5TKwLOroykc+6isZZc4u5zqokzP8AFf8AwU2+EyQs+i6kqMyZX5SxPHsDiodKpTOiFU890/8AbnvvG+vWtjptlK7TXOIQBgOO/PQfjXO4TlUuKdXQ9NvNY1PxJbo0s8kWRuMZUEjPNehRcoo4atVGJrtrK0Yhkdsr3C9fyrWpHnOV1LnP32mM0qYldWP8BHFZRocjuZNcxHqlhA6G3uYkwwGSB04rp9kpRMZTcPdIrG3ksY1jsrchA+QB6VMISpO6MnzSL3mXP9xvyrb28yeSZzt5pSWsxWCEMhOVPm/4V7apy5DnlKKkQreWtuy2vkuzHoFbNYVIu4LXY2PD97ZAOGsHEi/eLdRQqtOMbN6msLl9klktzNBsPXccHcPrXLOXNsdcLGNfQ7j54Ytgda405Rq6mdaLk9DhPGdtc30MsqRYZHyMc5GK71iKfLuc8KVSLu0eHeMLO4ttTa4fTkKliXYjB/WnF0Kul9T1qTpKCTepz5vXuJfmtShVuM85/KnUwllc3UYy2NZrx76NJXk8vYOicHivPmoqTQK8WK8tvqETpcalsKsGjWdByQMdT1qo01I76U49WYus28203McsbkthlES9PXmtfaUYLlb1CpJPY+o/2QtSNj8HLNJ9QiSX7bPkMCDje+OB7YpNRnseTiK6p7lT9rJrZ/ArJflJWaJfnD5BOcjjr0xXpYegnTVzgp1nUq3Wx8S+IDc2l6xks48PISrBcnGeP0rrjCjHc9iPO4jIJr6C5WJbx1Dx/Kiy7f6VlOlCUroi0rmkNQ2RARAzs0e0mRuh+vU1i8HTluaRk0e1/sg+Hr288f6X9osYhBA7XErJC0hJxgDJNeTiKVGnWaCcmfbsc97axCWS7jkidRwiBWX2wDjjpUp0V1OGpzNlDUr9rOcGAEo2OHOSKqKi5XWxz8zi7MhvW0+6cTS7sgcsnStqig1odVNplGXSoXLSGYeoDOM/zrjjzxnrsRNR5ypbvG0zos5AHQA12N0nHUuPsVuS4m/56PWfLTNb4fuc2XaNkyc9sDmvflNJ2Pl+fXUrXaXNuWubeDEpPAxgj86xlG5tGRoaLcXNri8uX/eAfMrc5rnnRW4nVcZWNlPMltpZ1cqSpIKjgHtn1rhq3jsbQrs5DQbHxsdYvJvGzae+nk/6H9jLLLjH8QPHXNZKDmrnRGfMrlDxHGZIikaPGjNtRyRz+VP2LK5jxz42aZd22m/braVXUNiRiQMduprSjBwqXLhI8vjZ5mRZZ2iA54Oc/lXdUrLksd9KWhpwQGcZhnLbOue9cXIpalSl7xK5Mg8i4t43yPlWQZx9CKwlNx2NYyMPxBdXOlKGjti6Oex+YAcVcKPtfeZbnqfS37LVlJc/De31MCdVFzIERo+pJNdtKlGKPKxseZHM/tV6tcW0KRMGO1AGDsB/CO1enS0gjkwqtI+Wb+eY6hKJ7lXG7Kp6cVnM9+HwIiWOOeZZCDvHQA0RkkrCNW1Q6dGGkgXGcqWGafOgPe/2Sb+G58Usxd0lFvlVhcgYzjnFeViacZ1WzKcrM+srIzpGY7sKMAYCNx096x9jE5pyHalGJEM0kg2AD5AckcUmlHQwcbu5RW7aKN7eEbS397vSNIysVLy3aKSN1jkOfvc1D3Jk7u4Qi0j3SQxEMOrUhEf9qD/nqfyP+FAHPjU7e6lMSh1ZerhSP516/Pd3PCnCTn7pYLz/AGN5N7OOzMMmt4VILcuMJofavJJbGWVTnvxUVFOTvHY09mdBYXDvapHEwKFfm9RzXLOC+0bwpoy/EH2d8wP8r9QwPWo56UFY05Wjm9RRLePzbktIiqSFPTd9KqM6cnoFmecfFK0tPEHh68gbT90Uab5YVIXHHXJxSkleyBSs7Hhc9l5RCK2MfdXd0Hb9K5pqaO+lJFm2MkFvgMdzVmnPoatScroluQFUs/m+Zxjb0NWop7m8Kc2Yev211PJlSNirxljuB/CtlVhBWuRK8J6n1R+yW8cXwkSe7DvHHfPtzLwuBzx+NHtr7HPWakjzf9sDWriPVEtXtEbzB8xXnAwBXpUK0FTV2c1KnKM7nzhNFPHOzNAmCcg0SqRZ7NNrlJYYpZwDHEBtPzEdqzchNWLyq5XZJKWAIwh6VLqJAe8fsXGxTxpdTzMq/wChhQvYEN/k1w1qj9o7HNUjJy0PrFbuC6kVWxsUEl1Oc+nSsvaSOWUZEME949wyIsXktnr94UlLmZrCPuAsVvHOVu2LYPyHHSrcXHcznTm9gvWmJSRJQ6dAMYrFu4lCSWpmXAvLgGSGIogbHA71LlFD5ZEflT/3T+VL2kQ5JGHcfao1WMR4VDtOepNestjhdGwsN/cvKBanan/LUEUyGrE73huJVhhu0jRvvKxxiuynrTSHFxNDTpobVlAuwxJ+ZhkhqwqU+Y6IOJrXNjZ3sKPBZ8hxl8j7uOT+dcVWi0a2ja5yOt2Lw3giuFO1mbHGeM8VnSXLI5qja2OA8eaS8sM8UjbIZU2kDv2rqteZMIt6s+fPENk2m6w9upZdshXYfbiprx0O+lEVbySOXy44t5GMjHSuWKsjrUbE08ryRqsxbb6CqNFU5TO1K7gtsQwRu28jGUP8646krVGRP3nc+kP2Vg2o/DyXR7bOIbqR7uMHltwG3/D8KuMjmnA84/ai1IXHiR7JIyrwFlkBGfcfpivQo600THQ8KuZjPOfKgIUHoa1O+lsWrdIordmnmEYboMZ/lVfZLluMEtqsmILkSEdeCKwnuSfRf7ECx382pwyou75SCIslV6dfrXDVklMh7n0tatHbtIijIxgYX047Vnzo5pkWnzx/bXgIJI5yePet6bilcqHwkt+RcWryW8u3n5ARj2NaynGSsUVxZG4Ebfa2xG2Ww2BXO1ZkPcYuoLAxbzztWQ4Geo9a5piK+6P/AJ/pP++TWYGBrOl6hDFHbT2xaR5C24uRkZr6FQkjllXw+1yjpsV/bXElui7UyduT/jT5ZHFUlGWw9LmYXYW4I2xgk4QHiumndRszhk6qnoaenavA1y0aWp2HGw49q0917lqdVG9pNzcQYkjlHyHCxscZzXNXlT2NoVp3sJ4itJjdLGkYZnTII9x61510pHfBRt7x5tr2hrczXCXUPnPxsBcjbg/lXXSnFhKVNS02Pnj4gafa6f4iuZL6JhiZmBV8jBPHv0q6i51odlGpTfUw4xC8wlieUA849q43CSdjdzgX3FvjdHIzDH8QNLlkZSUnsUrljcSrFCGJPQDoPxrhrUKrqNpHRSi/Z6nvH7GepRx2Gs29vc/vTJGDnkn8O1XDD1uxnUXLucf8erG7vvGt/eSwsF884OzOSAB/SvSo05xppM5faQ5jxjUYJIbhjJb7SW4GKt6bnfRaaKb26zgSsjE9xRzxtY0luQzW0McizRAqScE//WrGTTZJ9JfsU6dHCdQumadZmgG1o2wr4Y9c+1ebXUvaOxlKSTPpkzyB8nyxvAK7BweKytMxactipdxW5cNMrlnb5jGfu4oqOpGndFRTSsT3ckqxCRJVMZHyoynPFcUMS1LUZDuSSy3GPaWBztPvXfHEU3pch7lUWtt9mWOC0LuGO59wGefeplJMRZ8mD/nmKzugK+qTmTcUBcxNtDEZOa+kVS6ueROi1I5rWDdlftEcgCx53r0xT5zJrlM6Oe5mQvHDyWweR92rU9DaEIyjcNO1TWbGdlSzyOcfMDgU+cr2cTe8O65BqeYLpCJC2M89a5KzvIunQjzXNrUZm0+PzUdnCrhU3DiuSR1ThFROF1SaeY3RMBQAfKSwzyM1VNtROGe586fGS0jstc80SlhMh3cdK6oykb4bc5KylEMgAZyCBnBxilLc7X8RozeX5a/ZnZxjnceKRtDYgmEsw2wMq7RjIGB+tQ9zohsey/sVSiz1fV9OQRO5iR956k5reBhiNhP2htJuG1q4SEEM8jMXEnX8K2+yeRzWnY8M1XQr+xuPPkk3gHJJasJ7np0J6GY5u133IUbc1nytnU9SjcyM048xNrEg59qORgfUX7G4totAudTaVmLXqQj5CVI2g15eI5lVaMpwu7n0DeLNczAxR4UDA2jAx2rC8jJyUSsC1kWEkijP3S7CtdZU7E85HiZ2Vbi9GC2AQK4pYdp3DnLFxai2T9zOJM/eAPStqVFOWoXuQQFo+QDg9Dg16EqEeUCX97/dP5Vj7BAWbuzFrbSmzYSM43bT2P4130qnubmdWmjl9UlnjIt2tkORmQt2Na81zzKsJXMBtStv7QFhc3EcY6qoPUVan0Ob23J7rL0M8ayK9iAydOBkZ+tOU+Valqq2Lpsr2uqmcptDSgsf4RwB16Vm056o6qVRpGvqUbXM0kkdxuXg8HjpWLo1H0LqynJe6c7r8SJbSrvxkdfwrroULU9TGMJuOp8+fGSwSTUUZZjt8s4JQ11KFNHZh6U0zhY4lOEaTnpkA1xVpRU2dbhLmNW305LOICeTDEdDzXP7elfc3hCVitqsUKRqUmKt3BPFVdPU2gmtD1r9j1bmfxXfwxvEpWyDnA7bjzW1OSZhiVZHR/G+Sxg1iVppV3yIcMAcV2eynyXPCkpe1PCfFgkSFk3Bm65Fc0ots9KgnY5KK5e2ZRcjCEnOee9OMeh6EU7EV/KLy6BhtdwK7QwI61bptLUV7H1Z+xnpd3ZeAje+XuJvyVgOOoGK86tTjKo2S6lO1rnuFxqQVfK8qRW2gkAdCRms/ZROOo77GekqyTFdQkfbn92NgOKhU5Kd+hCU7FlJoLBvOuYzMHkGcjGBjFaTjG2g7TJLq6023UPFFtLEnk571yKE1M0V0tSOa4t7g5hkYnrheK6vfaGR7pP7sv5VHJU7AbNzan7K+5lACbty9cVrFWQTdzi9XSSGeW0ggkk89d3mNxgY9TXRE4Ku5zGpaHPbqx3DMg2q2FJU/nXRCKcjzKlO8myxYyXlraRWMVwMhvnO3r611Sw6lE5pOcXoTCfYjoLcFA2cB+SfXniuGSdOXKjelUly6mhZa3JNbHzZg7dCxAXjsPy4qeaR1RqSK/iIW91DE0UP3VPmuDWEsTOM+UpVHzHgnx0kkLxRllVUVgAPc5rrpVHI7qVRnn+jXURheL7N+87E1dWkpxudsJ3Ra8yeVds7ZbtzXBGgrnRGRn3okaZkmhJ2YyQfau1UoqnYpT949j/Yzi2+KtVZ4wG+wqFHmDlc/Wqo00mc2JnobHx4it01WaWSNx8h2gqeK7a0nCFkePe9Q8F8QXF0FMKR7tp+Y7h35615LqS5j08PsZIit5lZZoTyOp6VtTneR6C2KBt5LGc+VKNu3KfXNb1Z+6ZSPsH9mYWY8C2UdqXM/wA0kwQ8Z5A+teHXrNVWjmcbs9eN2HhRnAEmwBg3UEDFY+3YuQgme3kUvIihl6vkfyrCWKmp2QWsIjRXUflS/Pg+mP5110qjmtQH30dg0ahfMXA5UbeKxqVZRqtAVpbRJVSezkZQOrMOf0rto1YtagSec3/QQH/fB/wrq9pADotTspvsg+whDvYZUjotc8ZKTsieljm/F+iTSWTyxuySpHhQpG010qLSuzir+7ucdFLcxw+TeQoX3DOR7VVPnc7rY5lZq5ja2b6GUWsTBfNYkFf4ea9OM24k82GXxMt6QLmQeXKpbjGQM5rmnKlze9uPkpvWOxPdaVcC3dViYJJIAzg9KSdFmkFA1tW0gDRjDA+wxxZY9Swriq+w9o9TTkimfP3xx03UJUha3CLHkld45NJTgtjspqCPOdOtH81pJmAc8HbVyxUIws2W7c2g+S8itZnglQlh0PrXNCrzS0NoXZVMtzPcqCuyNz+8z3ronWsrBzpSseqfst6pHp3xEnsNKg+eWwILS8gkHJx+FKliFF6nPiJXWhufHW/uJ9TmidpGaWMkkkDcMcY/CvchT9vh1OJ5sWnOx4jqzxW1uIURgpPCMOffmvPnh+SWp61BNIy764tmiRLYkEjo3Sudrln5HapKxSZN06vL+8iGPlVSMc05zjYzbufZH7OUVnZ+CLKSELCXjIEePmHzHvXkVXF1HchOx6SyBnIeJnbudwojRcth3RUuI7WQllyjZ9etN4XqzKW5LITOhbdtCAAkVk3GmSDyWnkIZ5Pm5z781m6lKWtyXJIfva6U/ZZxCAOQe9ZuVT7Ic0Sr5U3qv/fYqebE9g5ondfaozEsS8lVAPFe7RhFasV/eM3XlS7t2CR4JH3q7LxkrGWIp80TzXXovsV4zyXuVLcKEP8AhVRXLoeVLmg+Uzrie0ldsxhpOMDPsK6YbE+yUtyaCBbWBZ7e7MTnO9Ca6oxw3JeW45NwhZC3OsRRWyJcysiGXO7Of5Vy1auHhsY06kuY0Le/maxldWJB4DHnK14tflnVco7HpQbcTwr9oG6uWuLcSXIRSSUJGAwzThA6oHmdvdkSbDHlz05xmun6tGcLs1W4s13d7D/okYCH5icE0UaNOLOiGxWu57mdliWIDI4YcCssRFKq7Gbjeodr+zrfx6X8VtLiuJX/AHqyIRn72RxWPKZ1oux3HxsbT5dUa8u4pUESFNo/hI47delezh8S6eGUTzYQ/eniWvypc3Q8yKQKP4gRXLWxDkevF8sTHu44rO4TbGWXsSeayT5o3NYu6uULyaRrpT5IVHkAX5j2x6VjIZ9j/BaJrTwlp7CLhrUMuG4zk+teVXaVVkPc9NtbpZSlxE+1mX94pHesliZREQ3ZDSmN4QqA9jz+dbwxMpLUh7htsAixxSyYI+cFxxWipqoIjNvbSDq2P4Se9ZSw1pEON2PRFitvKk4HOR3pqFhchB9n03/a/wC+qvlDkO+uIlAJiBJ3HOB713VYVYQvYIpudzL1eKaYCKOQrgcDaawoVpuVjafLJHnnjWGWxPnTKd7noRXrw2uefVhTUtTmY9QtYZ2uXA3Ajcd3t6VtGpFLU4aja2LceqLdGRpSjAqPKB7cVz1HzS0ZpGm50rlC0nubucpeyRNGpOFrJ0YS3YoYdpl6w1R4Ztt25SF1O1FbgY4rGVNRlZHTa2h418e7qWfVoXABtgCiCXnB9sdK0jZbnRA4G3t4op1laMhQOd7jNVOc+S0TRNJl5Wt57KWKCLBzw571wOdeLN4SVjM1Zbb7IB5rksOZF7YreNRSV29Sk485qfCPUYIfG+lTtbTOYboKH3AYz9atWYqyTR3fxt1NptflthLIYS2SOnUA11Rg3A4IxtK55LrFzsutiTnGeImHI/GspRS3OpttWRm3+yScXDvtGOFpXWyNqUZKGpTjSe6uTDG2W5ZFA59Kwm1Hc0sz7N+GFuLbwnpemQLM0psot7tEwUHaM9q8Wu+es2iGnc9I+yPFZpJcAJgAEgcVvToc+4rMr3FkZDsa4ypGRg80p+ypz5WS4u5FbaXaIWlWRsDrniqjWitiHoTLaNJIsJYeWpyvPSu6nOnKBSSaJrvTYZ7tGGpRuYhjZuxu4z3rCrOER2RXxp3qn/fxf8a5/rFLuFkdTeeIbWPLJKwUtgbTXficQ3GxLSjoUL3WUkeLynYl88Z9DivLp1JRmI474g2sFygvprtwn9wdq96hiIypq5xVo3m2eeX4t4rgRxsil+7tk10qUGcc4FzS4BJo1z57guT8rg8fhUStcFNxVivZX1pb3ItpLY+ay5DBsgj14pD9pIffzwNA5dwuVyTu+7Vxgmrm0W2rnk/xQ1KC4hhWWMrtmwJCDzVciOqBykJER33CI+WPzE9ea0VOLgXy3ZYmWS4jMMcSRqo6hwOvPrXFVpxudEImXeR+S/kkbgvqPxrjaSkwUffLfhy5NldC6jPlhZlYNjoRW0TWpHQ6T4sa0dSaO6lkKt5abirDn5RXbGdo2OLk1PMLuZZrwzSSnAHU9elQ1zHRCJQnlmlbalxxngGpULM6I6It+Honm1aFSHYrKoJQckZzXNiY6DPtHwJqrNY2cMJAVLdAEkyGHA614c/dqEPc7yGe81B0tDGWiA428iuinXSQhJbZreZDFCwIJDZ7USgqsuYCRUUuRcfMDy4FaQoo55kdqUM7xiFiv8CDkj8uldEKtKm+VlQ+EjS5gEoDAIN5zlQcdqxxOJo2KIv7Ptv+eo/74FeZ9ZogaktpHa/N5BLM4PLdsV6cnHqZSmrleewuPLa5hK7yxCkisJumthc0TnNa0m+ewkF5N5hJPyjtWcalVP3djGVpS0OB1jwnDcytcB5FKsBjB9BXo0qlVrU55xaEbT205/ssOoOY8fNGVOAa9OnGco3MVKl1ZT/sXVTcSXsMygKmFUEcVfs5Fr2bINUi1K804acyqZH+86j5vzqG5Rdi7JbHl3xNuJ2MFuqFooZMSE8EY6/WlzTOiBzdnNBcFjECfmyATj+dX7SSjY6YLQ0J5TLb7/JXJ+5jn+VclSUmdMEU7+WeeMm9VQUUEuOM/h1rmu1uUovmuPtEmn09RINqj5hjvzW0JxlsaTSkjD8R38usag0qzyeWNqlQ/TCgdPwrotJanL7KVyhqsSQQL5G4jHOetdNK09Eaxg0Z8YVyX2Z9SDVSShOzG9DQ8Gl38Z6dLAAyrdqHTJ6e/pXJXtJaAfY3hC4jWaJ1tlUsBu2uCCO36V4dbCV5zcktDKUkmdtcaheWzIlh5kabeAO3rXLLDYiPQXNEZY6nemR/tMzuD0BOK6aUKqhZod1a5asZmZthyBnjcf611xjU7GE2RXzaja3Tn7SFjYjylg+8RjnJ6dc1fsaDd5uzKh8JVubOWVxOl3hcjIFcuIpYRqyZRN9guP8An9P5GuH6vhu4HV3lpfTBVuIRnuVIxXrOCauYON2RFREGj84bVTIHfP0rnnTiLkKl7DEbfJQOWGeR1qUknYlR944bxkkVwFt0iaMRyZZkPWu6lsKtDQ5g6hKJJYpYlK5wuSA3517FH+Gjxaj5ajRDbJcTQSW8MbjB+bdyR+PetTSMhpiVM2zS7UEZLOOCW9KxlG8jqg7xPJ/islm9uxiheHa3V+ST+FTyHXA4GyVrSYySHcX75rKaszeMrGtZQ2zQ4infeuTjOB+tc0jojIzrxZ7nUQssrEFMH3NZTjdG8XdFifULgxCxtyQygLt2+1KhDUoxZdPhuJZTazFn3AE4xzjnrXe1K1kS3Yhmyu61lYOcYLZp03Km7hzGebZdPkdTICO3Oa3uqi5mS9Td+FOn2V940tE1C1mZJJwdsLBckeuaxlGIH1x4IsBBdKhZCF+7uGDj8a5Kk1HQxlG8jvp7SO5hj8+4ERUcBWFcFWqrk8hQjsNszQOCW/vbhzXE8Q1Kxooe6WIrFPJ8qIurrnLHkda2jiW0ZSiCOqlLa4lV2jzlgCAc896HV5ncIqysOitoZJyGZVzyfmFaxpwnuMTz4v8An+H/AHwf8K0+r0wOm1C9uRIFBIjA4bFZyqO+gKDaM+5t5J0Ro3IlKN5cvbqeKxk6jH7NkM1zNbwBblMfLgt70RdnZ7iVKSdzh/E1nH5j5uJPmORivRoptGVdqxyF/FaxyhXLSHPy+1etSklHlZ4FejUdRyS0LH27U7Cz/wBHiyy8KAudwrZ6K5EVJaGdq9yFDSzyM5K5+VT8pxWfPA76btGx438TLz7VeGzinlMp+ZsnC47Yz7Uc0DsgrnLWIv8AO25KDHQsvNYVNXoU07l1Fud/mFdwA3EKccVyyTRtC5Ye+tXiEkVpsYL161DlG1jshJKOpl2epXJu/wDSSFy/3iK1oQbZXNEoWclzbarOscfnFpN5TcB8vrzXrUqcGrsmUJtc1tCtqs5lDSR2hU7jlc5NFenBrQyvrYzm88kZiKnPJY157jVS02NUmkdr8HNDGoeNLT7dKI1hkEhkLEDH4VxznNPUTaR9U6Jrfm6sq2qYjG0AqARjA5ya5akpPULo7TUY386G6SdSQvCNxn+lcNSE3sF0QwT+XdAyyLkgng1ytcsveNE48pIdTeMlYoHfb95lOBzzVRq0l1MpK4Tz288SS+SVY/e3VopxeqM3F3F+128SbraAMQQC7VLq1VsKzJt8P96L8qn2+ICzNW3vLi3i8p8nr+6Kk7fxr1atJRnZGlN3iRX17JGpiiJV1TeEI6L3NYN8pZCLj7ZFGlxkZGVYjhqzTvK4pSsrGV4s0Q3sHmxBUKj5yGBz+VejRnY46keZnm19ZwWl3JKYpSN4UegOK7adS8zjrQshy3Pkwny5ZFLcEEZ/lXpNc0TgjD3jJ1t5raw822n27s5Drya53CzN0rM8Y+LmoSC/hV41XCEAqMHPWlyHfTOXsr6SdAwlLnHLNwaHHQ2Ubu5p2N9tjKv64J9qwlE3jEI9RjgZnZPlYkJx1rllD3zZR0MfX5Jbi582NdiJ1IPtXTTaiPlGWkU8lgb7zRId2AqA7lX1NE5Vr3Wxbk+XlRWWWeG5PlBzI/8Aq5JVxtH40oTqTe5zqlK9ylqcs5ZYmA3Zy5BH5+1damlHlZ0qL5T034A6Zp+o+LFuL+5PkwRAMnUSE89un4152KcY6mE4H0vo2i2VxDCLW5SMg8Kvpmvna7rTqtwehFrHV6lAZYYIRIp8tcFyp5rNUsUwKv2G6NwhQpgxkDjvmrU405cs9y1sXokksrF5JNu7vxXbT+rzWoyPyVuYo7i9kMe59oTaevpWroQb93Yh7jNQih85baEbQeCB6il7BCIv7MuP75/On7BAdM6y3EsVyEYoP9aQ68eneumbXLdk03ywsyHWZora4SdQDvTbycnFcE05u0TTmiVYNTtrmf7LJDtKDC5binGnOK1RlLmb0LFvpryWzfbLcBQTyrA55p+0UAUX1OY8aeHmktZXtbdduMqvGc16GFcpWl0OWulex57dWn2O4Zrrz+gxGrcZwM179OUXE4VB3KGsxz3VkDHbMoXO1GcE/wA6JQ6hJWdzxf42S3dvc29xPYlQx2kgZ/lWaSZ1UqkWzibeVSfNVwoz8wz0q/ZysdsXFI0kkQukCyc9eO/euaorbm8akF1NBLi3VTGLUvgenSuWTjc2jUpy0TMfXLtIraUhQOM8ntULXY1cbK7PU/2SfBum+LtNvdR8Q2kDWpbyombGdueW/PIrlxeMdGHJ1QUlCU9T1Lxr8EfhlNp8stvaxqyqFi7YwMZBPXpmvnHmuIpTueoqEJx908U8b/BwaHbz3GlWpljdPm+TO/8Awx0/Cu3D5vCrP3nqc1XDzp7o2v2ZDbrq0umz25G1MumwZOPc+lb42rUqQvE8+Tjc+gfCpgdpJLm3bzQ2EbjkduB7V59CtOEbSRhLRnW3NukVsk0uAMDvzXfTxtOK1M3KKJLaSBojbIoPGSx7UTp4fEz9pfcuMk0NiaG+uClxFgDv2FaRwi+yVdEN7bSTyLGHLeWd6nsce1W4yp+6S9xrRo16rXIVT1wKl1GhFjNv/wA9V/Ol7QDTS0iSLyIEYLznccfzraUuZWMlqZM8SyXf2afMbsdqF+mfr0rOMeV3GZ+heGNWg1+a4m1FGjzlUPoOK2WJop2kWtjqUz824gb8bQOAcVtGeFluMjvLW31OA2fklWxjfis3XjCpaGxM6Scbnn3xA8DxWEMs7xByv8Yfrx7V62GrRa1PKrpxOCigm8qZfIK7B97dkVrWxUY6Izu3T1PO/jNotzeeEJLlZwJo5QQpTqPr0rGlVUpDo/EePQWjlkwqhTy2eea7va+7Y9VRujU0y3QXQZiCwHQDiuWo7j5CaXVLdEaOSKUNk8qDivPk/wB40aU48rucp4xvJF0+RVLqGITLA5ya6FHlVzsUuZWPZPgtNqHhDwCNDt5SokAcyA5Iz83b6189jpc1Zndh6KcE2dFN4l1aUBJJZpMHnzHyhH+yO1eFXp8zPXoxjE6Pw34stb9JdKurfKCPH7xhxke/WuSjTlGvcqtTU0U/Amgxab4uvGiQLGy5hIXBYY556dc19NTnGULM8Srh1CVz1XQJkt54Y1RsEZO7k1SqYeOjPLqq1RnUsyXeJXBZkGAnY1opYaRxzIZlaEgPLsXP3a55ySqe7sa0/hLKXyC2WKGLaP7x4zW9PENFkVlLPFJO5UsFT5DnrXow5KlPmYE11LHrEaBIxhVwxUYbNcVZJPQCl/wjMH965/77rkA6YNa6nCHZpH25AKN0wcc/lXXShUj8RjHWJSvoreV/s91C7RoMpMTkBvTiumpG60KIbQXcl6GeMKBFgFehrzqmHV+aTLWwyVrnUJ/KiudgBG7npiuZ2WzGXG1z7EnkTMpC4DtXdRiuRX3JlKWxBqWl2muQNb+YDEf4ie5Ga3Uqq+E55Uubc828UeGTpl3JBbPiMn5ieMUnKq9zjrR5NDhvF/h2DXtCutISc7pBkOegNduGjUT1M6L94+fvEWl3fhrUG0u7kCvH0OOCK9C029D2IVI8oyxupRJsIyJMEuD0qZS5PiNlrsX7mWRoWVAoCjjiuJXniHJbBJpK3U4jX7m8vdZtrWZwYkkG5cda7q1uTQdF2ep614Z1ZrKWK4tpQBsVWQ9DxivmMVTn7Vs9anVilodXNd27xCOBRyM8e/Nefy8zsdUakuhUaRQVaQsrLyCoNaezpRjrubKrJbnQeGvErLh2WSR0kEYIPAB5rCU5R2OLFT5l7p6b4b1q8KGFoA823K7SPu5qI0Z1Zcx4VSVp+8dnYao1hADLFksoPPau+GH5F7zOWTGyyQamvzTbXBztwc1anRvyp6m9NPlFMcyRokkEjY+6COBWkopK5dmSyLf7MSSKF9FGKlTr7R2K5JNDbeS2tZVnlneNSDuGeAa1Sm/iJcWhf7fsP+fx/wBavkQWZ0gtFRvMQqm/O1Lc4/PNdntIqOpxtyRVv7m5W3eKYKFj+YBRwRXLUrW0QryKNvrVhqKvE021lACorYJ4qJS54HTTvykN1GsZAtoHGV3c9cd65o0+aRY2NoBD5d1bu4bn7p5rRycJWIe4+xL3N15VnEyKFyuDnkeuOlawqSEQ+J9MinXF1sJK8goc5xXTG71OatTvqebeJdHXR5vkgwrZ4xXXCfKcUI2Z4j+0D4Ji1G1TxLpyv51u371MYUr6+9elRlzI7Iy1PM7e7uBtCxrn/ZPFTiKfNE76Uixd3t2qjD4Zhylc1KnZ2KkuaVzE1GJ5JlukIWQHMnvXRUg+U1hA6Tw14itzbLHOwQg4GT15ryq9HmR30Yqx6L4akS7hEaj95syD1GPrXj1KLpyuelSUTQktZo1KTuN4+9jnr06e1cVSd5k1PiHabd/2TdkI4BkGTnuR0/SklzGDp3Z6L8PPFllCyme0YzNcqQQ454HFdlKPLG55eIw79oz0wolzK8gkCMw3AMelbzlzI8+pT5SOO3vC6wyJnbz5iDlu9RHDq/MyoSSjYmut06rHucgdi5BroajaxfOhI7V3YoryhB6Nmqiko2JdVosQJbQgRTxeerfcUqcj61RzTrMk/syy/wCgcv5UEe3kSWeuPBdvpzoWefpJn7teZVrTjWaO6nTi43H3guLcsftBYmI5VuldlFc61L9lEz4rlGl8uYnOBhFjUBePXrWk1y6ENWZYUNHcRiWRiS20hTxg808PG7EaFgpubny7Zyske7aX5GATWlWmvash7lVr+0ubqJIIHt8bvtPlHG8gnkVUKcRFQTve308KSuQh+VpTk9K0sloXOK9kYHi/TnnsTNNICyg84qJNo8qStI8X8XxLqdhNp927FGZlIFerg23BDTtI8DkhSzvnWFjtMzKobsAxH9K9KcVY76T0E1Zntr0Qhs7QOfwzXJGK5zshqinID8srHO48j8a2qRXKdUUW7DS/tOrQElfLY5249K5ORMh1HCdkereEy0rtb22I0SHBA7142YQSjdHbSqyOjjtYYLEuikhgMZ7V8tOX7w3TcnczdXsctEyyEHFd1JKx104pl3wlqUmlahzl/LG8c967paUzmxEFdnt2lawdT0OLV2QqxtySM+hI/pWNKTcjw8THUu6BrkupmMmADKkcse3FdlV8tPQ4bss3LS29wxZsrnhAeleaq0uYLsc87m3W4hldA/8ACD05xXp03eBoopq5PY3ggs5ZZC7MpABzVmMoIX+1m/vSf99UGXLE/9k=;" vertex="1" parent="1">
          <mxGeometry x="-90" y="160" width="75.41" height="190" as="geometry" />
        </mxCell>
        <mxCell id="ldGgA2pG-wS7AxusLCZh-5" value="Transformer&lt;div style=&quot;font-size: 19px;&quot;&gt;encoder&lt;/div&gt;" style="rounded=1;whiteSpace=wrap;html=1;direction=south;textDirection=vertical-rl;fontSize=19;fillColor=#f5f5f5;fontColor=#333333;strokeColor=#666666;glass=0;" vertex="1" parent="1">
          <mxGeometry x="60" y="187" width="70" height="143" as="geometry" />
        </mxCell>
        <mxCell id="ldGgA2pG-wS7AxusLCZh-6" value="Transformer&lt;div style=&quot;font-size: 19px;&quot;&gt;encoder&lt;/div&gt;" style="rounded=1;whiteSpace=wrap;html=1;direction=south;textDirection=vertical-rl;fontSize=19;fillColor=#f5f5f5;fontColor=#333333;strokeColor=#666666;glass=0;" vertex="1" parent="1">
          <mxGeometry x="470" y="450" width="70" height="143" as="geometry" />
        </mxCell>
        <mxCell id="ldGgA2pG-wS7AxusLCZh-7" value="Transformer&lt;div style=&quot;font-size: 19px;&quot;&gt;encoder&lt;/div&gt;" style="rounded=1;whiteSpace=wrap;html=1;direction=south;textDirection=vertical-rl;fontSize=19;fillColor=#f5f5f5;fontColor=#333333;strokeColor=#666666;glass=0;" vertex="1" parent="1">
          <mxGeometry x="470" y="187" width="70" height="143" as="geometry" />
        </mxCell>
        <mxCell id="ldGgA2pG-wS7AxusLCZh-8" value="Transformer&lt;div style=&quot;font-size: 19px;&quot;&gt;encoder&lt;/div&gt;" style="rounded=1;whiteSpace=wrap;html=1;direction=south;textDirection=vertical-rl;fontSize=19;fillColor=#f5f5f5;fontColor=#333333;strokeColor=#666666;glass=0;" vertex="1" parent="1">
          <mxGeometry x="570" y="450" width="70" height="143" as="geometry" />
        </mxCell>
        <mxCell id="ldGgA2pG-wS7AxusLCZh-9" value="Transformer&lt;div style=&quot;font-size: 19px;&quot;&gt;encoder&lt;/div&gt;" style="rounded=1;whiteSpace=wrap;html=1;direction=south;textDirection=vertical-rl;fontSize=19;fillColor=#f5f5f5;fontColor=#333333;strokeColor=#666666;glass=0;" vertex="1" parent="1">
          <mxGeometry x="570" y="187" width="70" height="143" as="geometry" />
        </mxCell>
        <mxCell id="ldGgA2pG-wS7AxusLCZh-10" value="Transformer&lt;div style=&quot;font-size: 19px;&quot;&gt;encoder&lt;/div&gt;" style="rounded=1;whiteSpace=wrap;html=1;direction=south;textDirection=vertical-rl;fontSize=19;fillColor=#f5f5f5;fontColor=#333333;strokeColor=#666666;glass=0;" vertex="1" parent="1">
          <mxGeometry x="60" y="453.5" width="70" height="143" as="geometry" />
        </mxCell>
        <mxCell id="ldGgA2pG-wS7AxusLCZh-16" value="" style="endArrow=classic;startArrow=classic;html=1;rounded=0;entryX=1;entryY=0.5;entryDx=0;entryDy=0;" edge="1" parent="1" source="ldGgA2pG-wS7AxusLCZh-19" target="ldGgA2pG-wS7AxusLCZh-5">
          <mxGeometry width="50" height="50" relative="1" as="geometry">
            <mxPoint x="225" y="450" as="sourcePoint" />
            <mxPoint x="224.77999999999997" y="330" as="targetPoint" />
          </mxGeometry>
        </mxCell>
        <mxCell id="ldGgA2pG-wS7AxusLCZh-17" value="" style="endArrow=classic;startArrow=classic;html=1;rounded=0;" edge="1" parent="1" source="ldGgA2pG-wS7AxusLCZh-20">
          <mxGeometry width="50" height="50" relative="1" as="geometry">
            <mxPoint x="504.72" y="450" as="sourcePoint" />
            <mxPoint x="504.5" y="330" as="targetPoint" />
          </mxGeometry>
        </mxCell>
        <mxCell id="ldGgA2pG-wS7AxusLCZh-18" value="" style="endArrow=classic;startArrow=classic;html=1;rounded=0;" edge="1" parent="1" source="ldGgA2pG-wS7AxusLCZh-26">
          <mxGeometry width="50" height="50" relative="1" as="geometry">
            <mxPoint x="604.72" y="450" as="sourcePoint" />
            <mxPoint x="604.5" y="330" as="targetPoint" />
          </mxGeometry>
        </mxCell>
        <mxCell id="ldGgA2pG-wS7AxusLCZh-24" value="" style="endArrow=classic;startArrow=classic;html=1;rounded=0;" edge="1" parent="1" target="ldGgA2pG-wS7AxusLCZh-20">
          <mxGeometry width="50" height="50" relative="1" as="geometry">
            <mxPoint x="504.72" y="450" as="sourcePoint" />
            <mxPoint x="504.5" y="330" as="targetPoint" />
          </mxGeometry>
        </mxCell>
        <mxCell id="ldGgA2pG-wS7AxusLCZh-20" value="BAT" style="rounded=1;whiteSpace=wrap;html=1;fillColor=#fff2cc;strokeColor=#d6b656;" vertex="1" parent="1">
          <mxGeometry x="465" y="370" width="80" height="40" as="geometry" />
        </mxCell>
        <mxCell id="ldGgA2pG-wS7AxusLCZh-25" value="" style="endArrow=classic;startArrow=classic;html=1;rounded=0;exitX=0;exitY=0.5;exitDx=0;exitDy=0;" edge="1" parent="1" source="ldGgA2pG-wS7AxusLCZh-10" target="ldGgA2pG-wS7AxusLCZh-19">
          <mxGeometry width="50" height="50" relative="1" as="geometry">
            <mxPoint x="225" y="450" as="sourcePoint" />
            <mxPoint x="224.77999999999997" y="330" as="targetPoint" />
          </mxGeometry>
        </mxCell>
        <mxCell id="ldGgA2pG-wS7AxusLCZh-19" value="BAT" style="rounded=1;whiteSpace=wrap;html=1;fillColor=#fff2cc;strokeColor=#d6b656;" vertex="1" parent="1">
          <mxGeometry x="55" y="370" width="80" height="40" as="geometry" />
        </mxCell>
        <mxCell id="ldGgA2pG-wS7AxusLCZh-27" value="" style="endArrow=classic;startArrow=classic;html=1;rounded=0;" edge="1" parent="1" target="ldGgA2pG-wS7AxusLCZh-26">
          <mxGeometry width="50" height="50" relative="1" as="geometry">
            <mxPoint x="604.72" y="450" as="sourcePoint" />
            <mxPoint x="604.5" y="330" as="targetPoint" />
          </mxGeometry>
        </mxCell>
        <mxCell id="ldGgA2pG-wS7AxusLCZh-26" value="BAT" style="rounded=1;whiteSpace=wrap;html=1;fillColor=#fff2cc;strokeColor=#d6b656;" vertex="1" parent="1">
          <mxGeometry x="565" y="370" width="80" height="40" as="geometry" />
        </mxCell>
        <mxCell id="ldGgA2pG-wS7AxusLCZh-28" value="" style="endArrow=classic;html=1;rounded=0;" edge="1" parent="1">
          <mxGeometry width="50" height="50" relative="1" as="geometry">
            <mxPoint x="540" y="254.66" as="sourcePoint" />
            <mxPoint x="570" y="254.66" as="targetPoint" />
          </mxGeometry>
        </mxCell>
        <mxCell id="ldGgA2pG-wS7AxusLCZh-32" value="" style="endArrow=classic;html=1;rounded=0;" edge="1" parent="1">
          <mxGeometry width="50" height="50" relative="1" as="geometry">
            <mxPoint x="540" y="521.33" as="sourcePoint" />
            <mxPoint x="570" y="521.33" as="targetPoint" />
          </mxGeometry>
        </mxCell>
        <mxCell id="ldGgA2pG-wS7AxusLCZh-33" value="" style="endArrow=classic;html=1;rounded=0;exitX=1;exitY=0.5;exitDx=0;exitDy=0;" edge="1" parent="1" source="ldGgA2pG-wS7AxusLCZh-4">
          <mxGeometry width="50" height="50" relative="1" as="geometry">
            <mxPoint x="-1" y="254.71000000000004" as="sourcePoint" />
            <mxPoint x="29" y="254.71000000000004" as="targetPoint" />
          </mxGeometry>
        </mxCell>
        <mxCell id="ldGgA2pG-wS7AxusLCZh-34" value="" style="endArrow=classic;html=1;rounded=0;exitX=1;exitY=0.5;exitDx=0;exitDy=0;" edge="1" parent="1">
          <mxGeometry width="50" height="50" relative="1" as="geometry">
            <mxPoint x="-15" y="521.5" as="sourcePoint" />
            <mxPoint x="29" y="521.21" as="targetPoint" />
          </mxGeometry>
        </mxCell>
        <mxCell id="ldGgA2pG-wS7AxusLCZh-35" value="" style="endArrow=classic;html=1;rounded=0;fillColor=#0050ef;strokeColor=#001DBC;dashed=1;fontSize=14;" edge="1" parent="1">
          <mxGeometry width="50" height="50" relative="1" as="geometry">
            <mxPoint x="550" y="520" as="sourcePoint" />
            <mxPoint x="550" y="680" as="targetPoint" />
          </mxGeometry>
        </mxCell>
        <mxCell id="ldGgA2pG-wS7AxusLCZh-67" style="edgeStyle=orthogonalEdgeStyle;rounded=0;orthogonalLoop=1;jettySize=auto;html=1;exitX=0.5;exitY=0;exitDx=0;exitDy=0;entryX=0;entryY=0.5;entryDx=0;entryDy=0;" edge="1" parent="1">
          <mxGeometry relative="1" as="geometry">
            <mxPoint x="200.00000000000023" y="524.86" as="sourcePoint" />
            <mxPoint x="230.00000000000023" y="524.86" as="targetPoint" />
            <Array as="points">
              <mxPoint x="220" y="525.36" />
              <mxPoint x="220" y="525.36" />
            </Array>
          </mxGeometry>
        </mxCell>
        <mxCell id="ldGgA2pG-wS7AxusLCZh-43" value="Norm" style="rounded=1;whiteSpace=wrap;html=1;direction=south;textDirection=vertical-lr;fillColor=#d5e8d4;strokeColor=#82b366;" vertex="1" parent="1">
          <mxGeometry x="180" y="486.5" width="20" height="70" as="geometry" />
        </mxCell>
        <mxCell id="ldGgA2pG-wS7AxusLCZh-44" value="" style="endArrow=classic;html=1;rounded=0;entryX=0.5;entryY=0;entryDx=0;entryDy=0;" edge="1" parent="1" target="ldGgA2pG-wS7AxusLCZh-47">
          <mxGeometry width="50" height="50" relative="1" as="geometry">
            <mxPoint x="640" y="259.5" as="sourcePoint" />
            <mxPoint x="800" y="260" as="targetPoint" />
            <Array as="points">
              <mxPoint x="760" y="260" />
            </Array>
          </mxGeometry>
        </mxCell>
        <mxCell id="ldGgA2pG-wS7AxusLCZh-45" value="" style="endArrow=classic;html=1;rounded=0;entryX=0.5;entryY=1;entryDx=0;entryDy=0;" edge="1" parent="1" target="ldGgA2pG-wS7AxusLCZh-47">
          <mxGeometry width="50" height="50" relative="1" as="geometry">
            <mxPoint x="640" y="524.5" as="sourcePoint" />
            <mxPoint x="800" y="525" as="targetPoint" />
            <Array as="points">
              <mxPoint x="760" y="525" />
            </Array>
          </mxGeometry>
        </mxCell>
        <mxCell id="ldGgA2pG-wS7AxusLCZh-56" style="edgeStyle=orthogonalEdgeStyle;rounded=0;orthogonalLoop=1;jettySize=auto;html=1;exitX=1;exitY=0.5;exitDx=0;exitDy=0;entryX=0;entryY=0.5;entryDx=0;entryDy=0;" edge="1" parent="1" source="ldGgA2pG-wS7AxusLCZh-47" target="ldGgA2pG-wS7AxusLCZh-53">
          <mxGeometry relative="1" as="geometry" />
        </mxCell>
        <mxCell id="ldGgA2pG-wS7AxusLCZh-47" value="" style="shape=orEllipse;perimeter=ellipsePerimeter;whiteSpace=wrap;html=1;backgroundOutline=1;" vertex="1" parent="1">
          <mxGeometry x="740" y="370" width="40" height="40" as="geometry" />
        </mxCell>
        <mxCell id="ldGgA2pG-wS7AxusLCZh-49" value="" style="endArrow=classic;html=1;rounded=0;exitX=0.5;exitY=1;exitDx=0;exitDy=0;" edge="1" parent="1" source="ldGgA2pG-wS7AxusLCZh-2">
          <mxGeometry width="50" height="50" relative="1" as="geometry">
            <mxPoint x="1090" y="524.3800000000001" as="sourcePoint" />
            <mxPoint x="1150" y="390" as="targetPoint" />
          </mxGeometry>
        </mxCell>
        <mxCell id="ldGgA2pG-wS7AxusLCZh-54" style="edgeStyle=orthogonalEdgeStyle;rounded=0;orthogonalLoop=1;jettySize=auto;html=1;exitX=0;exitY=0.5;exitDx=0;exitDy=0;entryX=1;entryY=0.5;entryDx=0;entryDy=0;" edge="1" parent="1" source="ldGgA2pG-wS7AxusLCZh-50" target="ldGgA2pG-wS7AxusLCZh-53">
          <mxGeometry relative="1" as="geometry" />
        </mxCell>
        <mxCell id="ldGgA2pG-wS7AxusLCZh-50" value="Text Encoder" style="rounded=1;whiteSpace=wrap;html=1;textDirection=vertical-rl;fontSize=23;fillColor=#dae8fc;strokeColor=#6c8ebf;direction=east;" vertex="1" parent="1">
          <mxGeometry x="1050" y="300" width="100" height="180" as="geometry" />
        </mxCell>
        <mxCell id="ldGgA2pG-wS7AxusLCZh-53" value="SDM Loss" style="rounded=1;whiteSpace=wrap;html=1;fontSize=18;fillColor=#e1d5e7;strokeColor=#9673a6;" vertex="1" parent="1">
          <mxGeometry x="850" y="360" width="120" height="60" as="geometry" />
        </mxCell>
        <mxCell id="ldGgA2pG-wS7AxusLCZh-60" value="&lt;span style=&quot;color: rgba(0, 0, 0, 0.9); font-family: &amp;quot;PingFang SC&amp;quot;, system-ui, -apple-system, BlinkMacSystemFont, &amp;quot;Helvetica Neue&amp;quot;, &amp;quot;Hiragino Sans GB&amp;quot;, &amp;quot;Microsoft YaHei UI&amp;quot;, &amp;quot;Microsoft YaHei&amp;quot;, Arial, sans-serif; font-size: 9px; letter-spacing: 0.544px; text-align: justify;&quot;&gt;Multi-Head Attention&lt;/span&gt;" style="rounded=1;whiteSpace=wrap;html=1;fontSize=9;textDirection=vertical-rl;fillColor=#fff2cc;strokeColor=#d6b656;align=center;verticalAlign=middle;fontFamily=Helvetica;" vertex="1" parent="1">
          <mxGeometry x="230" y="485" width="30" height="80" as="geometry" />
        </mxCell>
        <mxCell id="ldGgA2pG-wS7AxusLCZh-74" style="edgeStyle=orthogonalEdgeStyle;rounded=0;orthogonalLoop=1;jettySize=auto;html=1;exitX=0.5;exitY=0;exitDx=0;exitDy=0;entryX=0.5;entryY=1;entryDx=0;entryDy=0;" edge="1" parent="1" source="ldGgA2pG-wS7AxusLCZh-61" target="ldGgA2pG-wS7AxusLCZh-62">
          <mxGeometry relative="1" as="geometry" />
        </mxCell>
        <mxCell id="ldGgA2pG-wS7AxusLCZh-61" value="Norm" style="rounded=1;whiteSpace=wrap;html=1;direction=south;textDirection=vertical-lr;fillColor=#d5e8d4;strokeColor=#82b366;" vertex="1" parent="1">
          <mxGeometry x="330" y="490" width="20" height="70" as="geometry" />
        </mxCell>
        <mxCell id="ldGgA2pG-wS7AxusLCZh-75" style="edgeStyle=orthogonalEdgeStyle;rounded=0;orthogonalLoop=1;jettySize=auto;html=1;exitX=0.5;exitY=0;exitDx=0;exitDy=0;entryX=0;entryY=0.5;entryDx=0;entryDy=0;" edge="1" parent="1" source="ldGgA2pG-wS7AxusLCZh-62" target="ldGgA2pG-wS7AxusLCZh-64">
          <mxGeometry relative="1" as="geometry" />
        </mxCell>
        <mxCell id="ldGgA2pG-wS7AxusLCZh-62" value="MLP" style="rounded=1;whiteSpace=wrap;html=1;direction=south;textDirection=vertical-lr;fillColor=#d5e8d4;strokeColor=#82b366;fontSize=11;" vertex="1" parent="1">
          <mxGeometry x="370" y="490" width="20" height="70" as="geometry" />
        </mxCell>
        <mxCell id="ldGgA2pG-wS7AxusLCZh-64" value="" style="shape=orEllipse;perimeter=ellipsePerimeter;whiteSpace=wrap;html=1;backgroundOutline=1;" vertex="1" parent="1">
          <mxGeometry x="406" y="516.75" width="16" height="16.5" as="geometry" />
        </mxCell>
        <mxCell id="ldGgA2pG-wS7AxusLCZh-66" value="" style="shape=orEllipse;perimeter=ellipsePerimeter;whiteSpace=wrap;html=1;backgroundOutline=1;" vertex="1" parent="1">
          <mxGeometry x="280" y="516.75" width="16" height="16.5" as="geometry" />
        </mxCell>
        <mxCell id="ldGgA2pG-wS7AxusLCZh-71" style="edgeStyle=orthogonalEdgeStyle;rounded=0;orthogonalLoop=1;jettySize=auto;html=1;exitX=0.5;exitY=0;exitDx=0;exitDy=0;entryX=0.548;entryY=1.054;entryDx=0;entryDy=0;entryPerimeter=0;endArrow=none;endFill=0;" edge="1" parent="1" source="ldGgA2pG-wS7AxusLCZh-10" target="ldGgA2pG-wS7AxusLCZh-43">
          <mxGeometry relative="1" as="geometry" />
        </mxCell>
        <mxCell id="ldGgA2pG-wS7AxusLCZh-72" style="edgeStyle=orthogonalEdgeStyle;rounded=0;orthogonalLoop=1;jettySize=auto;html=1;exitX=1;exitY=0.5;exitDx=0;exitDy=0;entryX=0;entryY=0.5;entryDx=0;entryDy=0;" edge="1" parent="1" source="ldGgA2pG-wS7AxusLCZh-60" target="ldGgA2pG-wS7AxusLCZh-66">
          <mxGeometry relative="1" as="geometry" />
        </mxCell>
        <mxCell id="ldGgA2pG-wS7AxusLCZh-73" style="edgeStyle=orthogonalEdgeStyle;rounded=0;orthogonalLoop=1;jettySize=auto;html=1;exitX=1;exitY=0.5;exitDx=0;exitDy=0;entryX=0.5;entryY=1;entryDx=0;entryDy=0;endArrow=none;endFill=0;" edge="1" parent="1" source="ldGgA2pG-wS7AxusLCZh-66" target="ldGgA2pG-wS7AxusLCZh-61">
          <mxGeometry relative="1" as="geometry" />
        </mxCell>
        <mxCell id="ldGgA2pG-wS7AxusLCZh-76" style="edgeStyle=orthogonalEdgeStyle;rounded=0;orthogonalLoop=1;jettySize=auto;html=1;exitX=1;exitY=0.5;exitDx=0;exitDy=0;entryX=0.523;entryY=1.02;entryDx=0;entryDy=0;entryPerimeter=0;" edge="1" parent="1" source="ldGgA2pG-wS7AxusLCZh-64" target="ldGgA2pG-wS7AxusLCZh-6">
          <mxGeometry relative="1" as="geometry" />
        </mxCell>
        <mxCell id="ldGgA2pG-wS7AxusLCZh-77" value="" style="endArrow=classic;html=1;rounded=0;entryX=0;entryY=0.688;entryDx=0;entryDy=0;entryPerimeter=0;" edge="1" parent="1" target="ldGgA2pG-wS7AxusLCZh-60">
          <mxGeometry width="50" height="50" relative="1" as="geometry">
            <mxPoint x="210" y="540" as="sourcePoint" />
            <mxPoint x="210" y="533.25" as="targetPoint" />
          </mxGeometry>
        </mxCell>
        <mxCell id="ldGgA2pG-wS7AxusLCZh-78" value="" style="endArrow=classic;html=1;rounded=0;entryX=0;entryY=0.688;entryDx=0;entryDy=0;entryPerimeter=0;" edge="1" parent="1">
          <mxGeometry width="50" height="50" relative="1" as="geometry">
            <mxPoint x="210" y="510" as="sourcePoint" />
            <mxPoint x="230" y="510" as="targetPoint" />
          </mxGeometry>
        </mxCell>
        <mxCell id="ldGgA2pG-wS7AxusLCZh-79" value="" style="endArrow=none;html=1;rounded=0;" edge="1" parent="1">
          <mxGeometry width="50" height="50" relative="1" as="geometry">
            <mxPoint x="210" y="540" as="sourcePoint" />
            <mxPoint x="210" y="510" as="targetPoint" />
          </mxGeometry>
        </mxCell>
        <mxCell id="ldGgA2pG-wS7AxusLCZh-80" value="" style="edgeStyle=segmentEdgeStyle;endArrow=classic;html=1;curved=0;rounded=0;endSize=8;startSize=8;entryX=0.5;entryY=1;entryDx=0;entryDy=0;" edge="1" parent="1" target="ldGgA2pG-wS7AxusLCZh-66">
          <mxGeometry width="50" height="50" relative="1" as="geometry">
            <mxPoint x="160" y="525" as="sourcePoint" />
            <mxPoint x="280" y="550" as="targetPoint" />
            <Array as="points">
              <mxPoint x="288" y="570" />
            </Array>
          </mxGeometry>
        </mxCell>
        <mxCell id="ldGgA2pG-wS7AxusLCZh-81" value="" style="edgeStyle=segmentEdgeStyle;endArrow=classic;html=1;curved=0;rounded=0;endSize=8;startSize=8;entryX=0.5;entryY=1;entryDx=0;entryDy=0;" edge="1" parent="1" target="ldGgA2pG-wS7AxusLCZh-64">
          <mxGeometry width="50" height="50" relative="1" as="geometry">
            <mxPoint x="310" y="525" as="sourcePoint" />
            <mxPoint x="408" y="533.25" as="targetPoint" />
            <Array as="points">
              <mxPoint x="310" y="570" />
              <mxPoint x="414" y="570" />
            </Array>
          </mxGeometry>
        </mxCell>
        <mxCell id="ldGgA2pG-wS7AxusLCZh-84" style="edgeStyle=orthogonalEdgeStyle;rounded=0;orthogonalLoop=1;jettySize=auto;html=1;exitX=0.5;exitY=0;exitDx=0;exitDy=0;entryX=0;entryY=0.5;entryDx=0;entryDy=0;" edge="1" parent="1">
          <mxGeometry relative="1" as="geometry">
            <mxPoint x="200.00000000000023" y="252.35000000000002" as="sourcePoint" />
            <mxPoint x="230.00000000000023" y="252.35000000000002" as="targetPoint" />
            <Array as="points">
              <mxPoint x="220" y="252.85000000000002" />
              <mxPoint x="220" y="252.85000000000002" />
            </Array>
          </mxGeometry>
        </mxCell>
        <mxCell id="ldGgA2pG-wS7AxusLCZh-85" value="Norm" style="rounded=1;whiteSpace=wrap;html=1;direction=south;textDirection=vertical-lr;fillColor=#d5e8d4;strokeColor=#82b366;" vertex="1" parent="1">
          <mxGeometry x="180" y="213.99" width="20" height="70" as="geometry" />
        </mxCell>
        <mxCell id="ldGgA2pG-wS7AxusLCZh-86" value="&lt;span style=&quot;color: rgba(0, 0, 0, 0.9); font-family: &amp;quot;PingFang SC&amp;quot;, system-ui, -apple-system, BlinkMacSystemFont, &amp;quot;Helvetica Neue&amp;quot;, &amp;quot;Hiragino Sans GB&amp;quot;, &amp;quot;Microsoft YaHei UI&amp;quot;, &amp;quot;Microsoft YaHei&amp;quot;, Arial, sans-serif; font-size: 9px; letter-spacing: 0.544px; text-align: justify;&quot;&gt;Multi-Head Attention&lt;/span&gt;" style="rounded=1;whiteSpace=wrap;html=1;fontSize=9;textDirection=vertical-rl;fillColor=#fff2cc;strokeColor=#d6b656;align=center;verticalAlign=middle;fontFamily=Helvetica;" vertex="1" parent="1">
          <mxGeometry x="230" y="212.49" width="30" height="80" as="geometry" />
        </mxCell>
        <mxCell id="ldGgA2pG-wS7AxusLCZh-87" style="edgeStyle=orthogonalEdgeStyle;rounded=0;orthogonalLoop=1;jettySize=auto;html=1;exitX=0.5;exitY=0;exitDx=0;exitDy=0;entryX=0.5;entryY=1;entryDx=0;entryDy=0;" edge="1" parent="1" source="ldGgA2pG-wS7AxusLCZh-88" target="ldGgA2pG-wS7AxusLCZh-90">
          <mxGeometry relative="1" as="geometry" />
        </mxCell>
        <mxCell id="ldGgA2pG-wS7AxusLCZh-88" value="Norm" style="rounded=1;whiteSpace=wrap;html=1;direction=south;textDirection=vertical-lr;fillColor=#d5e8d4;strokeColor=#82b366;" vertex="1" parent="1">
          <mxGeometry x="330" y="217.49" width="20" height="70" as="geometry" />
        </mxCell>
        <mxCell id="ldGgA2pG-wS7AxusLCZh-89" style="edgeStyle=orthogonalEdgeStyle;rounded=0;orthogonalLoop=1;jettySize=auto;html=1;exitX=0.5;exitY=0;exitDx=0;exitDy=0;entryX=0;entryY=0.5;entryDx=0;entryDy=0;" edge="1" parent="1" source="ldGgA2pG-wS7AxusLCZh-90" target="ldGgA2pG-wS7AxusLCZh-91">
          <mxGeometry relative="1" as="geometry" />
        </mxCell>
        <mxCell id="ldGgA2pG-wS7AxusLCZh-90" value="MLP" style="rounded=1;whiteSpace=wrap;html=1;direction=south;textDirection=vertical-lr;fillColor=#d5e8d4;strokeColor=#82b366;fontSize=11;" vertex="1" parent="1">
          <mxGeometry x="370" y="217.49" width="20" height="70" as="geometry" />
        </mxCell>
        <mxCell id="ldGgA2pG-wS7AxusLCZh-91" value="" style="shape=orEllipse;perimeter=ellipsePerimeter;whiteSpace=wrap;html=1;backgroundOutline=1;" vertex="1" parent="1">
          <mxGeometry x="406" y="244.24" width="16" height="16.5" as="geometry" />
        </mxCell>
        <mxCell id="ldGgA2pG-wS7AxusLCZh-92" value="" style="shape=orEllipse;perimeter=ellipsePerimeter;whiteSpace=wrap;html=1;backgroundOutline=1;" vertex="1" parent="1">
          <mxGeometry x="280" y="244.24" width="16" height="16.5" as="geometry" />
        </mxCell>
        <mxCell id="ldGgA2pG-wS7AxusLCZh-93" style="edgeStyle=orthogonalEdgeStyle;rounded=0;orthogonalLoop=1;jettySize=auto;html=1;exitX=0.5;exitY=0;exitDx=0;exitDy=0;entryX=0.548;entryY=1.054;entryDx=0;entryDy=0;entryPerimeter=0;endArrow=none;endFill=0;" edge="1" parent="1" target="ldGgA2pG-wS7AxusLCZh-85">
          <mxGeometry relative="1" as="geometry">
            <mxPoint x="131" y="252.5" as="sourcePoint" />
          </mxGeometry>
        </mxCell>
        <mxCell id="ldGgA2pG-wS7AxusLCZh-94" style="edgeStyle=orthogonalEdgeStyle;rounded=0;orthogonalLoop=1;jettySize=auto;html=1;exitX=1;exitY=0.5;exitDx=0;exitDy=0;entryX=0;entryY=0.5;entryDx=0;entryDy=0;" edge="1" parent="1" source="ldGgA2pG-wS7AxusLCZh-86" target="ldGgA2pG-wS7AxusLCZh-92">
          <mxGeometry relative="1" as="geometry" />
        </mxCell>
        <mxCell id="ldGgA2pG-wS7AxusLCZh-95" style="edgeStyle=orthogonalEdgeStyle;rounded=0;orthogonalLoop=1;jettySize=auto;html=1;exitX=1;exitY=0.5;exitDx=0;exitDy=0;entryX=0.5;entryY=1;entryDx=0;entryDy=0;endArrow=none;endFill=0;" edge="1" parent="1" source="ldGgA2pG-wS7AxusLCZh-92" target="ldGgA2pG-wS7AxusLCZh-88">
          <mxGeometry relative="1" as="geometry" />
        </mxCell>
        <mxCell id="ldGgA2pG-wS7AxusLCZh-96" style="edgeStyle=orthogonalEdgeStyle;rounded=0;orthogonalLoop=1;jettySize=auto;html=1;exitX=1;exitY=0.5;exitDx=0;exitDy=0;entryX=0.523;entryY=1.02;entryDx=0;entryDy=0;entryPerimeter=0;" edge="1" parent="1" source="ldGgA2pG-wS7AxusLCZh-91">
          <mxGeometry relative="1" as="geometry">
            <mxPoint x="470" y="252.5" as="targetPoint" />
          </mxGeometry>
        </mxCell>
        <mxCell id="ldGgA2pG-wS7AxusLCZh-97" value="" style="endArrow=classic;html=1;rounded=0;entryX=0;entryY=0.688;entryDx=0;entryDy=0;entryPerimeter=0;" edge="1" parent="1" target="ldGgA2pG-wS7AxusLCZh-86">
          <mxGeometry width="50" height="50" relative="1" as="geometry">
            <mxPoint x="210" y="267.49" as="sourcePoint" />
            <mxPoint x="210" y="260.74" as="targetPoint" />
          </mxGeometry>
        </mxCell>
        <mxCell id="ldGgA2pG-wS7AxusLCZh-98" value="" style="endArrow=classic;html=1;rounded=0;entryX=0;entryY=0.688;entryDx=0;entryDy=0;entryPerimeter=0;" edge="1" parent="1">
          <mxGeometry width="50" height="50" relative="1" as="geometry">
            <mxPoint x="210" y="237.49" as="sourcePoint" />
            <mxPoint x="230" y="237.49" as="targetPoint" />
          </mxGeometry>
        </mxCell>
        <mxCell id="ldGgA2pG-wS7AxusLCZh-99" value="" style="endArrow=none;html=1;rounded=0;" edge="1" parent="1">
          <mxGeometry width="50" height="50" relative="1" as="geometry">
            <mxPoint x="210" y="270" as="sourcePoint" />
            <mxPoint x="210" y="237.49" as="targetPoint" />
          </mxGeometry>
        </mxCell>
        <mxCell id="ldGgA2pG-wS7AxusLCZh-100" value="" style="edgeStyle=segmentEdgeStyle;endArrow=classic;html=1;curved=0;rounded=0;endSize=8;startSize=8;entryX=0.5;entryY=0;entryDx=0;entryDy=0;" edge="1" parent="1" target="ldGgA2pG-wS7AxusLCZh-92">
          <mxGeometry width="50" height="50" relative="1" as="geometry">
            <mxPoint x="160" y="252.49" as="sourcePoint" />
            <mxPoint x="280" y="277.49" as="targetPoint" />
            <Array as="points">
              <mxPoint x="160" y="200" />
              <mxPoint x="288" y="200" />
            </Array>
          </mxGeometry>
        </mxCell>
        <mxCell id="ldGgA2pG-wS7AxusLCZh-101" value="" style="edgeStyle=segmentEdgeStyle;endArrow=classic;html=1;curved=0;rounded=0;endSize=8;startSize=8;entryX=0.5;entryY=0;entryDx=0;entryDy=0;" edge="1" parent="1" target="ldGgA2pG-wS7AxusLCZh-91">
          <mxGeometry width="50" height="50" relative="1" as="geometry">
            <mxPoint x="310" y="252.49" as="sourcePoint" />
            <mxPoint x="408" y="260.74" as="targetPoint" />
            <Array as="points">
              <mxPoint x="310" y="200" />
              <mxPoint x="414" y="200" />
            </Array>
          </mxGeometry>
        </mxCell>
        <mxCell id="ldGgA2pG-wS7AxusLCZh-102" value="BAT&lt;span style=&quot;color: rgba(0, 0, 0, 0); font-family: monospace; font-size: 0px; text-align: start; text-wrap-mode: nowrap;&quot;&gt;%3CmxGraphModel%3E%3Croot%3E%3CmxCell%20id%3D%220%22%2F%3E%3CmxCell%20id%3D%221%22%20parent%3D%220%22%2F%3E%3CmxCell%20id%3D%222%22%20value%3D%22BAT%22%20style%3D%22rounded%3D1%3BwhiteSpace%3Dwrap%3Bhtml%3D1%3BfillColor%3D%23fff2cc%3BstrokeColor%3D%23d6b656%3B%22%20vertex%3D%221%22%20parent%3D%221%22%3E%3CmxGeometry%20x%3D%2255%22%20y%3D%22370%22%20width%3D%2280%22%20height%3D%2240%22%20as%3D%22geometry%22%2F%3E%3C%2FmxCell%3E%3C%2Froot%3E%3C%2FmxGraphModel%3E&lt;/span&gt;" style="rounded=1;whiteSpace=wrap;html=1;fillColor=#fff2cc;strokeColor=#d6b656;" vertex="1" parent="1">
          <mxGeometry x="180" y="370" width="80" height="40" as="geometry" />
        </mxCell>
        <mxCell id="ldGgA2pG-wS7AxusLCZh-103" value="BAT&lt;span style=&quot;color: rgba(0, 0, 0, 0); font-family: monospace; font-size: 0px; text-align: start; text-wrap-mode: nowrap;&quot;&gt;%3CmxGraphModel%3E%3Croot%3E%3CmxCell%20id%3D%220%22%2F%3E%3CmxCell%20id%3D%221%22%20parent%3D%220%22%2F%3E%3CmxCell%20id%3D%222%22%20value%3D%22BAT%22%20style%3D%22rounded%3D1%3BwhiteSpace%3Dwrap%3Bhtml%3D1%3BfillColor%3D%23fff2cc%3BstrokeColor%3D%23d6b656%3B%22%20vertex%3D%221%22%20parent%3D%221%22%3E%3CmxGeometry%20x%3D%2255%22%20y%3D%22370%22%20width%3D%2280%22%20height%3D%2240%22%20as%3D%22geometry%22%2F%3E%3C%2FmxCell%3E%3C%2Froot%3E%3C%2FmxGraphModel%3E&lt;/span&gt;" style="rounded=1;whiteSpace=wrap;html=1;fillColor=#fff2cc;strokeColor=#d6b656;" vertex="1" parent="1">
          <mxGeometry x="326" y="370" width="80" height="40" as="geometry" />
        </mxCell>
        <mxCell id="ldGgA2pG-wS7AxusLCZh-107" value="" style="edgeStyle=segmentEdgeStyle;endArrow=none;html=1;curved=0;rounded=0;endSize=8;startSize=8;entryX=0.375;entryY=0;entryDx=0;entryDy=0;entryPerimeter=0;endFill=0;fillColor=#f8cecc;strokeColor=#b85450;dashed=1;" edge="1" parent="1" target="ldGgA2pG-wS7AxusLCZh-102">
          <mxGeometry width="50" height="50" relative="1" as="geometry">
            <mxPoint x="210" y="270" as="sourcePoint" />
            <mxPoint x="220" y="340" as="targetPoint" />
          </mxGeometry>
        </mxCell>
        <mxCell id="ldGgA2pG-wS7AxusLCZh-108" value="" style="edgeStyle=segmentEdgeStyle;endArrow=none;html=1;curved=0;rounded=0;endSize=8;startSize=8;endFill=0;fillColor=#dae8fc;strokeColor=#6c8ebf;dashed=1;" edge="1" parent="1">
          <mxGeometry width="50" height="50" relative="1" as="geometry">
            <mxPoint x="210" y="510" as="sourcePoint" />
            <mxPoint x="210" y="410" as="targetPoint" />
          </mxGeometry>
        </mxCell>
        <mxCell id="ldGgA2pG-wS7AxusLCZh-109" value="" style="edgeStyle=segmentEdgeStyle;endArrow=classic;html=1;curved=0;rounded=0;endSize=8;startSize=8;entryX=0.5;entryY=1;entryDx=0;entryDy=0;exitX=0.75;exitY=0;exitDx=0;exitDy=0;fillColor=#dae8fc;strokeColor=#6c8ebf;dashed=1;" edge="1" parent="1" source="ldGgA2pG-wS7AxusLCZh-102" target="ldGgA2pG-wS7AxusLCZh-92">
          <mxGeometry width="50" height="50" relative="1" as="geometry">
            <mxPoint x="220" y="360" as="sourcePoint" />
            <mxPoint x="270" y="310" as="targetPoint" />
            <Array as="points">
              <mxPoint x="240" y="320" />
              <mxPoint x="288" y="320" />
            </Array>
          </mxGeometry>
        </mxCell>
        <mxCell id="ldGgA2pG-wS7AxusLCZh-110" value="" style="edgeStyle=segmentEdgeStyle;endArrow=classic;html=1;curved=0;rounded=0;endSize=8;startSize=8;entryX=0.5;entryY=0;entryDx=0;entryDy=0;fillColor=#f8cecc;strokeColor=#b85450;dashed=1;" edge="1" parent="1" target="ldGgA2pG-wS7AxusLCZh-66">
          <mxGeometry width="50" height="50" relative="1" as="geometry">
            <mxPoint x="240" y="410" as="sourcePoint" />
            <mxPoint x="288" y="344.5" as="targetPoint" />
            <Array as="points">
              <mxPoint x="240" y="450" />
              <mxPoint x="288" y="450" />
            </Array>
          </mxGeometry>
        </mxCell>
        <mxCell id="ldGgA2pG-wS7AxusLCZh-111" value="" style="edgeStyle=segmentEdgeStyle;endArrow=none;html=1;curved=0;rounded=0;endSize=8;startSize=8;endFill=0;fillColor=#f8cecc;strokeColor=#b85450;dashed=1;entryX=0.175;entryY=0;entryDx=0;entryDy=0;entryPerimeter=0;" edge="1" parent="1" target="ldGgA2pG-wS7AxusLCZh-103">
          <mxGeometry width="50" height="50" relative="1" as="geometry">
            <mxPoint x="310" y="250" as="sourcePoint" />
            <mxPoint x="310" y="350" as="targetPoint" />
            <Array as="points">
              <mxPoint x="310" y="320" />
              <mxPoint x="340" y="320" />
            </Array>
          </mxGeometry>
        </mxCell>
        <mxCell id="ldGgA2pG-wS7AxusLCZh-112" value="" style="edgeStyle=segmentEdgeStyle;endArrow=classic;html=1;curved=0;rounded=0;endSize=8;startSize=8;entryX=0.5;entryY=1;entryDx=0;entryDy=0;exitX=0.75;exitY=0;exitDx=0;exitDy=0;fillColor=#dae8fc;strokeColor=#6c8ebf;dashed=1;" edge="1" parent="1">
          <mxGeometry width="50" height="50" relative="1" as="geometry">
            <mxPoint x="365" y="370" as="sourcePoint" />
            <mxPoint x="413" y="261" as="targetPoint" />
            <Array as="points">
              <mxPoint x="365" y="320" />
              <mxPoint x="413" y="320" />
            </Array>
          </mxGeometry>
        </mxCell>
        <mxCell id="ldGgA2pG-wS7AxusLCZh-114" value="" style="edgeStyle=segmentEdgeStyle;endArrow=none;html=1;curved=0;rounded=0;endSize=8;startSize=8;endFill=0;fillColor=#dae8fc;strokeColor=#6c8ebf;dashed=1;entryX=0.203;entryY=1.037;entryDx=0;entryDy=0;entryPerimeter=0;" edge="1" parent="1" target="ldGgA2pG-wS7AxusLCZh-103">
          <mxGeometry width="50" height="50" relative="1" as="geometry">
            <mxPoint x="310" y="530" as="sourcePoint" />
            <mxPoint x="310" y="430" as="targetPoint" />
            <Array as="points">
              <mxPoint x="310" y="450" />
              <mxPoint x="342" y="450" />
            </Array>
          </mxGeometry>
        </mxCell>
        <mxCell id="ldGgA2pG-wS7AxusLCZh-115" value="" style="edgeStyle=segmentEdgeStyle;endArrow=classic;html=1;curved=0;rounded=0;endSize=8;startSize=8;entryX=0.5;entryY=0;entryDx=0;entryDy=0;fillColor=#f8cecc;strokeColor=#b85450;dashed=1;" edge="1" parent="1">
          <mxGeometry width="50" height="50" relative="1" as="geometry">
            <mxPoint x="366" y="409.75" as="sourcePoint" />
            <mxPoint x="414" y="516.75" as="targetPoint" />
            <Array as="points">
              <mxPoint x="366" y="449.75" />
              <mxPoint x="414" y="449.75" />
            </Array>
          </mxGeometry>
        </mxCell>
        <mxCell id="ldGgA2pG-wS7AxusLCZh-124" value="" style="endArrow=classic;html=1;rounded=0;fillColor=#0050ef;strokeColor=#001DBC;dashed=1;fontSize=14;" edge="1" parent="1">
          <mxGeometry width="50" height="50" relative="1" as="geometry">
            <mxPoint x="450" y="250" as="sourcePoint" />
            <mxPoint x="450" y="100" as="targetPoint" />
          </mxGeometry>
        </mxCell>
        <mxCell id="ldGgA2pG-wS7AxusLCZh-125" value="" style="endArrow=classic;html=1;rounded=0;fillColor=#0050ef;strokeColor=#001DBC;dashed=1;fontSize=14;entryX=0.5;entryY=0;entryDx=0;entryDy=0;" edge="1" parent="1" target="ldGgA2pG-wS7AxusLCZh-132">
          <mxGeometry width="50" height="50" relative="1" as="geometry">
            <mxPoint x="135" y="250" as="sourcePoint" />
            <mxPoint x="830" y="530" as="targetPoint" />
            <Array as="points">
              <mxPoint x="135" y="100" />
              <mxPoint x="830" y="100" />
            </Array>
          </mxGeometry>
        </mxCell>
        <mxCell id="ldGgA2pG-wS7AxusLCZh-130" value="Intermediate feature" style="edgeLabel;html=1;align=center;verticalAlign=middle;resizable=0;points=[];fontSize=14;" vertex="1" connectable="0" parent="ldGgA2pG-wS7AxusLCZh-125">
          <mxGeometry x="0.7008" y="-1" relative="1" as="geometry">
            <mxPoint x="-89" y="-242" as="offset" />
          </mxGeometry>
        </mxCell>
        <mxCell id="ldGgA2pG-wS7AxusLCZh-126" value="" style="endArrow=classic;html=1;rounded=0;fillColor=#0050ef;strokeColor=#001DBC;dashed=1;fontSize=14;" edge="1" parent="1">
          <mxGeometry width="50" height="50" relative="1" as="geometry">
            <mxPoint x="560" y="260" as="sourcePoint" />
            <mxPoint x="560" y="100" as="targetPoint" />
          </mxGeometry>
        </mxCell>
        <mxCell id="ldGgA2pG-wS7AxusLCZh-127" value="" style="endArrow=classic;html=1;rounded=0;fillColor=#0050ef;strokeColor=#001DBC;dashed=1;fontSize=14;" edge="1" parent="1">
          <mxGeometry width="50" height="50" relative="1" as="geometry">
            <mxPoint x="440" y="530" as="sourcePoint" />
            <mxPoint x="440" y="680" as="targetPoint" />
          </mxGeometry>
        </mxCell>
        <mxCell id="ldGgA2pG-wS7AxusLCZh-128" value="" style="endArrow=classic;html=1;rounded=0;fillColor=#0050ef;strokeColor=#001DBC;dashed=1;fontSize=14;entryX=0.5;entryY=1;entryDx=0;entryDy=0;" edge="1" parent="1" target="ldGgA2pG-wS7AxusLCZh-132">
          <mxGeometry width="50" height="50" relative="1" as="geometry">
            <mxPoint x="135" y="530" as="sourcePoint" />
            <mxPoint x="830" y="680" as="targetPoint" />
            <Array as="points">
              <mxPoint x="135" y="680" />
              <mxPoint x="830" y="680" />
            </Array>
          </mxGeometry>
        </mxCell>
        <mxCell id="ldGgA2pG-wS7AxusLCZh-129" value="Intermediate feature" style="edgeLabel;html=1;align=center;verticalAlign=middle;resizable=0;points=[];fontSize=14;" vertex="1" connectable="0" parent="ldGgA2pG-wS7AxusLCZh-128">
          <mxGeometry x="0.6636" y="-1" relative="1" as="geometry">
            <mxPoint x="-47" as="offset" />
          </mxGeometry>
        </mxCell>
        <mxCell id="ldGgA2pG-wS7AxusLCZh-134" style="edgeStyle=orthogonalEdgeStyle;rounded=0;orthogonalLoop=1;jettySize=auto;html=1;exitX=1;exitY=0.5;exitDx=0;exitDy=0;fillColor=#1ba1e2;strokeColor=#006EAF;" edge="1" parent="1" source="ldGgA2pG-wS7AxusLCZh-132">
          <mxGeometry relative="1" as="geometry">
            <mxPoint x="970" y="553" as="targetPoint" />
          </mxGeometry>
        </mxCell>
        <mxCell id="ldGgA2pG-wS7AxusLCZh-136" value="&lt;div style=&quot;font-size: 14px;&quot;&gt;fusion features&lt;/div&gt;" style="edgeLabel;html=1;align=center;verticalAlign=middle;resizable=0;points=[];fontSize=14;" vertex="1" connectable="0" parent="ldGgA2pG-wS7AxusLCZh-134">
          <mxGeometry x="-0.1352" relative="1" as="geometry">
            <mxPoint y="12" as="offset" />
          </mxGeometry>
        </mxCell>
        <mxCell id="ldGgA2pG-wS7AxusLCZh-132" value="" style="shape=orEllipse;perimeter=ellipsePerimeter;whiteSpace=wrap;html=1;backgroundOutline=1;" vertex="1" parent="1">
          <mxGeometry x="810" y="533.25" width="40" height="40" as="geometry" />
        </mxCell>
        <mxCell id="ldGgA2pG-wS7AxusLCZh-133" value="" style="edgeStyle=segmentEdgeStyle;endArrow=classic;html=1;curved=0;rounded=0;endSize=8;startSize=8;fillColor=#0050ef;strokeColor=#001DBC;entryX=0.5;entryY=0;entryDx=0;entryDy=0;dashed=1;" edge="1" parent="1" target="ldGgA2pG-wS7AxusLCZh-135">
          <mxGeometry width="50" height="50" relative="1" as="geometry">
            <mxPoint x="830" y="476.75" as="sourcePoint" />
            <mxPoint x="1010" y="540" as="targetPoint" />
            <Array as="points">
              <mxPoint x="1040" y="477" />
            </Array>
          </mxGeometry>
        </mxCell>
        <mxCell id="ldGgA2pG-wS7AxusLCZh-135" value="&lt;font style=&quot;font-size: 16px;&quot;&gt;KL-divergence loss&lt;/font&gt;" style="rounded=1;whiteSpace=wrap;html=1;fillColor=#e1d5e7;strokeColor=#9673a6;align=center;verticalAlign=middle;" vertex="1" parent="1">
          <mxGeometry x="970" y="520" width="140" height="65" as="geometry" />
        </mxCell>
      </root>
    </mxGraphModel>
  </diagram>
</mxfile>
